<?xml version="1.0" encoding="UTF-8"?>
<svg id="Calque_2" data-name="Calque 2" xmlns="http://www.w3.org/2000/svg" xmlns:xlink="http://www.w3.org/1999/xlink" viewBox="0 0 46.28 46.21">
  <defs>
    <style>
      .cls-1 {
        fill: #f0f;
      }

      .cls-2 {
        fill: url(#Dégradé_sans_nom_194-2);
      }

      .cls-3 {
        fill: url(#Dégradé_sans_nom_193-2);
      }

      .cls-4 {
        opacity: .6;
      }

      .cls-5 {
        fill: url(#Dégradé_sans_nom_193);
      }

      .cls-6 {
        fill: url(#Dégradé_sans_nom_194);
      }
    </style>
    <linearGradient id="Dégradé_sans_nom_193" data-name="Dégradé sans nom 193" x1="-8.76" y1="14.92" x2="10.16" y2="37.46" gradientUnits="userSpaceOnUse">
      <stop offset="0" stop-color="#ff00ea"/>
      <stop offset="1" stop-color="#363636" stop-opacity="0"/>
    </linearGradient>
    <linearGradient id="Dégradé_sans_nom_194" data-name="Dégradé sans nom 194" x1="-497.49" y1="-395.94" x2="-478.23" y2="-372.98" gradientTransform="translate(515.16 385.16)" gradientUnits="userSpaceOnUse">
      <stop offset="0" stop-color="#ff00ea"/>
      <stop offset=".17" stop-color="#ca0eba" stop-opacity=".74"/>
      <stop offset=".33" stop-color="#9d1a92" stop-opacity=".51"/>
      <stop offset=".49" stop-color="#782471" stop-opacity=".33"/>
      <stop offset=".64" stop-color="#5b2b57" stop-opacity=".19"/>
      <stop offset=".78" stop-color="#463145" stop-opacity=".08"/>
      <stop offset=".9" stop-color="#3a3439" stop-opacity=".02"/>
      <stop offset="1" stop-color="#363636" stop-opacity="0"/>
    </linearGradient>
    <linearGradient id="Dégradé_sans_nom_193-2" data-name="Dégradé sans nom 193" x1="-332.85" y1="-901.83" x2="-313.94" y2="-879.29" gradientTransform="translate(368.97 910.58)" xlink:href="#Dégradé_sans_nom_193"/>
    <linearGradient id="Dégradé_sans_nom_194-2" data-name="Dégradé sans nom 194" x1="419.26" y1="-720.04" x2="438.53" y2="-697.08" gradientTransform="translate(-409.92 754.07)" xlink:href="#Dégradé_sans_nom_194"/>
  </defs>
  <g id="Maquette">
    <g>
      <g>
        <polygon class="cls-4" points="37.95 44.81 1.4 44.81 1.4 7.57 8.33 1.4 44.87 1.4 44.87 38.64 37.95 44.81"/>
        <rect class="cls-5" y="7.57" width="1.4" height="37.24"/>
        <polygon class="cls-1" points="8.33 0 8.33 1.4 1.4 7.57 0 7.57 8.33 0"/>
        <rect class="cls-6" x="26.6" y="-18.27" width="1.4" height="37.95" transform="translate(26.6 28) rotate(-90)"/>
        <rect class="cls-3" x="44.87" y="1.4" width="1.4" height="37.24" transform="translate(91.15 40.04) rotate(180)"/>
        <polygon class="cls-1" points="37.95 46.21 37.95 44.81 44.87 38.64 46.28 38.64 37.95 46.21"/>
        <rect class="cls-2" x="18.27" y="26.54" width="1.4" height="37.95" transform="translate(64.48 26.54) rotate(90)"/>
      </g>
      <polygon class="cls-1" points="23.14 22.14 7.73 30.42 23.14 15.01 38.55 30.42 23.14 22.14"/>
    </g>
  </g>
</svg>