<?xml version="1.0" encoding="utf-8"?>
<!-- Generator: Adobe Illustrator 27.2.0, SVG Export Plug-In . SVG Version: 6.00 Build 0)  -->
<svg version="1.1" id="Calque_2_00000026867040296792733970000009487981781915126691_"
	 xmlns="http://www.w3.org/2000/svg" xmlns:xlink="http://www.w3.org/1999/xlink" x="0px" y="0px" viewBox="0 0 319.7 146.3"
	 style="enable-background:new 0 0 319.7 146.3;" xml:space="preserve">
<style type="text/css">
	.st0{clip-path:url(#SVGID_00000003078793660373424030000009475096296363673510_);}
	.st1{clip-path:url(#SVGID_00000052820967394824691550000012229227834729537452_);}
	.st2{fill:#213377;}
	.st3{clip-path:url(#SVGID_00000182515705671377449660000015458146113502220436_);}
	.st4{fill:url(#SVGID_00000161600071592319198580000004441315279319728554_);}
	
		.st5{clip-path:url(#SVGID_00000169541314165708606680000016275301862003117185_);fill:url(#SVGID_00000169547483547567025210000010549363194657648778_);}
</style>
<g>
	<g>
		<path d="M183.8,54.2c0,1.9-41.1,1.5-42.7,3.1c-1.9,1.9,16.3,3.7,13.8,5.3c-1.3,0.8-22.9,1.7-27.3,2.4c-1.9,0.3,15,0.6,12.3,0.9
			c-7.9,0.9-24.1,1.7-28.1,2.5c-1.9,0.3-1,3.7-3.6,5.7c-2.3,1.8-6.2,0.1-10.5-1.6c-0.4-0.2-0.2,3.6-0.6,3.4c-0.5-0.2-1.5-4.2-2-4.3
			c-1.1-0.4-2.2,0.7-3.3,0.5c-0.9-0.2-3.2-2.5-2.9-1.5c1.7,5.2,1,9.4,0.4,9.9c-1,0.9-1.2-4.5-3.2-9.5c-1-2.5-2,3.7-4.5,5.1
			c-1,0.6-3-3.2-3.6-3.2c-1.8,0-0.8,13.3,0.1,16.8c0.7,2.7-1.3,4.1-2.5,4.1s-3.3-1.5-2.7-4.2c1.4-6.3,2.3-18.1,0.1-19.1
			c-1.4-0.6-3.9,10-5.5,10s-1.8-8-3.3-8.1c-1-0.1-3.3,6.5-4.3,6.4c-1.8-0.2-2.3-6.9-4.1-7.1c-1-0.1-3-1.6-3.1-0.4
			c-0.6,12-2.4-1.1-3.2-0.4c-4.7,3.7-3,29.2-2,34.2c0.5,2.8-1.1,5-4,5s-4.4-2.9-3.7-7.5c1.1-7.1,3.1-28.3-1.6-33.9
			c-0.9-1-1.8,5.5-3.1,5.2c-1.2-0.3-3-6.7-4.1-7.1c-2-0.6-2.8,11.2-4.6,10.5c-1.1-0.4-2.7-10.9-3.7-11.3c-0.8-0.3-2.8,1.7-3.6,1.3
			c-1.1-0.5-4.4,5.5-5.4,4.9c-0.7-0.4,1.6-12,1-12.4c-0.8-0.5-9.7,6.3-10.4,5.8c-1.1-0.8,6.1-9.1,5.3-10c-1.2-1.3-4.9-0.4-5.4-1.8
			c-0.4-1,6.9-3.1,2.2-5.4c-0.8-0.4,0.2-1.9,0.5-2.8c0.3-0.8-3-4.5-2.5-5.2c0.6-0.9,6,1.7,6.8,0.8c0.6-0.6,1.3-0.8,1-2.3
			c-0.2-1.1-1.1-3.7-0.2-4.3s5.8,0.7,6.9,0.1c1.1-0.6-6.3-9.6-5.1-10.2c0.8-0.4,8.4,9.3,9.2,8.9c0.8-0.4,3.5-0.7,4.5-1
			c0.7-0.3-1.1-5.5-0.3-5.7c0.8-0.3,4.5,5,5.3,4.7c1.1-0.3-12-17.5,1.2-7.1c1.4,1.1,2.3,4.8,3.6,2.4c0.5-1,2.3,1.4,3.3,1.2
			c1.2-0.2,2.1-4.8,3.3-5c0.9-0.2,2.3,5.7,3.3,5.5c0.7-0.1-0.3-5.3,0.4-5.4c0.8-0.1,3,3,3.7,2.9c1-0.1,1.7-10.8,2.8-10.9
			c1.1-0.1,2.6,10.3,3.7,10.2c0.6-0.1,1.2-0.1,1.9-0.2c1.7-0.1,4.1-5.2,5.8-5.3c1.1-0.1,0.8,5.6,1.9,5.6c1.9-0.1,4.8-5.3,6.8-5.4
			c1.3,0,3.4,2.5,4.8,2.5c1.2,0,1.3,1.9,2.6,2c1.2,0.1,0.6-8.1,1.9-8c0.4,0.1-0.8,9.7,0.9,10.2c2.1,0.6,7.3-7.8,7.8-7.7
			c1,0.2-2.9,8-1.9,8.2c1.2,0.2,3.4-1,4.6-0.7c0.8,0.2,3.1-6.6,5-11.5c1.1-2.7,1.3-9.5,3.9-8.6c2.8,0.9-1.3,5.6-1.7,7.6
			c-0.8,4.8-2.7,12.6-1.9,12.8c0.6,0.1,1.5-0.9,2.1-0.8c0.9,0.2,4.9-9.8,5.8-9.5c0.8,0.2,4.8-2.7,5.6-2.5c0.4,0.1-3.8,16.5-1.2,14.2
			s5.7-7.3,6.1-7.2c1.1,0.3-4.7,7.9-3.6,8.3c0.9,0.3,7.3-4,8.2-3.8c1.3,0.4-6.1,9.9-4.8,10.3c0.9,0.3,11.3-1.8,12.2-1.4
			c1.8,0.6-3.8,1.6-2.2,2.2c2.6,1,5.1,2,7.3,3s-3.9,1.8-1.8,2.6c6.3,2.6,20.9,0.7,23.9,3.1c2.4,1.9-25.9,1.4-23.6,3.1
			C139,52.2,183.8,50.9,183.8,54.2L183.8,54.2z"/>
		<path d="M224.7,38.9c0,0.5-10.6,0.9-11,1.3c-0.2,0.3,10.6,0.6,10.4,0.9c-0.4,0.5-14.4,1-15.4,1.4c-0.3,0.1,3.6,0.2,3.3,0.3
			c-0.4,0.2-6.9,0.4-7.3,0.6c-0.7,0.3,2.4,0.5,2.1,0.7c-0.4,0.3-9.1,1.3-13.2,1.3c-14.9,0-23-3.9-23-6.5c0-2.4,6-6.5,20.9-6.5
			c1.2,0,9.3,0.1,13.6,0.6c0.9,0.1-7.8,0.4-6.6,0.6c1.3,0.2,19.2,0.5,20.1,0.8c0.8,0.3-6.5,0.6-5.6,0.9c1.1,0.4,11.3,0.8,12.1,1.2
			c0.6,0.3-19.1,0.7-18.8,1.1S224.7,38.4,224.7,38.9L224.7,38.9z"/>
		<path d="M286.3,59.7c0-0.3-6.2-0.5-6.4-0.8c-0.1-0.2,6.2-0.3,6-0.5c-0.3-0.3-8.4-0.5-8.9-0.8c-0.2-0.1,2.1-0.1,1.9-0.2
			c-0.2-0.1-4-0.2-4.3-0.3c-0.4-0.2,1.4-0.3,1.2-0.4c-0.2-0.2-5.3-0.7-7.7-0.7c-8.7,0-13.4,2.3-13.4,3.8c0,1.4,3.5,3.8,12.2,3.8
			c0.7,0,5.4,0,7.9-0.3c0.5-0.1-4.6-0.2-3.9-0.3c0.8-0.1,11.2-0.3,11.7-0.5c0.4-0.2-3.8-0.3-3.3-0.5c0.6-0.2,6.6-0.5,7-0.7
			c0.3-0.2-11.1-0.4-10.9-0.6C275.7,60.2,286.3,60,286.3,59.7L286.3,59.7z"/>
		<path d="M245,80.8c0,0.4-12.9,0.8-13.4,1.1c-0.4,0.3,3,0.6,2.6,0.9c-0.5,0.4-9.3,0.8-10.1,1.2c-0.8,0.4,13.9,0.7,13.5,1
			c-0.4,0.2-14,0.5-15.5,0.7s5.4,0.4,4.2,0.6c-2.9,0.4-8.4,1.3-12.3,1.3c-14,0-25.3-2.7-25.3-6.1s11.3-6.2,25.3-6.1
			c9.2,0.1,13.1,0,16.8,0.7c0.4,0.1-8.9,0.5-10.1,0.8c-1.1,0.3,13.6,0.6,13.7,0.9c0.1,0.5-5.2,1-4.7,1.4
			C230.3,79.7,245,80.2,245,80.8L245,80.8z"/>
		<path d="M275.6,78.2c0,0.1-4.3,0.2-4.5,0.3c-0.1,0.1,1,0.2,0.9,0.2c-0.2,0.1-3.1,0.2-3.4,0.3s4.6,0.2,4.5,0.2
			c-0.1,0.1-4.7,0.1-5.2,0.2s1.8,0.1,1.4,0.1c-1,0.1-3.8,0.3-5.1,0.3c-0.9,0-4.8-0.7-4.8-1.5s3.6-1.5,4.8-1.5c3.1,0,5.4,0,6.6,0.2
			c0.1,0-3,0.1-3.4,0.2s4.6,0.1,4.6,0.2s-1.7,0.2-1.6,0.4C270.6,77.9,275.6,78.1,275.6,78.2L275.6,78.2z"/>
		<path d="M169.4,77c0,0.1-6.4,0.3-6.5,0.5c-0.1,0.1,6,0.2,5.7,0.3c-0.2,0.1-7.4,0.3-7.6,0.4c-0.1,0,6.5,0.1,6.4,0.1
			s-6.8,0.1-6.9,0.1c-0.1,0.1,3.9,0.3,3.8,0.3c-0.1,0-9.8,0.3-9.8-1.8c0-1.1,4.1-2.3,9.2-2c0.6,0-0.9,0.1-0.5,0.2
			c0.2,0,0.3,0.1,0.6,0.1c3.3,0.3,4.4,0.2,4.6,0.4c0,0.1-6.3,0.1-6.7,0.2c-0.8,0.1,10.6,0.2,11,0.4s-3.3,0-2.9,0.4
			c0.2,0.2-7.6,0.3-7,0.4C163.2,77,169.4,77,169.4,77L169.4,77z"/>
		<path d="M269.7,38.2c0,0.1-6.4,0.3-6.5,0.5c-0.1,0.1,6,0.2,5.7,0.3c-0.2,0.1-7.4,0.3-7.6,0.4c-0.1,0,6.5,0,6.4,0.1
			c-0.1,0-6.8,0.1-6.9,0.1c-0.1,0.1,3.9,0.3,3.8,0.3s-9.8,0.3-9.8-1.8c0-1.1,4.1-2.3,9.2-2c0.6,0-0.9,0.1-0.5,0.2
			c0.2,0,0.3,0,0.5,0.1c3.3,0.3,4.4,0.2,4.6,0.4c0,0.1-6.3,0.1-6.7,0.2c-0.8,0.1,10.6,0.2,11,0.4s-3.3,0-2.9,0.4
			c0.2,0.2-7.6,0.3-7,0.4C263.5,38.2,269.7,38.1,269.7,38.2L269.7,38.2z"/>
		<path d="M139.2,19.6c0,0.2-5.9,0.3-6,0.5c-0.2,0.4,5.5,0.7,5.4,1c0,0.1-7.6,0.2-7.9,0.3c-0.6,0.2,3.9,0.4,3.4,0.5
			c-0.6,0.1-3.9,0.1-6.9,0.2c-3,0.1-5.4-1.1-5.4-2.5s2.4-2.8,5.4-2.5c3.3,0.4,6.1,0.3,6.9,0.5c0.3,0.1-3.9,0-3.4,0.1
			s6.2,0.2,6.2,0.3s-2.2,0.1-2.6,0.2c-0.5,0.1,5.7,0.2,5.6,0.3c-0.2,0.2-6.3,0.4-6.2,0.6C133.8,19.2,139.2,19.4,139.2,19.6
			L139.2,19.6z"/>
		<path d="M121.9,89.1c0,0.2,14,0.3,14.4,0.4c0.5,0.2-12.6,0.3-12.6,0.5c-0.1,0.2,5.6,0.4,5.3,0.6c-0.4,0.2-12.7,0.4-14,0.6
			c-1.2,0.2,9.1,0.3,8.8,0.4c-0.6,0.2-1.7,0.1-5.7,0.3c-6.4,0.3-9.5-1.6-9.5-2.8s3.1-3.1,9.5-2.8c7.9,0.5,6.3,0.4,6.6,0.5
			c0.5,0.2-5.1,0.1-4.8,0.2c0.4,0.1,5.3,0.2,6,0.3c0.4,0.1-1.7,0.1-0.9,0.2c1.2,0.1,5,0.2,5.2,0.3s-2.4,0.4-3.3,0.6s2.5,0,1.3,0.2
			C126.3,88.7,121.9,88.9,121.9,89.1L121.9,89.1z"/>
		<path d="M306,52.7c0,0.1,14,0.2,14.4,0.3c0.5,0.1-12.5,0.2-12.6,0.3s5.6,0.3,5.3,0.4c-0.4,0.1-12.7,0.3-14,0.4
			c-1.2,0.1,9.1,0.2,8.8,0.2c-0.6,0.1-1.7,0-5.7,0.2c-6.4,0.2-9.5-1-9.5-1.8s3.1-2.1,9.5-1.8c7.9,0.3,6.3,0.2,6.6,0.3
			c0.5,0.1-5,0.1-4.8,0.1c0.4,0.1,5.4,0.1,6,0.2c0.4,0-1.7,0.1-0.9,0.1c1.2,0.1,5,0.1,5.2,0.2s-2.4,0.3-3.3,0.4s2.5,0,1.3,0.1
			C310.4,52.5,306,52.6,306,52.7L306,52.7z"/>
		<path d="M236.2,59.7c0-0.1,12.3-0.3,12.7-0.4c0.4-0.2-11-0.3-11.1-0.4c-0.1-0.2,4.9-0.4,4.6-0.5c-0.3-0.2-11.2-0.3-12.3-0.5
			c-1-0.1,8-0.2,7.7-0.3c-0.5-0.2-1.5-0.1-5-0.2c-5.6-0.3-8.3,1.4-8.3,2.4s2.7,2.8,8.3,2.4c6.9-0.4,5.5-0.3,5.8-0.4
			c0.4-0.1-4.4-0.1-4.2-0.2c0.3-0.1,4.7-0.2,5.3-0.3c0.4-0.1-1.5-0.1-0.8-0.2c1-0.1,4.4-0.2,4.5-0.3s-2.1-0.4-2.9-0.5s2.2,0,1.1-0.1
			C240.1,60,236.2,59.9,236.2,59.7L236.2,59.7z"/>
	</g>
	<g>
		<path d="M51.4,135.1c0.9-0.5,9.8,0.6,13.1,0.6h135c18.4,0,32.9-1.8,35-1.1s2,3.4,0,3.9s-18.3-1.1-28.1-1.1h-142
			c-3.3,0-12.2,1.1-13,0.5S50.5,135.6,51.4,135.1z"/>
		<g>
			<g>
				<defs>
					<path id="SVGID_1_" d="M51.4,135.1c0.9-0.5,9.8,0.6,13.1,0.6h135c18.4,0,32.9-1.8,35-1.1s2,3.4,0,3.9s-18.3-1.1-28.1-1.1h-142
						c-3.3,0-12.2,1.1-13,0.5S50.5,135.6,51.4,135.1z"/>
				</defs>
				<clipPath id="SVGID_00000035501257158619660660000000634582893475147690_">
					<use xlink:href="#SVGID_1_"  style="overflow:visible;"/>
				</clipPath>
				<g style="clip-path:url(#SVGID_00000035501257158619660660000000634582893475147690_);">
					<rect x="47.6" y="99.8" width="188.4" height="39"/>
				</g>
			</g>
		</g>
	</g>
	<g>
		<g>
			<defs>
				<path id="SVGID_00000073712200228415900070000013857309409074112676_" d="M38.7,71c-0.9,0-1.9-0.1-3-0.2s-2.2-0.4-3.2-0.8
					s-1.9-1-2.6-1.7c-0.7-0.7-1.1-1.7-1.1-3c0-1.4,0.4-2.6,1.2-3.8c0.8-1.2,1.8-2.2,3-3.2s2.7-1.8,4.2-2.5c1.6-0.7,3.2-1.3,4.9-1.8
					c1.6-0.5,3.2-0.8,4.8-1.1s2.9-0.4,4.1-0.4c1.2,0,2.1,0,2.7,0.1c0.6,0.1,1,0.3,1.1,0.6L52,56.7c-0.6-0.2-1.5-0.3-2.9-0.5
					s-2.9-0.3-4.8-0.3c-1.1,0-2.2,0.2-3.4,0.5c-1.2,0.2-2.3,0.7-3.2,1.3c-1,0.6-1.8,1.4-2.4,2.4c-0.6,0.9-0.9,2.1-0.9,3.3
					c0,0.7,0.1,1.4,0.3,2c0.2,0.6,0.6,1.1,1.1,1.5s1.2,0.7,2.1,0.9c0.9,0.2,2,0.3,3.4,0.3c1.2,0,2.6-0.2,4.1-0.5
					c1.5-0.3,3.1-0.8,4.7-1.4c1.6-0.7,3.2-1.5,4.7-2.5c1.5-1,2.9-2.1,4.1-3.5c1.2-1.3,2.2-2.8,2.9-4.5s1.1-3.5,1.1-5.6
					c0-2.6-0.5-4.5-1.4-5.6c-1-1.1-2.2-1.7-3.6-1.7c-1.5,0-3,0.2-4.4,0.6c-1.4,0.4-2.7,1-4,1.6c-1.3,0.7-2.5,1.4-3.8,2.2
					c-1.2,0.8-2.5,1.5-3.8,2.1c-1.3,0.7-2.6,1.2-4,1.6c-1.4,0.4-2.8,0.6-4.4,0.6c-0.6,0-1.2-0.1-1.8-0.3s-1.2-0.5-1.7-0.9
					s-0.9-0.9-1.2-1.6c-0.3-0.6-0.5-1.5-0.5-2.4c0-1.1,0.3-2.1,0.9-3.1s1.3-2,2.1-2.9c0.9-0.9,1.8-1.7,2.8-2.5
					c1-0.7,1.9-1.4,2.8-1.9s1.6-0.9,2.2-1.2c0.6-0.3,0.9-0.4,0.9-0.4s-0.2-0.1-0.5-0.3s-0.7-0.4-1.1-0.6c-0.4-0.2-0.8-0.4-1.2-0.6
					s-0.7-0.4-0.9-0.5c-0.3-0.2-0.8-0.5-1.5-0.8s-1.3-0.7-2-1.1s-1.3-0.8-1.8-1.2c-0.5-0.4-0.8-0.9-0.9-1.4l4.4-1.9
					c0.6,0.4,1.4,1,2.4,1.7s2,1.4,3.1,2.1s2.2,1.3,3.4,1.8s2.3,0.8,3.3,0.8h9.1c0.2,0,0.5,0.1,0.9,0.2c0.4,0.1,0.7,0.3,0.9,0.5
					c-0.3,0.7-0.8,1.4-1.5,1.9s-1.4,0.8-2.1,0.8H43.2c-0.9,0-2,0.2-3.2,0.7s-2.3,1.1-3.4,1.9c-1,0.8-1.9,1.7-2.6,2.8
					c-0.7,1.1-1.1,2.3-1.1,3.5c0,0.8,0.1,1.4,0.4,1.9c0.2,0.5,0.6,0.8,1,1.1c0.4,0.3,0.8,0.5,1.3,0.5c0.5,0.1,0.9,0.2,1.4,0.2
					c1.1,0,2.1-0.2,3.1-0.7s1.9-1,2.8-1.4c1.4-0.7,2.8-1.5,4.2-2.3s2.9-1.6,4.4-2.3s3-1.3,4.6-1.8s3.2-0.7,4.9-0.7
					c0.6,0,1.4,0.1,2.1,0.2c0.8,0.2,1.5,0.5,2.2,1s1.3,1.3,1.7,2.3c0.5,1,0.7,2.3,0.7,4c0,2-0.4,4-1.3,6c-0.9,2-2,3.9-3.5,5.6
					c-1.5,1.8-3.2,3.4-5.1,5c-2,1.5-4,2.8-6.2,3.9c-2.2,1.1-4.4,2-6.6,2.6C43,70.6,40.8,71,38.7,71z M84,42.5
					c-0.6,0.1-1.4,0.1-2.5,0.1s-2.3,0-3.6,0.1c0.2,2.7,0.3,5.5,0.5,8.4c0.2,2.9,0.3,5.8,0.4,8.5c0.1,2.8,0.1,5.3,0.2,7.7
					c0,2.4,0,4.4-0.2,6l-2.5-0.1c-0.1-0.4-0.1-0.8-0.1-1.2c0-0.5,0.1-0.9,0.1-1.3c0.1-0.4,0.1-0.8,0.2-1.2s0.1-0.7,0.2-0.9
					c0.2-3.9,0.2-8,0.1-12.4c-0.2-4.4-0.5-8.9-1-13.6c-1.6,0-3,0.1-4.3,0.1c-1.3,0.1-2.1,0.1-2.4,0.2l-1.4-0.1c0-0.1,0-0.1-0.1-0.2
					c0-0.1,0-0.1,0-0.1c0.1-0.3,0.3-0.8,0.5-1.2s0.5-1,0.8-1.4s0.6-0.8,0.9-1.1s0.6-0.5,0.8-0.5c0.4-0.1,0.9-0.1,1.7-0.1
					c0.8,0,1.7,0.1,2.8,0.1c-0.3-2.6-0.7-5.4-1.2-8.1L75,26l1.6,0.8c0.1,1,0.1,2.1,0.2,3.3c0.1,1.1,0.2,2.3,0.3,3.7
					c0.1,1.4,0.2,3,0.4,4.7c1,0,2.1,0,3.3,0c1.2,0,2.4-0.1,3.8-0.1c0.4,0,0.8-0.1,1.1-0.1c0.3,0,0.5,0,0.7,0h0.3l0.1,0.7L84,42.5z
					 M93.6,64.8c-0.3-0.6-0.6-1.4-1-2.5s-0.9-2.4-1.3-3.6c-0.5-1.2-0.9-2.3-1.4-3.4c-0.5-1-0.9-1.8-1.2-2.1
					c-0.9,0.3-1.7,0.4-2.2,0.4c-0.5-0.1-0.9-0.2-1-0.5s0-0.7,0.4-1.2s1.1-1.1,2.1-1.8l-0.6-1.2l4-3.2c0.4,0,0.6,0.1,0.9,0.3
					c0.2,0.2,0.4,0.4,0.5,0.7s0.3,0.5,0.5,0.7s0.5,0.3,0.8,0.3c0.2,0,0.5-0.1,0.9-0.4c0.4-0.3,0.9-0.6,1.4-1s1.1-0.8,1.8-1.2
					c0.6-0.4,1.3-0.8,1.9-1.2c0.6-0.3,1.2-0.6,1.8-0.8c0.6-0.2,1.1-0.2,1.5-0.1l-0.2,0.6c-0.3,0.8-0.6,1.5-0.9,2.1s-0.5,1.1-0.8,1.6
					c-0.2,0.5-0.5,0.8-0.7,0.9l-6.4,1.7c0,0.1,0.1,0.2,0.1,0.3c0,0.3,0,0.5,0,0.6c0.4,2,1,3.9,1.7,5.5c0.7,1.7,1.4,3.5,2.1,5.4
					l-0.1,0.4L94,65.3c-0.1,0-0.2,0-0.2-0.1C93.8,65.1,93.7,65,93.6,64.8z M102.6,56.4l-4.4,2.1l-0.6-0.6l2.6-2.6
					c0.1-0.1,0.3-0.3,0.6-0.5c0.2-0.2,0.5-0.4,0.8-0.6c0.2-0.2,0.5-0.4,0.7-0.6c0.2-0.2,0.3-0.4,0.4-0.6c0.2-1.5,0.5-2.9,0.9-4.1
					c0.4-1.3,1-2.6,1.7-4c-0.1-0.1-0.3-0.3-0.5-0.4c-0.2-0.2-0.3-0.4-0.2-0.6v-0.2l4.2-3.6h0.8c0.4,0.3,1,0.7,1.7,1.2
					c0.8,0.4,1.5,0.9,2.3,1.4s1.5,1,2.2,1.6c0.6,0.5,1.1,1.1,1.3,1.6c0,0.1,0,0.1,0,0.2l0,0c-0.3,0.2-0.7,0.4-1.2,0.8
					c-0.6,0.4-1.2,0.8-1.9,1.2c-0.7,0.4-1.4,0.9-2.1,1.4s-1.4,0.9-2,1.4c-0.6,0.4-1.1,0.8-1.5,1.1s-0.6,0.6-0.6,0.7v0.4
					c0.9,1.5,2.1,2.4,3.5,2.9s2.9,0.7,4.6,0.7c0.8,0,1.6-0.1,2.2-0.4c0.6-0.2,1.3-0.5,1.8-0.9c0.6-0.4,1.2-0.9,1.7-1.4
					c0.6-0.5,1.2-1.1,1.9-1.6h0.3c0,0,0.1,0.1,0.2,0.2c0.1,0.1,0.2,0.3,0.3,0.4c0.1,0.2,0.2,0.3,0.3,0.5c0.1,0.2,0.1,0.3,0.1,0.3
					c0,0.2-0.1,0.4-0.3,0.6c-0.2,0.2-0.4,0.5-0.6,0.6c-0.2,0.2-0.4,0.4-0.6,0.5s-0.3,0.2-0.4,0.3c-1,0.8-1.9,1.5-2.9,2.1
					s-2,1.2-3,1.7s-2,0.8-3.1,1.1s-2.2,0.4-3.5,0.4c-1.7,0-3.2-0.4-4.5-1.3c-1.3-0.9-2.2-2.1-2.8-3.6h-0.4V56.4z M107.4,45.4
					c-0.1,0.8-0.2,1.6-0.3,2.4c-0.1,0.8-0.2,1.6,0,2.3c0.6-0.2,1.3-0.6,2-1.1s1.3-1,1.8-1.6c-0.4-0.4-0.9-0.9-1.5-1.4
					C108.7,45.6,108.1,45.4,107.4,45.4z M120.6,56.4l-4.4,2.1l-0.6-0.6l2.6-2.6c0.1-0.1,0.3-0.3,0.6-0.5c0.2-0.2,0.5-0.4,0.8-0.6
					c0.2-0.2,0.5-0.4,0.7-0.6c0.2-0.2,0.3-0.4,0.4-0.6c0.2-1.5,0.5-2.9,0.9-4.1c0.4-1.3,1-2.6,1.7-4c-0.1-0.1-0.3-0.3-0.5-0.4
					c-0.2-0.2-0.3-0.4-0.2-0.6v-0.2l4.2-3.6h0.8c0.4,0.3,1,0.7,1.7,1.2c0.8,0.4,1.5,0.9,2.3,1.4c0.8,0.5,1.5,1,2.2,1.6
					c0.6,0.5,1.1,1.1,1.3,1.6c0,0.1,0,0.1,0,0.2l0,0c-0.3,0.2-0.7,0.4-1.2,0.8c-0.6,0.4-1.2,0.8-1.9,1.2s-1.4,0.9-2.1,1.4
					c-0.7,0.5-1.4,0.9-2,1.4c-0.6,0.4-1.1,0.8-1.5,1.1s-0.6,0.6-0.6,0.7v0.4c0.9,1.5,2.1,2.4,3.5,2.9c1.4,0.5,2.9,0.7,4.6,0.7
					c0.8,0,1.6-0.1,2.2-0.4c0.6-0.2,1.3-0.5,1.8-0.9c0.6-0.4,1.2-0.9,1.7-1.4c0.6-0.5,1.2-1.1,1.9-1.6h0.3c0,0,0.1,0.1,0.2,0.2
					c0.1,0.1,0.2,0.3,0.3,0.4c0.1,0.2,0.2,0.3,0.3,0.5s0.1,0.3,0.1,0.3c0,0.2-0.1,0.4-0.3,0.6c-0.2,0.2-0.4,0.5-0.6,0.6
					c-0.2,0.2-0.4,0.4-0.6,0.5c-0.2,0.1-0.3,0.2-0.4,0.3c-1,0.8-1.9,1.5-2.9,2.1s-2,1.2-3,1.7s-2,0.8-3.1,1.1s-2.2,0.4-3.5,0.4
					c-1.7,0-3.2-0.4-4.5-1.3c-1.3-0.9-2.2-2.1-2.8-3.6h-0.4V56.4z M125.4,45.4c-0.1,0.8-0.2,1.6-0.3,2.4c-0.1,0.8-0.2,1.6,0,2.3
					c0.6-0.2,1.3-0.6,2-1.1s1.3-1,1.8-1.6c-0.4-0.4-0.9-0.9-1.5-1.4C126.7,45.6,126.1,45.4,125.4,45.4z M134,51
					c-0.3,0-0.5-0.1-0.6-0.2c-0.1-0.1-0.1-0.3-0.1-0.6c0-0.2,0.1-0.5,0.2-0.8c0.1-0.3,0.2-0.5,0.2-0.7c1-0.5,2-1,3-1.6
					c1-0.5,1.9-1.1,2.8-1.6c-0.1-0.1-0.3-0.2-0.5-0.4s-0.4-0.4-0.5-0.6c-0.2-0.2-0.3-0.5-0.5-0.7c-0.1-0.2-0.2-0.4-0.2-0.6
					c0,0,0.1-0.2,0.4-0.4c0.2-0.2,0.6-0.5,0.9-0.8c0.4-0.3,0.8-0.6,1.2-1c0.5-0.3,0.9-0.6,1.3-0.9c0.6-0.1,1,0,1.5,0.3
					c0.4,0.3,0.8,0.6,1,1s0.6,0.8,0.8,1.2s0.5,0.7,0.8,0.8c1.5-0.5,2.9-1,4.1-1.4c1.2-0.4,2.1-0.7,2.9-0.8l-0.3,2.1
					c-0.6,0.3-1,0.6-1.4,0.8s-0.8,0.4-1.2,0.6c-0.4,0.2-0.9,0.4-1.4,0.7c-0.5,0.2-1.2,0.6-1.9,1c-0.2,0.1-0.3,0.2-0.3,0.3
					s-0.1,0.3-0.1,0.4c0,0.2,0.1,0.7,0.2,1.3c0.1,0.6,0.3,1.4,0.4,2.2c0.2,0.8,0.4,1.7,0.6,2.7c0.2,0.9,0.5,1.8,0.7,2.6
					s0.4,1.4,0.6,1.9c0.2,0.5,0.3,0.8,0.4,0.8c1.2-1.1,2.4-1.9,3.5-2.6c1.1-0.7,2-1.3,2.8-1.8v2c-0.5,0.5-0.9,0.8-1.1,1.1
					c-0.2,0.2-0.4,0.4-0.6,0.6c-0.2,0.2-0.4,0.4-0.6,0.6c-0.2,0.2-0.6,0.6-1.1,1c-0.4,0.4-0.8,0.8-1.4,1.4c-0.6,0.6-1.2,1.1-1.8,1.7
					c-0.7,0.6-1.3,1-2,1.4s-1.3,0.6-1.9,0.6c-0.1,0-0.2-0.4-0.4-1.2s-0.4-1.8-0.6-3c-0.2-1.2-0.5-2.5-0.7-3.9
					c-0.3-1.4-0.5-2.7-0.8-3.9s-0.5-2.2-0.8-3s-0.5-1.2-0.8-1.1c-0.7,0.3-1.5,0.7-2.6,1.1S135.4,50.5,134,51z M161,65.1
					c0.1-1.3,0.4-2.7,1-4s1.3-2.5,2.2-3.7c0.9-1.1,2-2.2,3.2-3.2s2.5-1.8,3.8-2.5s2.7-1.2,4.1-1.7c1.4-0.4,2.7-0.6,4-0.6
					c0.7,0,1.4,0.1,2.2,0.2c0.8,0.1,1.4,0.5,1.9,1.2c-0.3,0.4-0.7,0.8-1.1,1.1c-0.4,0.4-0.8,0.8-1.2,1.1s-0.8,0.6-1.1,0.9
					c-0.3,0.2-0.5,0.3-0.7,0.3c-0.6,0-1.2-0.2-2-0.5s-1.6-0.5-2.4-0.5c-1.4,0-2.6,0.2-3.9,0.5c-1.2,0.4-2.3,0.9-3.2,1.7
					s-1.7,1.7-2.2,2.8c-0.6,1.1-0.9,2.4-0.9,3.9c-0.1,1.3,0.3,2.4,1,3.4c0.7,0.9,1.6,1.7,2.8,2.3c1.1,0.6,2.3,1.1,3.6,1.4
					s2.5,0.4,3.6,0.4s2.5-0.2,4.2-0.5c1.6-0.3,3.2-0.8,4.8-1.5c1.5-0.7,2.9-1.6,4-2.8c1.1-1.2,1.7-2.6,1.8-4.3
					c0.1-1-0.1-2.1-0.5-3.1s-0.9-2-1.5-3s-1.2-2-1.9-2.9c-0.7-1-1.4-1.9-2-2.9c-0.7-1-1.3-2-1.9-2.8c-0.6-0.8-1.1-1.6-1.6-2.4
					c-0.5-0.8-1-1.6-1.5-2.4s-1-1.7-1.6-2.7c0-0.1,0-0.1-0.1-0.2c-0.1-0.1-0.1-0.1-0.2-0.1c-1.4,0.6-2.8,1.3-4.2,2.1
					s-2.8,1.6-4.2,2.4c-1.4,0.8-2.8,1.4-4.3,1.9s-3,0.8-4.6,0.8c0-0.3,0.2-0.6,0.5-1s0.6-0.8,1-1.1c0.4-0.4,0.7-0.7,1.1-0.9
					c0.4-0.3,0.7-0.4,0.9-0.5c0,0,0.2-0.1,0.5-0.1s0.6,0,0.9-0.1c0.3,0,0.6-0.1,0.9-0.1c0.3,0,0.4,0,0.5-0.1
					c0.9-0.2,1.7-0.5,2.6-0.8c0.9-0.4,1.8-0.7,2.6-1.2c0.9-0.4,1.7-0.9,2.5-1.4s1.6-1,2.2-1.5c0.2-0.1,0.3-0.2,0.5-0.3
					c0.2-0.1,0.2-0.2,0.2-0.3v-1.3c0-0.3,0.2-0.6,0.6-1c0.3-0.4,0.7-0.8,1.2-1.2s1-0.7,1.6-1c0.5-0.3,1-0.4,1.5-0.4l3.3,3.8
					c0,0.5-0.2,0.8-0.4,1s-0.5,0.4-0.8,0.5c-0.3,0.1-0.5,0.3-0.8,0.4c-0.2,0.2-0.4,0.5-0.4,0.9c0,0.5,0.2,1.2,0.8,2
					c0.6,0.9,1.3,1.8,2.1,2.9c0.9,1.1,1.8,2.3,2.8,3.5c1,1.3,1.9,2.6,2.8,3.9c0.9,1.3,1.5,2.6,2.1,4c0.5,1.3,0.8,2.6,0.7,3.9
					c-0.1,2.1-0.8,4.1-2.2,6c-1.4,1.9-3.1,3.5-5.2,4.9c-2.1,1.4-4.5,2.5-7.2,3.3s-5.4,1.2-8.2,1.2c-1.2,0-2.4-0.2-3.7-0.5
					c-1.3-0.4-2.4-0.9-3.5-1.6c-1-0.7-1.9-1.6-2.5-2.6C161.2,67.7,160.9,66.5,161,65.1z M166.8,30.3c0.3-0.3,0.7-0.6,1.1-1
					c0.4-0.4,0.8-0.8,1.2-1.2c0.4-0.4,0.8-0.7,1.1-0.9c0.3-0.3,0.5-0.4,0.6-0.4c0.2,0.1,0.6,0.2,1.2,0.3c0.6,0.2,1.2,0.4,1.8,0.6
					s1.2,0.5,1.6,0.9c0.5,0.3,0.7,0.6,0.7,1c0,0.3-0.1,0.7-0.5,1.1c-0.3,0.4-0.6,0.8-1,1.2s-0.8,0.7-1.2,1s-0.7,0.4-0.9,0.4
					c-0.1,0-0.2-0.1-0.4-0.4c-0.2-0.2-0.4-0.5-0.6-0.7c-0.3-0.2-0.6-0.4-1.1-0.5s-1-0.3-1.5-0.4s-1-0.3-1.4-0.4
					C167.2,30.8,167,30.6,166.8,30.3z M193,56c0-3.7,0.9-7.1,2.6-10.2c1.7-3.1,4-5.7,6.7-7.8c2.8-2.2,5.9-3.8,9.4-5s7-1.8,10.5-1.8
					c1.6,0,3.1,0.2,4.6,0.6s2.8,1,4,2c1.2,0.9,2.1,2.2,2.8,3.7s1.1,3.4,1.1,5.7c0,1.1-0.2,2.3-0.6,3.5c-0.4,1.3-0.9,2.5-1.6,3.8
					c-0.7,1.2-1.5,2.5-2.5,3.6c-0.9,1.2-2,2.2-3.1,3.1c-1.1,0.9-2.3,1.6-3.5,2.1s-2.5,0.8-3.8,0.8c-0.7,0-1.2-0.2-1.6-0.5
					c-0.4-0.3-0.8-0.7-1.1-1.1c-0.3-0.4-0.6-0.9-0.9-1.3c-0.3-0.5-0.7-0.8-1.1-1.1h-0.1h-0.1c-0.3,0-0.6,0.1-0.9,0.4
					c-0.3,0.3-0.7,0.6-1.1,0.9c-0.4,0.3-0.8,0.6-1.1,0.9c-0.4,0.3-0.7,0.4-1,0.5c-0.9,0-1.7-0.1-2.4-0.2c-0.7-0.1-1.3-0.4-1.8-0.7
					c-0.5-0.4-0.9-0.8-1.1-1.4c-0.2-0.6-0.4-1.3-0.4-2.3c0-1.2,0.4-2.5,1.2-4s1.8-2.9,3-4.2s2.5-2.4,3.8-3.3
					c1.4-0.9,2.6-1.4,3.8-1.4l3.1,2.4c0,0.8-0.2,1.6-0.6,2.5c-0.4,0.9-0.5,1.7-0.5,2.5c0,0.9,0.1,1.7,0.4,2.6
					c0.3,0.8,0.7,1.6,1.2,2.2c0.5,0.6,1.1,1.1,1.8,1.5s1.4,0.6,2.1,0.6c1,0,1.9-0.3,2.7-0.9c0.8-0.6,1.4-1.4,1.9-2.2s0.9-1.9,1.1-3
					c0.2-1.1,0.4-2.1,0.4-3c0-2.1-0.3-3.9-0.9-5.4c-0.6-1.5-1.4-2.8-2.5-3.7c-1-1-2.3-1.7-3.8-2.1c-1.5-0.4-3.1-0.7-4.8-0.7
					c-1.3,0-2.7,0.2-4.3,0.6c-1.6,0.4-3.3,0.9-5,1.7c-1.7,0.7-3.4,1.6-5,2.8c-1.6,1.1-3.1,2.4-4.3,3.8c-1.3,1.4-2.3,3-3.1,4.7
					s-1.2,3.6-1.2,5.6c0,1.5,0.3,2.8,0.8,3.9c0.5,1.1,1.2,2.1,2,3s1.8,1.6,2.9,2.1c1.1,0.6,2.2,1.1,3.3,1.4c1.2,0.4,2.3,0.6,3.4,0.8
					c1.1,0.2,2.1,0.2,3.1,0.2c2,0,3.8-0.1,5.4-0.4c1.6-0.3,3.3-0.9,5.1-1.7l0.4,1.6c-0.8,1.4-1.7,2.4-2.8,3.2
					c-1.1,0.7-2.4,1.3-3.7,1.6c-1.3,0.4-2.6,0.6-4,0.7s-2.7,0.1-3.9,0.1c-1.4,0-2.9-0.3-4.6-0.8c-1.7-0.6-3.2-1.4-4.7-2.6
					c-1.4-1.2-2.7-2.6-3.6-4.3C193.5,60.4,193,58.4,193,56z M209.1,50.5c0,1.2,0.3,2.1,1,2.8c0.6,0.7,1.5,1.2,2.5,1.3
					c0.3,0,0.6-0.1,1-0.2s0.5-0.4,0.5-0.6c0-0.9-0.1-1.8-0.2-2.7c-0.2-0.9-0.2-1.8-0.2-2.8c0-0.4,0-0.7,0.1-0.9
					c0-0.2,0.1-0.4,0.2-0.6c0.1-0.2,0.2-0.3,0.4-0.5s0.4-0.4,0.6-0.7c-0.6,0-1.2,0.1-1.9,0.2c-0.7,0.2-1.3,0.4-1.9,0.8
					c-0.6,0.4-1,0.9-1.4,1.5C209.4,48.7,209.2,49.5,209.1,50.5z M252.1,48.8l-2.5,1.5c0,0.1,0,0.1,0,0.2c0,0,0,0-0.1,0
					c0.1,0.1,0.2,0.5,0.4,1.1s0.3,1.3,0.5,2s0.3,1.4,0.5,2.1s0.3,1.1,0.3,1.2c0.1,0.2,0.1,0.4,0.1,0.5s0,0.2,0,0.3l-3.8,4.1h-0.4
					c-0.2-0.4-0.4-1.1-0.7-2s-0.6-1.8-1-2.9c-0.4-1-0.7-2.1-1.1-3.2c-0.4-1.1-0.7-2.1-1-3s-0.6-1.6-0.8-2.2
					c-0.2-0.6-0.4-0.9-0.4-0.9L239,49l3.7,10.7l-3.2,3.1h-0.4c-0.3,0-0.7-0.5-1.1-1.4c-0.4-0.9-0.9-2-1.3-3.2
					c-0.4-1.2-0.8-2.4-1.2-3.6c-0.4-1.2-0.6-2-0.9-2.5c-0.3-0.6-0.5-1-0.7-1.3s-0.3-0.5-0.4-0.8c-0.1-0.2-0.2-0.5-0.4-0.8
					c-0.1-0.3-0.3-0.7-0.4-1.4c0.1-0.1,0.3-0.3,0.6-0.6s0.6-0.5,0.9-0.8c0.4-0.3,0.7-0.5,1-0.8c0.3-0.2,0.5-0.4,0.7-0.5
					c0.1-0.1,0.2-0.2,0.3-0.2c0-0.1,0.1-0.1,0.1-0.1s0.1,0,0.2,0c0.1,0,0.2,0,0.5,0c0.2,0.3,0.3,0.5,0.4,0.6
					c0.1,0.1,0.1,0.2,0.2,0.3c0,0.1,0.1,0.2,0.2,0.3c0.1,0.1,0.3,0.3,0.6,0.5l6-3h1.6c0.1,0,0.3,0.3,0.5,0.8s0.5,1.1,0.8,1.7
					c0.3,0.6,0.6,1.2,0.8,1.8c0.3,0.6,0.5,0.9,0.6,1h0.4c0.3-0.5,0.8-1,1.3-1.4c0.5-0.5,1.1-0.9,1.7-1.2c0.6-0.3,1.2-0.6,1.8-0.8
					s1.2-0.3,1.8-0.3c0.1,0,0.2,0.3,0.5,0.9c0.2,0.6,0.5,1.3,0.8,2.2s0.6,1.9,1,3s0.7,2.2,0.9,3.2c0.3,1,0.5,1.9,0.6,2.8
					c0.2,0.8,0.2,1.4,0.2,1.7v0.2l-4.3,4.1c-0.4,0-0.6,0-0.6-0.2s-0.1-0.4-0.1-0.6c-0.4-2.1-0.8-4.3-1.3-6.5s-0.8-4.5-1.1-6.6
					L252.1,48.8z M83.5,126.5c-0.9-1.4-1.9-2.8-2.9-4.1c-1-1.4-2.1-2.8-3.2-4.2c-1.1-1.4-2.2-2.8-3.2-4.2c-1-1.4-2-2.7-3-4.1
					c-0.3-0.2-1.1-0.4-2.3-0.5c-1.2-0.1-2.6-0.3-4.3-0.4c-1.6-0.1-3.3-0.2-5.1-0.4c-1.8-0.1-3.5-0.3-5-0.5s-2.8-0.4-3.8-0.6
					s-1.5-0.5-1.4-0.9l0.1-0.3l0.1-0.3l1.9-2.4c1,0,2.1,0,3.3,0.2c1.2,0.1,2.5,0.3,3.8,0.5s2.6,0.4,3.9,0.6c1.3,0.2,2.5,0.3,3.7,0.4
					v-0.1c0-0.1,0-0.1,0-0.2s-0.2-0.4-0.7-0.7c-0.5-0.3-1-0.8-1.7-1.2c-0.7-0.5-1.4-1.1-2.2-1.7s-1.6-1.2-2.4-1.9
					c-0.8-0.6-1.4-1.3-2-2s-1-1.3-1.2-1.9c-0.1-0.2-0.2-0.4-0.2-0.8c-0.1-0.4-0.2-0.7-0.3-1.1s-0.2-0.7-0.2-1
					c-0.1-0.3-0.1-0.5-0.1-0.5l2.1-4.2c0.5,0,1,0.2,1.5,0.6s1,0.9,1.5,1.4s1,1.1,1.4,1.7c0.5,0.6,0.8,1.1,1.2,1.5
					c0.5,0.6,1.5,1.1,2.9,1.5c1.4,0.4,3.1,0.7,5.1,0.9c1.9,0.2,4.1,0.4,6.4,0.5s4.6,0.3,6.8,0.4c2.3,0.2,4.4,0.3,6.5,0.5
					s3.8,0.5,5.3,1c0.2,0,0.4,0.2,0.4,0.4l-4.3,3.7c-0.3,0.3-0.6,0.5-0.9,0.5c-0.3,0.1-0.6,0.1-0.9,0.1c-0.2,0-0.4-0.2-0.5-0.4
					c-0.1-0.2,0-0.5,0.3-0.8c-0.8-0.3-1.8-0.5-3.1-0.8c-1.3-0.2-2.8-0.5-4.4-0.7s-3.2-0.4-5-0.5s-3.4-0.3-5-0.4s-3.1-0.2-4.5-0.2
					c-1.3-0.1-2.4-0.1-3.3-0.1c0,0,0.2,0.2,0.6,0.5c0.5,0.4,1,0.8,1.7,1.3s1.4,1.1,2.2,1.7c0.8,0.6,1.5,1.2,2.2,1.7s1.4,1.1,2.3,1.8
					c0.3,0.2,0.9,0.3,1.8,0.4c0.8,0.1,1.8,0.2,2.8,0.2c1,0.1,2.1,0.1,3.2,0.2s2.1,0.2,3,0.3c0.9,0.1,1.7,0.3,2.2,0.4
					c0.6,0.2,0.9,0.4,0.9,0.6c0,0.3-0.1,0.6-0.4,0.9s-0.5,0.6-0.9,0.9c-0.3,0.3-0.7,0.5-1,0.8c-0.3,0.2-0.5,0.4-0.7,0.6
					c-1.2-0.3-2.4-0.4-3.5-0.3s-2.4,0.2-3.8,0.2c1.4,1.8,2.9,3.7,4.5,5.5c1.6,1.9,3,3.8,4.2,5.7c0.2,0.3,0.4,0.6,0.6,1
					c0.3,0.4,0.5,0.8,0.8,1.1c0.3,0.4,0.6,0.9,0.9,1.4l-0.1,0.2l-3.2,3.5c-0.4-0.4-0.7-0.8-1.1-1.3
					C83.7,127.7,83.5,127.1,83.5,126.5z M88.9,116.4l-4.4,2.2l-0.6-0.6l2.6-2.6c0.1-0.1,0.3-0.3,0.6-0.5c0.2-0.2,0.5-0.4,0.8-0.6
					c0.2-0.2,0.5-0.4,0.7-0.6s0.3-0.4,0.4-0.6c0.2-1.5,0.5-2.9,0.9-4.2c0.4-1.3,1-2.6,1.7-4c-0.1-0.1-0.3-0.3-0.5-0.4
					c-0.2-0.2-0.3-0.4-0.2-0.6v-0.2l4.2-3.6h0.8c0.4,0.3,1,0.7,1.7,1.2s1.5,0.9,2.3,1.4s1.5,1,2.2,1.6s1.1,1.1,1.3,1.6
					c0,0.1,0,0.1,0,0.2l0,0c-0.3,0.2-0.7,0.4-1.2,0.8c-0.6,0.4-1.2,0.8-1.9,1.2c-0.7,0.4-1.4,0.9-2.1,1.4s-1.4,0.9-2,1.4
					c-0.6,0.4-1.1,0.8-1.5,1.2c-0.4,0.3-0.6,0.6-0.6,0.7v0.4c0.9,1.5,2.1,2.4,3.5,2.9s2.9,0.7,4.6,0.7c0.8,0,1.6-0.1,2.2-0.4
					c0.6-0.2,1.3-0.5,1.8-1c0.6-0.4,1.2-0.9,1.7-1.4c0.6-0.5,1.2-1.1,1.9-1.6h0.3c0,0,0.1,0.1,0.2,0.2s0.2,0.3,0.3,0.4
					c0.1,0.2,0.2,0.3,0.3,0.5c0.1,0.2,0.1,0.3,0.1,0.3c0,0.2-0.1,0.4-0.3,0.6c-0.2,0.2-0.4,0.4-0.6,0.6s-0.4,0.4-0.6,0.5
					s-0.3,0.2-0.4,0.3c-1,0.8-1.9,1.5-2.9,2.1c-1,0.7-2,1.2-3,1.7s-2,0.8-3.1,1.1c-1.1,0.3-2.2,0.4-3.5,0.4c-1.7,0-3.2-0.4-4.5-1.3
					s-2.2-2.1-2.8-3.6h-0.4V116.4z M93.7,105.4c-0.1,0.8-0.2,1.6-0.3,2.4s-0.2,1.6,0,2.3c0.6-0.2,1.3-0.6,2-1.1s1.3-1,1.8-1.6
					c-0.4-0.4-0.9-0.9-1.5-1.3C95,105.6,94.4,105.4,93.7,105.4z M109.1,118.1c0.4,0,0.8,0.1,1.3,0.2s1,0.2,1.6,0.4
					c0.6,0.1,1.1,0.3,1.6,0.4s1,0.2,1.4,0.2c0.1,0,0.3,0,0.5,0s0.5,0,0.8-0.1c0.3,0,0.5-0.1,0.8-0.1c0.2,0,0.4-0.1,0.5-0.2l0.2-0.8
					c-0.2-0.1-0.7-0.2-1.5-0.5s-1.7-0.6-2.7-1s-2.1-0.8-3.2-1.3s-2.2-1-3.1-1.5s-1.7-1.1-2.4-1.6c-0.6-0.5-0.9-1-0.9-1.4
					c0.8-1,1.6-2,2.6-3s2-2,3.1-2.8s2.3-1.5,3.5-2.1c1.2-0.5,2.5-0.8,3.7-0.8c0.2,0,0.4,0,0.6,0s0.5,0,0.7,0c0.5,0,0.9,0.1,1.3,0.2
					s0.6,0.4,0.7,0.8c-1.3,1.6-2.8,3.1-4.4,4.4c-0.2,0-0.7,0-1.4-0.1c-0.7-0.1-1.3-0.1-1.9-0.1c-0.3,0-0.7,0-1.1,0
					c-0.5,0-0.9,0.1-1.3,0.2s-0.8,0.2-1.1,0.4c-0.3,0.2-0.5,0.4-0.5,0.7c0,0.3,0.3,0.7,1,1c0.7,0.4,1.7,0.7,2.8,1.1
					c1.1,0.4,2.3,0.8,3.6,1.2c1.3,0.4,2.5,0.8,3.7,1.3c1.1,0.5,2.1,0.9,2.8,1.4c0.8,0.5,1.2,1,1.2,1.5c0,0.1-0.1,0.3-0.3,0.7
					c-0.2,0.4-0.4,0.6-0.5,0.8c-1.3,1.4-2.4,2.4-3.5,3.1s-2.1,1.2-3.2,1.6c-1.1,0.3-2.2,0.5-3.4,0.5c-1.2,0-2.7,0-4.4,0
					c-0.4,0-0.8,0-1.2,0c-0.4,0-0.8,0-1.2,0c-0.4,0-0.6-0.1-0.9-0.1c-0.2-0.1-0.3-0.2-0.3-0.2l0.1-0.5c0-0.1,0.2-0.4,0.6-0.8
					s0.9-0.8,1.4-1.2c0.5-0.4,1-0.8,1.5-1.2C108.7,118.3,109,118.1,109.1,118.1z M118.8,111c-0.3,0-0.5-0.1-0.6-0.2
					s-0.1-0.3-0.1-0.6c0-0.2,0.1-0.5,0.2-0.8s0.2-0.5,0.2-0.7c1-0.5,2-1,3-1.6s1.9-1.1,2.8-1.6c-0.1-0.1-0.3-0.2-0.5-0.4
					c-0.2-0.2-0.4-0.4-0.5-0.6c-0.2-0.2-0.3-0.5-0.5-0.7c-0.1-0.2-0.2-0.4-0.2-0.6c0,0,0.1-0.2,0.4-0.4c0.2-0.2,0.6-0.5,0.9-0.8
					c0.4-0.3,0.8-0.6,1.2-1c0.5-0.3,0.9-0.6,1.3-0.9c0.6-0.1,1,0,1.5,0.3c0.4,0.3,0.8,0.6,1,1c0.3,0.4,0.6,0.8,0.8,1.2
					c0.2,0.4,0.5,0.7,0.8,0.8c1.5-0.5,2.9-1,4.1-1.5c1.2-0.4,2.1-0.7,2.9-0.8l-0.3,2c-0.6,0.3-1,0.6-1.4,0.8
					c-0.4,0.2-0.8,0.4-1.2,0.6s-0.9,0.4-1.4,0.7c-0.5,0.2-1.2,0.6-1.9,1c-0.2,0.1-0.3,0.2-0.3,0.3c0,0.1-0.1,0.3-0.1,0.4
					c0,0.2,0.1,0.7,0.2,1.3c0.1,0.6,0.3,1.4,0.4,2.2c0.2,0.8,0.4,1.7,0.6,2.7c0.2,0.9,0.5,1.8,0.7,2.6c0.2,0.8,0.4,1.4,0.6,2
					c0.2,0.5,0.3,0.8,0.4,0.8c1.2-1.1,2.4-1.9,3.5-2.6s2-1.3,2.8-1.8v2c-0.5,0.5-0.9,0.8-1.1,1c-0.2,0.2-0.4,0.4-0.6,0.6
					c-0.2,0.2-0.4,0.4-0.6,0.6c-0.2,0.2-0.6,0.6-1.1,1c-0.4,0.4-0.8,0.8-1.4,1.4c-0.6,0.6-1.2,1.1-1.8,1.7c-0.7,0.6-1.3,1.1-2,1.5
					s-1.3,0.6-1.9,0.6c-0.1,0-0.2-0.4-0.4-1.2c-0.2-0.8-0.4-1.8-0.6-3c-0.2-1.2-0.5-2.5-0.7-3.9c-0.3-1.4-0.5-2.7-0.8-3.9
					c-0.3-1.2-0.5-2.2-0.8-3s-0.5-1.2-0.8-1.1c-0.7,0.3-1.5,0.7-2.6,1.1C121.5,110.1,120.2,110.5,118.8,111z M139.6,109.5
					c-0.2,0-0.4-0.2-0.5-0.7c-0.1-0.4-0.2-0.9-0.2-1.5s0-1.1,0-1.7c0-0.5,0-0.9,0-1.1l3.8-3.5h0.8c0.1,0,0.2,0.2,0.2,0.6
					c0.1,0.4,0.1,0.9,0.1,1.5s0,1.1,0,1.6s0,0.9,0,1L139.6,109.5z M146.2,133.1c-0.6,0-1.1-0.5-1.7-1.4c-0.6-0.9-1.1-2.1-1.5-3.5
					c-0.5-1.4-0.9-2.9-1.3-4.6c-0.4-1.7-0.7-3.2-1-4.8c-0.3-1.5-0.5-2.8-0.6-4s-0.2-1.9-0.2-2.2v-0.1l4-3h0.8
					c0.1,1.3,0.3,2.5,0.4,3.6c0.1,1.1,0.3,2.2,0.5,3.3c0.2,1.1,0.4,2.1,0.6,3.2c0.3,1.1,0.6,2.2,1,3.5c0.1,0.4,0.4,0.8,0.7,1.4
					s0.6,1.2,1,1.8c0.3,0.6,0.6,1.2,0.9,1.9c0.2,0.6,0.4,1.1,0.4,1.4L146.2,133.1z M144.9,109.2c0.1-0.1,0.3-0.2,0.5-0.4
					s0.4-0.4,0.7-0.7c0.2-0.2,0.5-0.5,0.7-0.6c0.2-0.2,0.3-0.4,0.4-0.5c0.4-0.4,0.6-0.6,0.7-0.7c0.1-0.1,0.3-0.2,0.6-0.2
					c0.4,0,0.9,0.2,1.5,0.7c0.5,0.4,1.1,1,1.7,1.6c0.6,0.6,1.2,1.4,1.8,2.1c0.6,0.8,1.2,1.5,1.8,2.2s1.2,1.3,1.7,1.8s1,0.9,1.5,1
					c0-0.1,0-0.2,0-0.3c0-0.1,0-0.2,0-0.3c0.1-0.5,0.2-1.2,0.2-2s0.1-1.6,0.1-2.5c0-0.8,0.1-1.7,0.1-2.5s0.1-1.5,0.2-2
					c0,0,0.1-0.1,0.1-0.2c0.1-0.1,0.1-0.2,0.1-0.2l3.6-2.8c0.2,0,0.4,0.4,0.4,1.1s0,1.5,0,2.6c-0.1,1-0.2,2.2-0.3,3.5
					c-0.1,1.2-0.3,2.5-0.4,3.6c-0.1,1.2-0.2,2.2-0.3,3.1s0,1.6,0.1,2c-0.2,0.1-0.4,0.3-0.7,0.6c-0.3,0.3-0.7,0.6-1.1,0.9
					c-0.4,0.3-0.8,0.6-1.2,0.9s-0.8,0.5-1.1,0.6c-2-2.3-4-4.5-6.2-6.7c-2.1-2.1-4.4-4.1-6.8-5.8c-0.1,0-0.1,0-0.2-0.1
					C144.9,109.3,144.9,109.3,144.9,109.2z M166.2,123.3c0-0.7,0.2-1.4,0.6-2.2c0.4-0.8,0.8-1.6,1.3-2.3c0.5-0.8,1.1-1.5,1.6-2.3
					c0.6-0.7,1.1-1.4,1.6-2s1-1.1,1.3-1.6c0.4-0.4,0.6-0.8,0.6-1c0.1-0.4,0.1-1,0-2c-0.1-0.9-0.4-1.8-0.7-2.7
					c-0.4-0.9-0.9-1.7-1.5-2.4c-0.6-0.7-1.4-1-2.3-1c-1.5,0-2.6,0.4-3.3,1.2c-0.7,0.8-1.1,1.9-1.2,3.3c0,0.4,0,0.9,0.2,1.3
					c0.2,0.5,0.4,0.9,0.6,1.4c0.2,0.5,0.4,0.9,0.6,1.3c0.2,0.4,0.3,0.8,0.2,1.2c0,0.2-0.1,0.5-0.4,0.8c-0.2,0.3-0.5,0.7-0.8,1.1
					s-0.7,0.7-1,1s-0.6,0.6-0.9,0.8c-0.2-0.5-0.3-0.9-0.5-1.2c-0.1-0.4-0.3-0.7-0.4-1.1c-0.1-0.4-0.2-0.8-0.3-1.2
					c-0.1-0.4-0.1-0.9-0.1-1.5c0-1.5,0.3-3.1,0.9-4.6c0.6-1.5,1.4-2.9,2.4-4.1s2.2-2.2,3.5-3s2.7-1.2,4.2-1.2c1,0,1.7,0.4,2.2,1.3
					s1,1.9,1.3,3.1s0.6,2.3,0.8,3.5c0.2,1.1,0.5,2,0.8,2.5c0.2-0.2,0.5-0.5,0.8-0.8s0.7-0.5,1-0.5l0.1,0.9c0,0.3-0.1,0.6-0.3,0.8
					c-0.2,0.2-0.4,0.4-0.6,0.6s-0.4,0.4-0.5,0.6c-0.2,0.2-0.2,0.4-0.2,0.8c0,0.2,0,0.5,0.1,1s0.1,1,0.2,1.5s0.2,1,0.4,1.4
					c0.1,0.4,0.3,0.6,0.4,0.6c0,0,0.1,0,0.2,0c0.1,0,0.3-0.1,0.4-0.1c0.2,0,0.3-0.1,0.4-0.1c0.1,0,0.2,0,0.2,0h0.2
					c0.1,0,0.2,0,0.3,0c0,0,0.1,0.1,0.1,0.3c-0.6,1-1.1,1.8-1.7,2.6c-0.6,0.8-1.3,1.5-2.2,2.2c-0.3,0-0.5,0-0.8-0.1
					c-0.2-0.1-0.5-0.2-0.9-0.2c-0.4,0.2-1,0.5-1.7,0.9s-1.5,0.8-2.2,1.2c-0.8,0.4-1.6,0.7-2.3,1c-0.8,0.3-1.4,0.4-1.9,0.4
					c-0.3,0-0.6-0.2-0.7-0.6C166.3,123.8,166.2,123.5,166.2,123.3z M173.9,115.1c-0.2,0-0.5,0.2-1,0.7s-1,1-1.5,1.6s-1.1,1.3-1.5,2
					c-0.5,0.7-0.8,1.3-0.9,1.8c0.2,0,0.5-0.1,1.1-0.3s1.2-0.5,1.9-0.8s1.2-0.6,1.7-0.9s0.8-0.5,0.8-0.7L174,115h-0.1V115.1z
					 M177.8,88.4c0.5,1,1,2.3,1.5,4c0.5,1.6,1,3.4,1.5,5.4s1,4,1.5,6c0.5,2.1,0.9,4,1.3,5.9s0.8,3.6,1.1,5.1s0.6,2.6,0.7,3.4
					c0.1-0.1,0.5-0.3,1-0.6c0.5-0.3,1.1-0.6,1.7-0.9c0.6-0.3,1.2-0.6,1.7-0.9s0.9-0.5,1.1-0.6c0.5-0.4,1-0.6,1.5-0.6s1,0.1,1.5,0.2
					v1.3c-1,0.4-1.9,0.8-2.7,1.2c-0.9,0.5-1.7,1-2.5,1.6s-1.7,1.3-2.6,2c-0.9,0.8-1.8,1.6-2.8,2.6l-1.1-0.3c-0.7-2.7-1.4-5.4-2-8.1
					s-1.2-5.4-1.9-8c-0.7-2.7-1.4-5.3-2.2-8s-1.8-5.3-3-8L177.8,88.4z M203.8,93.5c0.6,0,1.1,0.5,1.7,1.4c0.5,0.9,1.1,2.1,1.5,3.5
					c0.5,1.4,0.9,2.9,1.3,4.6c0.4,1.7,0.7,3.2,1,4.8c0.3,1.5,0.5,2.8,0.6,4c0.2,1.1,0.2,1.9,0.2,2.2v0.2l-3.9,3h-0.8
					c-0.1-1.3-0.3-2.5-0.4-3.7c-0.1-1.1-0.3-2.2-0.4-3.3c-0.2-1.1-0.4-2.1-0.6-3.2c-0.3-1.1-0.6-2.2-1-3.5c-0.1-0.3-0.4-0.8-0.7-1.4
					s-0.6-1.2-0.9-1.9c-0.3-0.6-0.6-1.2-0.9-1.8s-0.4-1.1-0.4-1.4L203.8,93.5z M210.4,117.1c0.2,0,0.4,0.2,0.5,0.7s0.2,0.9,0.2,1.5
					s0,1.1,0,1.6s0,0.9,0,1.1l-3.9,3.5h-0.8c-0.1,0-0.2-0.2-0.2-0.7c0-0.4-0.1-0.9-0.1-1.5s0-1.1,0-1.6s0-0.9,0-1L210.4,117.1z
					 M214.5,93.5c0.6,0,1.1,0.5,1.7,1.4c0.5,0.9,1.1,2.1,1.5,3.5c0.5,1.4,0.9,2.9,1.3,4.6c0.4,1.7,0.7,3.2,1,4.8
					c0.3,1.5,0.5,2.8,0.6,4c0.2,1.1,0.2,1.9,0.2,2.2v0.2l-3.9,3h-0.8c-0.1-1.3-0.3-2.5-0.4-3.7c-0.1-1.1-0.3-2.2-0.4-3.3
					c-0.2-1.1-0.4-2.1-0.6-3.2c-0.3-1.1-0.6-2.2-1-3.5c-0.1-0.3-0.4-0.8-0.7-1.4s-0.6-1.2-0.9-1.9c-0.3-0.6-0.6-1.2-0.9-1.8
					s-0.4-1.1-0.4-1.4L214.5,93.5z M221.1,117.1c0.2,0,0.4,0.2,0.5,0.7s0.2,0.9,0.2,1.5s0,1.1,0,1.6s0,0.9,0,1.1l-3.9,3.5h-0.8
					c-0.1,0-0.2-0.2-0.2-0.7c0-0.4-0.1-0.9-0.1-1.5s0-1.1,0-1.6s0-0.9,0-1L221.1,117.1z M225.2,93.5c0.6,0,1.1,0.5,1.7,1.4
					c0.5,0.9,1.1,2.1,1.5,3.5c0.5,1.4,0.9,2.9,1.3,4.6c0.4,1.7,0.7,3.2,1,4.8c0.3,1.5,0.5,2.8,0.6,4c0.2,1.1,0.2,1.9,0.2,2.2v0.2
					l-3.9,3h-0.8c-0.1-1.3-0.3-2.5-0.4-3.7c-0.1-1.1-0.3-2.2-0.4-3.3c-0.2-1.1-0.4-2.1-0.6-3.2c-0.3-1.1-0.6-2.2-1-3.5
					c-0.1-0.3-0.4-0.8-0.7-1.4s-0.6-1.2-0.9-1.9c-0.3-0.6-0.6-1.2-0.9-1.8s-0.4-1.1-0.4-1.4L225.2,93.5z M231.8,117.1
					c0.2,0,0.4,0.2,0.5,0.7s0.2,0.9,0.2,1.5s0,1.1,0,1.6s0,0.9,0,1.1l-3.9,3.5h-0.8c-0.1,0-0.2-0.2-0.2-0.7c0-0.4-0.1-0.9-0.1-1.5
					s0-1.1,0-1.6s0-0.9,0-1L231.8,117.1z"/>
			</defs>
			<use xlink:href="#SVGID_00000073712200228415900070000013857309409074112676_"  style="overflow:visible;"/>
			<clipPath id="SVGID_00000158709632634457161350000015371224527355743386_">
				<use xlink:href="#SVGID_00000073712200228415900070000013857309409074112676_"  style="overflow:visible;"/>
			</clipPath>
			
				<rect x="28.3" y="26" style="clip-path:url(#SVGID_00000158709632634457161350000015371224527355743386_);" width="232.5" height="107.3"/>
		</g>
	</g>
</g>
<g>
	<g>
		<path class="st2" d="M180.6,51.8c0,1.9-41.1,1.5-42.7,3.1c-1.9,1.9,16.3,3.7,13.8,5.3c-1.3,0.8-22.9,1.7-27.3,2.4
			c-1.9,0.3,15,0.6,12.3,0.9c-7.9,0.9-24.1,1.7-28.1,2.5c-1.9,0.3-1,3.7-3.6,5.7c-2.3,1.8-6.2,0.1-10.5-1.6
			c-0.4-0.2-0.2,3.6-0.6,3.4c-0.5-0.2-1.5-4.2-2-4.3c-1.1-0.4-2.2,0.7-3.3,0.5c-0.9-0.2-3.2-2.5-2.9-1.5c1.7,5.2,1,9.4,0.4,9.9
			c-1,0.9-1.2-4.5-3.2-9.5c-1-2.5-2,3.7-4.5,5.1c-1,0.6-3-3.2-3.6-3.2c-1.8,0-0.8,13.3,0.1,16.8c0.7,2.7-1.3,4.1-2.5,4.1
			s-3.3-1.5-2.7-4.2c1.4-6.3,2.3-18.1,0.1-19.1c-1.4-0.6-3.9,10-5.5,10c-1.6,0-1.8-8-3.3-8.1c-1-0.1-3.3,6.5-4.3,6.4
			c-1.8-0.2-2.3-6.9-4.1-7.1c-1-0.1-3-1.6-3.1-0.4c-0.6,12-2.4-1.1-3.2-0.4c-4.7,3.7-3,29.2-2,34.2c0.5,2.8-1.1,5-4,5
			s-4.4-2.9-3.7-7.5c1.1-7.1,3.1-28.3-1.6-33.9c-0.9-1-1.8,5.5-3.1,5.2c-1.1-0.3-3-6.7-4.1-7.1c-2-0.6-2.8,11.2-4.6,10.5
			c-1.1-0.4-2.7-10.9-3.7-11.3c-0.8-0.3-2.8,1.7-3.6,1.3c-1.1-0.5-4.4,5.5-5.4,4.9c-0.7-0.4,1.6-12,1-12.4
			c-0.5-0.1-9.4,6.8-10.1,6.2c-1.1-0.8,6.1-9.1,5.3-10c-1.2-1.3-4.9-0.4-5.4-1.8c-0.4-1,6.9-3.1,2.2-5.4C2.7,46,3.7,44.5,4,43.6
			c0.3-0.8-3-4.5-2.5-5.2c0.5-0.9,5.9,1.7,6.7,0.8c0.6-0.6,1.3-0.8,1-2.3C9,35.8,8.1,33.2,9,32.6s5.8,0.7,6.9,0.1
			c1.1-0.6-6.3-9.6-5.1-10.2c0.8-0.4,8.4,9.3,9.2,8.9s3.5-0.7,4.5-1c0.7-0.3-1.1-5.5-0.3-5.7c0.8-0.3,4.5,4.9,5.3,4.7
			c1.1-0.3-11.9-17.5,1.1-7.1c1.4,1.1,2.3,4.8,3.6,2.4c0.5-1,2.3,1.4,3.3,1.2c1.2-0.2,2.1-4.8,3.3-5c0.9-0.2,2.3,5.7,3.3,5.5
			c0.7-0.1-0.3-5.3,0.4-5.4c0.8-0.1,3,3,3.7,2.9c1-0.1,1.7-10.8,2.8-10.9c1.4-0.1,2.8,10.3,4,10.2c0.6-0.1,1.2-0.1,1.9-0.2
			c1.7-0.1,4.1-5.2,5.8-5.3c1.1-0.1,0.8,5.6,1.9,5.6c1.9-0.1,4.8-5.3,6.8-5.4c1.3,0,3.4,2.5,4.8,2.5c1.2,0,1.3,1.9,2.6,2
			c1.2,0.1,0.6-8.1,1.9-8c0.4,0.1-0.8,9.7,0.9,10.2c2.1,0.6,7.3-7.8,7.8-7.7c1,0.2-2.9,8-1.9,8.2c1.2,0.2,3.4-1,4.6-0.7
			c0.8,0.2,3.1-6.6,5-11.5c1.1-2.7,1.3-9.5,3.9-8.6c2.8,0.9-1.3,5.6-1.7,7.6c-0.8,4.8-2.7,12.6-1.9,12.8c0.6,0.1,1.5-0.9,2.1-0.8
			c0.9,0.2,4.9-9.8,5.8-9.5c0.8,0.2,4.8-2.7,5.6-2.5c0.4,0.1-3.8,16.5-1.2,14.2s5.7-7.3,6.1-7.2c1.1,0.3-4.7,7.9-3.6,8.3
			c0.9,0.3,7.3-4,8.2-3.8c1.3,0.4-6.1,9.9-4.8,10.3c0.9,0.3,11.3-1.8,12.2-1.4c1.8,0.6-3.8,1.6-2.2,2.2c2.6,1,5.1,2,7.3,3
			s-3.9,1.8-1.8,2.6c6.3,2.6,20.9,0.7,23.9,3.1c2.4,1.9-25.9,1.4-23.6,3.1C135.8,49.9,180.6,48.5,180.6,51.8L180.6,51.8z"/>
		<path class="st2" d="M221.5,36.5c0,0.5-10.6,0.9-11,1.3c-0.2,0.3,10.6,0.6,10.4,0.9c-0.4,0.5-14.4,1-15.4,1.4
			c-0.3,0.1,3.6,0.2,3.3,0.3c-0.4,0.2-6.9,0.4-7.3,0.6c-0.7,0.3,2.4,0.5,2.1,0.7c-0.4,0.3-9.1,1.3-13.2,1.3c-14.9,0-23-3.9-23-6.5
			c0-2.4,6-6.5,20.9-6.5c1.2,0,9.3,0.1,13.6,0.6c0.9,0.1-7.8,0.4-6.6,0.6c1.3,0.2,19.2,0.5,20.1,0.8c0.8,0.3-6.5,0.6-5.6,0.9
			c1.1,0.4,11.3,0.8,12.1,1.2c0.6,0.4-19.1,0.7-18.8,1.1C203.4,35.6,221.5,36.1,221.5,36.5L221.5,36.5z"/>
		<path class="st2" d="M283,57.3c0-0.3-6.2-0.5-6.4-0.8c-0.1-0.2,6.2-0.3,6-0.5c-0.3-0.3-8.4-0.5-8.9-0.8c-0.2-0.1,2.1-0.1,1.9-0.2
			c-0.2-0.1-4-0.2-4.3-0.3c-0.4-0.2,1.4-0.3,1.2-0.4c-0.2-0.2-5.3-0.7-7.7-0.7c-8.7,0-13.4,2.3-13.4,3.8c0,1.4,3.5,3.8,12.2,3.8
			c0.7,0,5.4,0,7.9-0.3c0.5-0.1-4.6-0.2-3.9-0.3c0.8-0.1,11.2-0.3,11.7-0.5c0.4-0.2-3.8-0.3-3.3-0.5c0.6-0.2,6.6-0.5,7-0.7
			c0.3-0.2-11.1-0.4-10.9-0.6C272.5,57.8,283,57.6,283,57.3L283,57.3z"/>
		<path class="st2" d="M241.7,78.4c0,0.4-12.9,0.8-13.4,1.1c-0.4,0.3,3,0.6,2.6,0.9c-0.5,0.4-9.3,0.8-10.1,1.2
			c-0.8,0.4,13.9,0.7,13.5,1c-0.4,0.2-14,0.5-15.5,0.7s5.4,0.4,4.2,0.6c-2.9,0.4-8.4,1.3-12.3,1.3c-14,0-25.3-2.7-25.3-6.1
			s11.3-6.2,25.3-6.1c9.2,0.1,13.1,0,16.8,0.7c0.4,0.1-8.9,0.5-10.1,0.8c-1.1,0.3,13.6,0.6,13.7,0.9c0.1,0.5-5.2,1-4.7,1.4
			C227,77.3,241.7,77.8,241.7,78.4L241.7,78.4z"/>
		<path class="st2" d="M272.3,75.8c0,0.1-4.3,0.2-4.5,0.3c-0.1,0.1,1,0.2,0.9,0.2c-0.2,0.1-3.1,0.2-3.4,0.3s4.6,0.2,4.5,0.2
			c-0.1,0.1-4.7,0.1-5.2,0.2s1.8,0.1,1.4,0.1c-1,0.1-3.8,0.3-5.1,0.3c-0.9,0-4.8-0.7-4.8-1.5s3.6-1.5,4.8-1.5c3.1,0,5.4,0,6.6,0.2
			c0.1,0-3,0.1-3.4,0.2s4.6,0.1,4.6,0.2s-1.7,0.2-1.6,0.4C267.4,75.5,272.3,75.7,272.3,75.8L272.3,75.8z"/>
		<path class="st2" d="M166.1,74.6c0,0.1-6.4,0.3-6.5,0.5c-0.1,0.1,6,0.2,5.7,0.3c-0.2,0.1-7.4,0.3-7.6,0.4c-0.1,0,6.5,0.1,6.4,0.1
			s-6.8,0.1-6.9,0.1c-0.1,0.1,3.9,0.3,3.8,0.3c-0.1,0-9.8,0.3-9.8-1.8c0-1.1,4.1-2.3,9.2-2c0.6,0-0.9,0.1-0.5,0.2
			c0.2,0,0.3,0.1,0.6,0.1c3.3,0.3,4.4,0.2,4.6,0.4c0,0.1-6.3,0.1-6.7,0.2c-0.8,0.1,10.6,0.2,11,0.4s-3.3,0-2.9,0.4
			c0.2,0.2-7.6,0.3-7,0.4C159.9,74.6,166.1,74.6,166.1,74.6L166.1,74.6z"/>
		<path class="st2" d="M266.4,35.8c0,0.1-6.4,0.3-6.5,0.5c-0.1,0.1,6,0.2,5.7,0.3c-0.2,0.1-7.4,0.3-7.6,0.4c-0.1,0,6.5,0,6.4,0.1
			c-0.1,0-6.8,0.1-6.9,0.1c-0.1,0.1,3.9,0.3,3.8,0.3s-9.8,0.3-9.8-1.8c0-1.1,4.1-2.4,9.2-2c0.6,0-0.9,0.1-0.5,0.2
			c0.2,0,0.3,0,0.5,0.1c3.3,0.3,4.4,0.2,4.6,0.4c0,0.1-6.3,0.1-6.7,0.2c-0.8,0.1,10.6,0.2,11,0.4c0.4,0.2-3.3,0-2.9,0.4
			c0.2,0.2-7.6,0.3-7,0.4C260.2,35.8,266.4,35.8,266.4,35.8L266.4,35.8z"/>
		<path class="st2" d="M136,17.2c0,0.2-5.9,0.3-6,0.5c-0.2,0.4,5.5,0.7,5.4,0.9c0,0.1-7.6,0.2-7.9,0.3c-0.6,0.2,3.9,0.4,3.4,0.5
			c-0.6,0.1-3.9,0.1-6.9,0.2c-3,0.1-5.4-1.1-5.4-2.5s2.4-2.8,5.4-2.5c3.3,0.4,6.1,0.3,6.9,0.5c0.3,0.1-3.9,0-3.4,0.1
			c0.5,0.1,6.2,0.2,6.2,0.3s-2.2,0.1-2.6,0.2c-0.5,0.1,5.7,0.2,5.6,0.3c-0.2,0.2-6.3,0.4-6.2,0.6C130.6,16.9,136,17,136,17.2
			L136,17.2z"/>
		<path class="st2" d="M118.7,86.8c0,0.2,14,0.3,14.4,0.4c0.5,0.2-12.6,0.3-12.6,0.5c-0.1,0.2,5.6,0.4,5.3,0.6
			c-0.4,0.2-12.7,0.4-14,0.6c-1.2,0.2,9.1,0.3,8.8,0.4c-0.6,0.2-1.7,0.1-5.7,0.3c-6.4,0.3-9.5-1.6-9.5-2.8s3.1-3.1,9.5-2.8
			c7.9,0.5,6.3,0.4,6.6,0.5c0.5,0.2-5.1,0.1-4.8,0.2c0.4,0.1,5.3,0.2,6,0.3c0.4,0.1-1.7,0.1-0.9,0.2c1.2,0.1,5,0.2,5.2,0.3
			s-2.4,0.4-3.3,0.6s2.5,0,1.3,0.2C123.1,86.4,118.6,86.5,118.7,86.8L118.7,86.8z"/>
		<path class="st2" d="M302.8,50.4c0,0.1,14,0.2,14.4,0.3c0.5,0.1-12.5,0.2-12.6,0.3s5.6,0.3,5.3,0.4c-0.4,0.1-12.7,0.3-14,0.4
			c-1.2,0.1,9.1,0.2,8.8,0.2c-0.6,0.1-1.7,0-5.7,0.2c-6.4,0.2-9.5-1-9.5-1.8s3.1-2.1,9.5-1.8c7.9,0.3,6.3,0.2,6.6,0.3
			c0.5,0.1-5,0.1-4.8,0.1c0.4,0.1,5.4,0.1,6,0.2c0.4,0-1.7,0.1-0.9,0.1c1.2,0.1,5,0.1,5.2,0.2s-2.4,0.3-3.3,0.4s2.5,0,1.3,0.1
			C307.2,50.1,302.8,50.3,302.8,50.4L302.8,50.4z"/>
		<path class="st2" d="M232.9,57.3c0-0.1,12.3-0.3,12.7-0.4c0.4-0.2-11-0.3-11.1-0.4c-0.1-0.2,4.9-0.4,4.6-0.5
			c-0.3-0.2-11.2-0.3-12.3-0.5c-1-0.1,8-0.2,7.7-0.3c-0.5-0.2-1.5-0.1-5-0.2c-5.6-0.3-8.3,1.4-8.3,2.4s2.7,2.8,8.3,2.4
			c6.9-0.4,5.5-0.3,5.8-0.4c0.4-0.1-4.4-0.1-4.2-0.2c0.3-0.1,4.7-0.2,5.3-0.3c0.4-0.1-1.5-0.1-0.8-0.2c1-0.1,4.4-0.2,4.5-0.3
			s-2.1-0.4-2.9-0.5s2.2,0,1.1-0.1C236.8,57.7,233,57.5,232.9,57.3L232.9,57.3z"/>
	</g>
	<g>
		<g>
			<defs>
				<path id="SVGID_00000127029533112555881940000017578384165233529731_" d="M48.2,132.8c0.9-0.5,9.8,0.6,13.1,0.6h135
					c18.4,0,32.9-1.8,35-1.1s2,3.4,0,3.9s-18.3-1.1-28.1-1.1H61.1c-3.3,0-12.2,1.1-13,0.5S47.2,133.3,48.2,132.8z"/>
			</defs>
			<clipPath id="SVGID_00000163758847983131181090000013928183879363988159_">
				<use xlink:href="#SVGID_00000127029533112555881940000017578384165233529731_"  style="overflow:visible;"/>
			</clipPath>
			<g style="clip-path:url(#SVGID_00000163758847983131181090000013928183879363988159_);">
				
					<linearGradient id="SVGID_00000065781939678631258510000016636966600984536491_" gradientUnits="userSpaceOnUse" x1="89.9775" y1="507.2104" x2="187.0265" y2="622.8654" gradientTransform="matrix(1 0 0 1 0 -448)">
					<stop  offset="0" style="stop-color:#A2C2D1"/>
					<stop  offset="0.13" style="stop-color:#71A0AB"/>
					<stop  offset="1" style="stop-color:#D600F5"/>
				</linearGradient>
				
					<rect x="44.3" y="97.5" style="fill:url(#SVGID_00000065781939678631258510000016636966600984536491_);" width="188.4" height="39"/>
			</g>
		</g>
	</g>
	<g>
		<g>
			<defs>
				<path id="SVGID_00000065040797373995926620000013293048452501154187_" d="M35.4,68.5c-0.9,0-1.9-0.1-3-0.2
					c-1.1-0.1-2.2-0.4-3.2-0.8c-1-0.4-1.9-1-2.6-1.7c-0.7-0.7-1.1-1.7-1.1-3c0-1.4,0.4-2.6,1.2-3.8c0.8-1.2,1.8-2.2,3-3.2
					s2.7-1.8,4.2-2.5c1.6-0.7,3.2-1.3,4.9-1.8c1.6-0.5,3.2-0.8,4.8-1.1s2.9-0.4,4.1-0.4c1.2,0,2.1,0,2.7,0.1c0.6,0.1,1,0.3,1.1,0.6
					l-2.8,3.5c-0.6-0.2-1.5-0.3-2.9-0.5s-2.9-0.3-4.8-0.3c-1.1,0-2.2,0.2-3.4,0.5c-1.2,0.2-2.3,0.7-3.2,1.3c-1,0.6-1.8,1.4-2.4,2.4
					c-0.6,0.9-0.9,2.1-0.9,3.3c0,0.7,0.1,1.4,0.3,2s0.6,1.1,1.1,1.5s1.2,0.7,2.1,0.9c0.9,0.2,2,0.3,3.4,0.3c1.2,0,2.6-0.2,4.1-0.5
					c1.5-0.3,3.1-0.8,4.7-1.4c1.6-0.7,3.2-1.5,4.7-2.5s2.9-2.1,4.1-3.5c1.2-1.3,2.2-2.8,2.9-4.5s1.1-3.5,1.1-5.6
					c0-2.6-0.5-4.5-1.4-5.6c-1-1.1-2.2-1.7-3.6-1.7c-1.5,0-3,0.2-4.4,0.6c-1.4,0.4-2.7,1-4,1.6c-1.3,0.7-2.5,1.4-3.8,2.2
					c-1.2,0.8-2.5,1.5-3.8,2.1c-1.3,0.7-2.6,1.2-4,1.6c-1.4,0.4-2.8,0.6-4.4,0.6c-0.6,0-1.2-0.1-1.8-0.3c-0.6-0.2-1.2-0.5-1.7-0.9
					s-0.9-0.9-1.2-1.6c-0.3-0.6-0.5-1.5-0.5-2.4c0-1.1,0.3-2.1,0.9-3.1s1.3-2,2.1-2.9c0.9-0.9,1.8-1.7,2.8-2.5
					c1-0.7,1.9-1.4,2.8-1.9s1.6-0.9,2.2-1.2c0.6-0.3,0.9-0.4,0.9-0.4s-0.2-0.1-0.5-0.3c-0.3-0.2-0.7-0.4-1.1-0.6
					c-0.4-0.2-0.8-0.4-1.2-0.6s-0.7-0.4-0.9-0.5c-0.3-0.2-0.8-0.5-1.5-0.8s-1.3-0.7-2-1.1s-1.3-0.8-1.8-1.2
					c-0.5-0.4-0.8-0.9-0.9-1.4l4.4-1.9c0.6,0.4,1.4,1,2.4,1.7s2,1.4,3.1,2.1s2.2,1.3,3.4,1.8s2.3,0.8,3.3,0.8h9.1
					c0.2,0,0.5,0.1,0.9,0.2s0.7,0.3,0.9,0.5c-0.3,0.7-0.8,1.4-1.5,1.9c-0.7,0.5-1.4,0.8-2.1,0.8H39.9c-0.9,0-2,0.2-3.2,0.7
					s-2.3,1.1-3.4,1.9c-1,0.8-1.9,1.7-2.6,2.8s-1.1,2.3-1.1,3.5c0,0.8,0.1,1.4,0.4,1.9c0.2,0.5,0.6,0.8,1,1.1s0.8,0.5,1.3,0.5
					c0.5,0.1,0.9,0.2,1.4,0.2c1.1,0,2.1-0.2,3.1-0.7s1.9-1,2.8-1.4c1.4-0.7,2.8-1.5,4.2-2.3s2.9-1.6,4.4-2.3s3-1.3,4.6-1.8
					s3.2-0.7,4.9-0.7c0.6,0,1.4,0.1,2.1,0.2c0.8,0.2,1.5,0.5,2.2,1s1.3,1.3,1.7,2.3c0.5,1,0.7,2.3,0.7,4c0,2-0.4,4-1.3,6
					c-0.9,2-2,3.9-3.5,5.6c-1.5,1.8-3.2,3.4-5.1,5c-2,1.5-4,2.8-6.2,3.9c-2.2,1.1-4.4,2-6.6,2.6C39.7,68.1,37.5,68.5,35.4,68.5z
					 M80.7,40c-0.6,0.1-1.4,0.1-2.5,0.1s-2.3,0-3.6,0.1c0.2,2.7,0.3,5.5,0.5,8.4c0.2,2.9,0.3,5.8,0.4,8.5c0.1,2.8,0.1,5.3,0.2,7.7
					c0,2.4,0,4.4-0.2,6L73,70.7c-0.1-0.4-0.1-0.8-0.1-1.2c0-0.5,0.1-0.9,0.1-1.3c0.1-0.4,0.1-0.8,0.2-1.2s0.1-0.7,0.2-0.9
					c0.2-3.9,0.2-8,0.1-12.4c-0.2-4.4-0.5-8.9-1-13.6c-1.6,0-3,0.1-4.3,0.1c-1.3,0.1-2.1,0.1-2.4,0.2l-1.4-0.1c0-0.1,0-0.1-0.1-0.2
					c0-0.1,0-0.1,0-0.1c0.1-0.3,0.3-0.8,0.5-1.2s0.5-1,0.8-1.4s0.6-0.8,0.9-1.1s0.6-0.5,0.8-0.5c0.4-0.1,0.9-0.1,1.7-0.1
					c0.8,0,1.7,0.1,2.8,0.1c-0.3-2.6-0.7-5.4-1.2-8.1l1.1-4.2l1.6,0.8c0.1,1,0.1,2.1,0.2,3.3c0.1,1.1,0.2,2.3,0.3,3.7
					c0.1,1.4,0.2,3,0.4,4.7c1,0,2.1,0,3.3,0c1.2,0,2.4-0.1,3.8-0.1c0.4,0,0.8-0.1,1.1-0.1c0.3,0,0.5,0,0.7,0h0.3l0.1,0.7L80.7,40z
					 M90.3,62.3c-0.3-0.6-0.6-1.4-1-2.5s-0.9-2.4-1.3-3.6c-0.5-1.2-0.9-2.3-1.4-3.4c-0.5-1-0.9-1.8-1.2-2.1
					c-0.9,0.3-1.7,0.4-2.2,0.4c-0.5-0.1-0.9-0.2-1-0.5s0-0.7,0.4-1.2s1.1-1.1,2.1-1.8l-0.6-1.2l4-3.2c0.4,0,0.6,0.1,0.9,0.3
					c0.2,0.2,0.4,0.4,0.5,0.7s0.3,0.5,0.5,0.7s0.5,0.3,0.8,0.3c0.2,0,0.5-0.1,0.9-0.4c0.4-0.3,0.9-0.6,1.4-1s1.1-0.8,1.8-1.2
					c0.6-0.4,1.3-0.8,1.9-1.2c0.6-0.3,1.2-0.6,1.8-0.8c0.6-0.2,1.1-0.2,1.5-0.1l-0.2,0.6c-0.3,0.8-0.6,1.5-0.9,2.1s-0.5,1.1-0.8,1.6
					c-0.2,0.5-0.5,0.8-0.7,0.9l-6.4,1.7c0,0.1,0.1,0.2,0.1,0.3c0,0.3,0,0.5,0,0.6c0.4,2,1,3.9,1.7,5.5c0.7,1.7,1.4,3.5,2.1,5.4
					l-0.1,0.4l-4.2,3.2c-0.1,0-0.2,0-0.2-0.1C90.5,62.6,90.4,62.5,90.3,62.3z M99.3,53.9L94.9,56l-0.6-0.6l2.6-2.6
					c0.1-0.1,0.3-0.3,0.6-0.5c0.2-0.2,0.5-0.4,0.8-0.6c0.2-0.2,0.5-0.4,0.7-0.6c0.2-0.2,0.3-0.4,0.4-0.6c0.2-1.5,0.5-2.9,0.9-4.1
					c0.4-1.3,1-2.6,1.7-4c-0.1-0.1-0.3-0.3-0.5-0.4c-0.2-0.2-0.3-0.4-0.2-0.6v-0.2l4.2-3.6h0.8c0.4,0.3,1,0.7,1.7,1.2
					c0.8,0.4,1.5,0.9,2.3,1.4s1.5,1,2.2,1.6c0.6,0.5,1.1,1.1,1.3,1.6c0,0.1,0,0.1,0,0.2l0,0c-0.3,0.2-0.7,0.4-1.2,0.8
					c-0.6,0.4-1.2,0.8-1.9,1.2c-0.7,0.4-1.4,0.9-2.1,1.4s-1.4,0.9-2,1.4c-0.6,0.4-1.1,0.8-1.5,1.1s-0.6,0.6-0.6,0.7v0.4
					c0.9,1.5,2.1,2.4,3.5,2.9s2.9,0.7,4.6,0.7c0.8,0,1.6-0.1,2.2-0.4c0.6-0.2,1.3-0.5,1.8-0.9c0.6-0.4,1.2-0.9,1.7-1.4
					c0.6-0.5,1.2-1.1,1.9-1.6h0.3c0,0,0.1,0.1,0.2,0.2c0.1,0.1,0.2,0.3,0.3,0.4c0.1,0.2,0.2,0.3,0.3,0.5c0.1,0.2,0.1,0.3,0.1,0.3
					c0,0.2-0.1,0.4-0.3,0.6c-0.2,0.2-0.4,0.5-0.6,0.6c-0.2,0.2-0.4,0.4-0.6,0.5s-0.3,0.2-0.4,0.3c-1,0.8-1.9,1.5-2.9,2.1
					s-2,1.2-3,1.7s-2,0.8-3.1,1.1s-2.2,0.4-3.5,0.4c-1.7,0-3.2-0.4-4.5-1.3c-1.3-0.9-2.2-2.1-2.8-3.6h-0.4V53.9z M104.1,42.9
					c-0.1,0.8-0.2,1.6-0.3,2.4c-0.1,0.8-0.2,1.6,0,2.3c0.6-0.2,1.3-0.6,2-1.1s1.3-1,1.8-1.6c-0.4-0.4-0.9-0.9-1.5-1.4
					C105.4,43.1,104.8,42.9,104.1,42.9z M117.3,53.9l-4.4,2.1l-0.6-0.6l2.6-2.6c0.1-0.1,0.3-0.3,0.6-0.5c0.2-0.2,0.5-0.4,0.8-0.6
					c0.2-0.2,0.5-0.4,0.7-0.6c0.2-0.2,0.3-0.4,0.4-0.6c0.2-1.5,0.5-2.9,0.9-4.1c0.4-1.3,1-2.6,1.7-4c-0.1-0.1-0.3-0.3-0.5-0.4
					c-0.2-0.2-0.3-0.4-0.2-0.6v-0.2l4.2-3.6h0.8c0.4,0.3,1,0.7,1.7,1.2c0.8,0.4,1.5,0.9,2.3,1.4c0.8,0.5,1.5,1,2.2,1.6
					c0.6,0.5,1.1,1.1,1.3,1.6c0,0.1,0,0.1,0,0.2l0,0c-0.3,0.2-0.7,0.4-1.2,0.8c-0.6,0.4-1.2,0.8-1.9,1.2s-1.4,0.9-2.1,1.4
					s-1.4,0.9-2,1.4c-0.6,0.4-1.1,0.8-1.5,1.1s-0.6,0.6-0.6,0.7v0.4c0.9,1.5,2.1,2.4,3.5,2.9c1.4,0.5,2.9,0.7,4.6,0.7
					c0.8,0,1.6-0.1,2.2-0.4c0.6-0.2,1.3-0.5,1.8-0.9c0.6-0.4,1.2-0.9,1.7-1.4c0.6-0.5,1.2-1.1,1.9-1.6h0.3c0,0,0.1,0.1,0.2,0.2
					c0.1,0.1,0.2,0.3,0.3,0.4c0.1,0.2,0.2,0.3,0.3,0.5s0.1,0.3,0.1,0.3c0,0.2-0.1,0.4-0.3,0.6c-0.2,0.2-0.4,0.5-0.6,0.6
					c-0.2,0.2-0.4,0.4-0.6,0.5c-0.2,0.1-0.3,0.2-0.4,0.3c-1,0.8-1.9,1.5-2.9,2.1s-2,1.2-3,1.7s-2,0.8-3.1,1.1s-2.2,0.4-3.5,0.4
					c-1.7,0-3.2-0.4-4.5-1.3c-1.3-0.9-2.2-2.1-2.8-3.6h-0.4V53.9z M122.1,42.9c-0.1,0.8-0.2,1.6-0.3,2.4c-0.1,0.8-0.2,1.6,0,2.3
					c0.6-0.2,1.3-0.6,2-1.1s1.3-1,1.8-1.6c-0.4-0.4-0.9-0.9-1.5-1.4C123.4,43.1,122.8,42.9,122.1,42.9z M130.7,48.5
					c-0.3,0-0.5-0.1-0.6-0.2c-0.1-0.1-0.1-0.3-0.1-0.6c0-0.2,0.1-0.5,0.2-0.8c0.1-0.3,0.2-0.5,0.2-0.7c1-0.5,2-1,3-1.6
					c1-0.5,1.9-1.1,2.8-1.6c-0.1-0.1-0.3-0.2-0.5-0.4s-0.4-0.4-0.5-0.6c-0.2-0.2-0.3-0.5-0.5-0.7c-0.1-0.2-0.2-0.4-0.2-0.6
					c0,0,0.1-0.2,0.4-0.4c0.2-0.2,0.6-0.5,0.9-0.8c0.4-0.3,0.8-0.6,1.2-1c0.5-0.3,0.9-0.6,1.3-0.9c0.6-0.1,1,0,1.5,0.3
					c0.4,0.3,0.8,0.6,1,1s0.6,0.8,0.8,1.2s0.5,0.7,0.8,0.8c1.5-0.5,2.9-1,4.1-1.4c1.2-0.4,2.1-0.7,2.9-0.8l-0.3,2.1
					c-0.6,0.3-1,0.6-1.4,0.8s-0.8,0.4-1.2,0.6c-0.4,0.2-0.9,0.4-1.4,0.7c-0.5,0.2-1.2,0.6-1.9,1c-0.2,0.1-0.3,0.2-0.3,0.3
					s-0.1,0.3-0.1,0.4c0,0.2,0.1,0.7,0.2,1.3c0.1,0.6,0.3,1.4,0.4,2.2c0.2,0.8,0.4,1.7,0.6,2.7c0.2,0.9,0.5,1.8,0.7,2.6
					s0.4,1.4,0.6,1.9c0.2,0.5,0.3,0.8,0.4,0.8c1.2-1.1,2.4-1.9,3.5-2.6c1.1-0.7,2-1.3,2.8-1.8v2c-0.5,0.5-0.9,0.8-1.1,1.1
					c-0.2,0.2-0.4,0.4-0.6,0.6c-0.2,0.2-0.4,0.4-0.6,0.6c-0.2,0.2-0.6,0.6-1.1,1c-0.4,0.4-0.8,0.8-1.4,1.4c-0.6,0.6-1.2,1.1-1.8,1.7
					c-0.7,0.6-1.3,1-2,1.4s-1.3,0.6-1.9,0.6c-0.1,0-0.2-0.4-0.4-1.2s-0.4-1.8-0.6-3c-0.2-1.2-0.5-2.5-0.7-3.9
					c-0.3-1.4-0.5-2.7-0.8-3.9s-0.5-2.2-0.8-3s-0.5-1.2-0.8-1.1c-0.7,0.3-1.5,0.7-2.6,1.1S132.1,48,130.7,48.5z M157.7,62.6
					c0.1-1.3,0.4-2.7,1-4s1.3-2.5,2.2-3.7c0.9-1.1,2-2.2,3.2-3.2s2.5-1.8,3.8-2.5s2.7-1.2,4.1-1.7c1.4-0.4,2.7-0.6,4-0.6
					c0.7,0,1.4,0.1,2.2,0.2c0.8,0.1,1.4,0.5,1.9,1.2c-0.3,0.4-0.7,0.8-1.1,1.1c-0.4,0.4-0.8,0.8-1.2,1.1s-0.8,0.6-1.1,0.9
					c-0.3,0.2-0.5,0.3-0.7,0.3c-0.6,0-1.2-0.2-2-0.5s-1.6-0.5-2.4-0.5c-1.4,0-2.6,0.2-3.9,0.5c-1.2,0.4-2.3,0.9-3.2,1.7
					s-1.7,1.7-2.2,2.8c-0.6,1.1-0.9,2.4-0.9,3.9c-0.1,1.3,0.3,2.4,1,3.4c0.7,0.9,1.6,1.7,2.8,2.3c1.1,0.6,2.3,1.1,3.6,1.4
					c1.3,0.3,2.5,0.4,3.6,0.4s2.5-0.2,4.2-0.5c1.6-0.3,3.2-0.8,4.8-1.5c1.5-0.7,2.9-1.6,4-2.8s1.7-2.6,1.8-4.3
					c0.1-1-0.1-2.1-0.5-3.1s-0.9-2-1.5-3s-1.2-2-1.9-2.9c-0.7-1-1.4-1.9-2-2.9c-0.7-1-1.3-2-1.9-2.8c-0.6-0.8-1.1-1.6-1.6-2.4
					c-0.5-0.8-1-1.6-1.5-2.4s-1-1.7-1.6-2.7c0-0.1,0-0.1-0.1-0.2c-0.1-0.1-0.1-0.1-0.2-0.1c-1.4,0.6-2.8,1.3-4.2,2.1
					s-2.8,1.6-4.2,2.4c-1.4,0.8-2.8,1.4-4.3,1.9s-3,0.8-4.6,0.8c0-0.3,0.2-0.6,0.5-1s0.6-0.8,1-1.1c0.4-0.4,0.7-0.7,1.1-0.9
					c0.4-0.3,0.7-0.4,0.9-0.5c0,0,0.2-0.1,0.5-0.1s0.6,0,0.9-0.1c0.3,0,0.6-0.1,0.9-0.1c0.3,0,0.4,0,0.5-0.1
					c0.9-0.2,1.7-0.5,2.6-0.8c0.9-0.4,1.8-0.7,2.6-1.2c0.9-0.4,1.7-0.9,2.5-1.4s1.6-1,2.2-1.5c0.2-0.1,0.3-0.2,0.5-0.3
					c0.2-0.1,0.2-0.2,0.2-0.3V32c0-0.3,0.2-0.6,0.6-1c0.3-0.4,0.7-0.8,1.2-1.2c0.5-0.4,1-0.7,1.6-1c0.5-0.3,1-0.4,1.5-0.4l3.3,3.8
					c0,0.5-0.2,0.8-0.4,1s-0.5,0.4-0.8,0.5c-0.3,0.1-0.5,0.3-0.8,0.4c-0.2,0.2-0.4,0.5-0.4,0.9c0,0.5,0.2,1.2,0.8,2
					c0.6,0.9,1.3,1.8,2.1,2.9c0.9,1.1,1.8,2.3,2.8,3.5c1,1.3,1.9,2.6,2.8,3.9c0.9,1.3,1.5,2.6,2.1,4c0.5,1.3,0.8,2.6,0.7,3.9
					c-0.1,2.1-0.8,4.1-2.2,6s-3.1,3.5-5.2,4.9c-2.1,1.4-4.5,2.5-7.2,3.3s-5.4,1.2-8.2,1.2c-1.2,0-2.4-0.2-3.7-0.5
					c-1.3-0.4-2.4-0.9-3.5-1.6c-1-0.7-1.9-1.6-2.5-2.6C157.9,65.2,157.6,64,157.7,62.6z M163.5,27.8c0.3-0.3,0.7-0.6,1.1-1
					c0.4-0.4,0.8-0.8,1.2-1.2c0.4-0.4,0.8-0.7,1.1-0.9c0.3-0.3,0.5-0.4,0.6-0.4c0.2,0.1,0.6,0.2,1.2,0.3c0.6,0.2,1.2,0.4,1.8,0.6
					s1.2,0.5,1.6,0.9c0.5,0.3,0.7,0.6,0.7,1c0,0.3-0.1,0.7-0.5,1.1c-0.3,0.4-0.6,0.8-1,1.2c-0.4,0.4-0.8,0.7-1.2,1s-0.7,0.4-0.9,0.4
					c-0.1,0-0.2-0.1-0.4-0.4c-0.2-0.2-0.4-0.5-0.6-0.7c-0.3-0.2-0.6-0.4-1.1-0.5s-1-0.3-1.5-0.4s-1-0.3-1.4-0.4
					C163.9,28.3,163.7,28.1,163.5,27.8z M189.7,53.5c0-3.7,0.9-7.1,2.6-10.2c1.7-3.1,4-5.7,6.7-7.8c2.8-2.2,5.9-3.8,9.4-5
					s7-1.8,10.5-1.8c1.6,0,3.1,0.2,4.6,0.6s2.8,1,4,2c1.2,0.9,2.1,2.2,2.8,3.7s1.1,3.4,1.1,5.7c0,1.1-0.2,2.3-0.6,3.5
					c-0.4,1.3-0.9,2.5-1.6,3.8c-0.7,1.2-1.5,2.5-2.5,3.6c-0.9,1.2-2,2.2-3.1,3.1c-1.1,0.9-2.3,1.6-3.5,2.1s-2.5,0.8-3.8,0.8
					c-0.7,0-1.2-0.2-1.6-0.5c-0.4-0.3-0.8-0.7-1.1-1.1c-0.3-0.4-0.6-0.9-0.9-1.3c-0.3-0.5-0.7-0.8-1.1-1.1h-0.1h-0.1
					c-0.3,0-0.6,0.1-0.9,0.4c-0.3,0.3-0.7,0.6-1.1,0.9c-0.4,0.3-0.8,0.6-1.1,0.9c-0.4,0.3-0.7,0.4-1,0.5c-0.9,0-1.7-0.1-2.4-0.2
					c-0.7-0.1-1.3-0.4-1.8-0.7c-0.5-0.4-0.9-0.8-1.1-1.4c-0.2-0.6-0.4-1.3-0.4-2.3c0-1.2,0.4-2.5,1.2-4s1.8-2.9,3-4.2
					s2.5-2.4,3.8-3.3c1.4-0.9,2.6-1.4,3.8-1.4l3.1,2.4c0,0.8-0.2,1.6-0.6,2.5c-0.4,0.9-0.5,1.7-0.5,2.5c0,0.9,0.1,1.7,0.4,2.6
					c0.3,0.8,0.7,1.6,1.2,2.2c0.5,0.6,1.1,1.1,1.8,1.5s1.4,0.6,2.1,0.6c1,0,1.9-0.3,2.7-0.9c0.8-0.6,1.4-1.4,1.9-2.2s0.9-1.9,1.1-3
					c0.2-1.1,0.4-2.1,0.4-3c0-2.1-0.3-3.9-0.9-5.4c-0.6-1.5-1.4-2.8-2.5-3.7c-1-1-2.3-1.7-3.8-2.1c-1.5-0.4-3.1-0.7-4.8-0.7
					c-1.3,0-2.7,0.2-4.3,0.6c-1.6,0.4-3.3,0.9-5,1.7c-1.7,0.7-3.4,1.6-5,2.8c-1.6,1.1-3.1,2.4-4.3,3.8c-1.3,1.4-2.3,3-3.1,4.7
					s-1.2,3.6-1.2,5.6c0,1.5,0.3,2.8,0.8,3.9c0.5,1.1,1.2,2.1,2,3s1.8,1.6,2.9,2.1c1.1,0.6,2.2,1.1,3.3,1.4c1.2,0.4,2.3,0.6,3.4,0.8
					c1.1,0.2,2.1,0.2,3.1,0.2c2,0,3.8-0.1,5.4-0.4c1.6-0.3,3.3-0.9,5.1-1.7l0.4,1.6c-0.8,1.4-1.7,2.4-2.8,3.2
					c-1.1,0.7-2.4,1.3-3.7,1.6c-1.3,0.4-2.6,0.6-4,0.7c-1.4,0.1-2.7,0.1-3.9,0.1c-1.4,0-2.9-0.3-4.6-0.8c-1.7-0.6-3.2-1.4-4.7-2.6
					c-1.4-1.2-2.7-2.6-3.6-4.3C190.2,57.9,189.7,55.9,189.7,53.5z M205.8,48c0,1.2,0.3,2.1,1,2.8c0.6,0.7,1.5,1.2,2.5,1.3
					c0.3,0,0.6-0.1,1-0.2s0.5-0.4,0.5-0.6c0-0.9-0.1-1.8-0.2-2.7c-0.2-0.9-0.2-1.8-0.2-2.8c0-0.4,0-0.7,0.1-0.9
					c0-0.2,0.1-0.4,0.2-0.6c0.1-0.2,0.2-0.3,0.4-0.5s0.4-0.4,0.6-0.7c-0.6,0-1.2,0.1-1.9,0.2c-0.7,0.2-1.3,0.4-1.9,0.8
					c-0.6,0.4-1,0.9-1.4,1.5C206.1,46.2,205.9,47,205.8,48z M248.8,46.3l-2.5,1.5c0,0.1,0,0.1,0,0.2c0,0,0,0-0.1,0
					c0.1,0.1,0.2,0.5,0.4,1.1s0.3,1.3,0.5,2s0.3,1.4,0.5,2.1s0.3,1.1,0.3,1.2c0.1,0.2,0.1,0.4,0.1,0.5s0,0.2,0,0.3l-3.8,4.1h-0.4
					c-0.2-0.4-0.4-1.1-0.7-2s-0.6-1.8-1-2.9c-0.4-1-0.7-2.1-1.1-3.2c-0.4-1.1-0.7-2.1-1-3s-0.6-1.6-0.8-2.2
					c-0.2-0.6-0.4-0.9-0.4-0.9l-3.1,1.4l3.7,10.7l-3.2,3.1h-0.4c-0.3,0-0.7-0.5-1.1-1.4c-0.4-0.9-0.9-2-1.3-3.2
					c-0.4-1.2-0.8-2.4-1.2-3.6c-0.4-1.2-0.6-2-0.9-2.5c-0.3-0.6-0.5-1-0.7-1.3s-0.3-0.5-0.4-0.8c-0.1-0.2-0.2-0.5-0.4-0.8
					c-0.1-0.3-0.3-0.7-0.4-1.4c0.1-0.1,0.3-0.3,0.6-0.6s0.6-0.5,0.9-0.8c0.4-0.3,0.7-0.5,1-0.8c0.3-0.2,0.5-0.4,0.7-0.5
					c0.1-0.1,0.2-0.2,0.3-0.2c0-0.1,0.1-0.1,0.1-0.1s0.1,0,0.2,0c0.1,0,0.2,0,0.5,0c0.2,0.3,0.3,0.5,0.4,0.6
					c0.1,0.1,0.1,0.2,0.2,0.3c0,0.1,0.1,0.2,0.2,0.3c0.1,0.1,0.3,0.3,0.6,0.5l6-3h1.6c0.1,0,0.3,0.3,0.5,0.8s0.5,1.1,0.8,1.7
					c0.3,0.6,0.6,1.2,0.8,1.8c0.3,0.6,0.5,0.9,0.6,1h0.4c0.3-0.5,0.8-1,1.3-1.4c0.5-0.5,1.1-0.9,1.7-1.2c0.6-0.3,1.2-0.6,1.8-0.8
					s1.2-0.3,1.8-0.3c0.1,0,0.2,0.3,0.5,0.9c0.2,0.6,0.5,1.3,0.8,2.2s0.6,1.9,1,3s0.7,2.2,0.9,3.2c0.3,1,0.5,1.9,0.6,2.8
					c0.2,0.8,0.2,1.4,0.2,1.7v0.2l-4.3,4.1c-0.4,0-0.6,0-0.6-0.2s-0.1-0.4-0.1-0.6c-0.4-2.1-0.8-4.3-1.3-6.5s-0.8-4.5-1.1-6.6
					L248.8,46.3z M80.2,124c-0.9-1.4-1.9-2.8-2.9-4.1c-1-1.4-2.1-2.8-3.2-4.2c-1.1-1.4-2.2-2.8-3.2-4.2c-1-1.4-2-2.7-3-4.1
					c-0.3-0.2-1.1-0.4-2.3-0.5c-1.2-0.1-2.6-0.3-4.3-0.4c-1.6-0.1-3.3-0.2-5.1-0.4c-1.8-0.1-3.5-0.3-5-0.5s-2.8-0.4-3.8-0.6
					s-1.5-0.5-1.4-0.9l0.1-0.3l0.1-0.3l1.9-2.4c1,0,2.1,0,3.3,0.2c1.2,0.1,2.5,0.3,3.8,0.5s2.6,0.4,3.9,0.6c1.3,0.2,2.5,0.3,3.7,0.4
					v-0.1c0-0.1,0-0.1,0-0.2s-0.2-0.4-0.7-0.7c-0.5-0.3-1-0.8-1.7-1.2c-0.7-0.5-1.4-1.1-2.2-1.7s-1.6-1.2-2.4-1.9
					c-0.8-0.6-1.4-1.3-2-2s-1-1.3-1.2-1.9c-0.1-0.2-0.2-0.4-0.2-0.8c-0.1-0.4-0.2-0.7-0.3-1.1s-0.2-0.7-0.2-1
					c-0.1-0.3-0.1-0.5-0.1-0.5l2.1-4.2c0.5,0,1,0.2,1.5,0.6s1,0.9,1.5,1.4s1,1.1,1.4,1.7c0.5,0.6,0.8,1.1,1.2,1.5
					c0.5,0.6,1.5,1.1,2.9,1.5c1.4,0.4,3.1,0.7,5.1,0.9c1.9,0.2,4.1,0.4,6.4,0.5s4.6,0.3,6.8,0.4c2.3,0.2,4.4,0.3,6.5,0.5
					s3.8,0.5,5.3,1c0.2,0,0.4,0.2,0.4,0.4l-4.3,3.7c-0.3,0.3-0.6,0.5-0.9,0.5c-0.3,0.1-0.6,0.1-0.9,0.1c-0.2,0-0.4-0.2-0.5-0.4
					c-0.1-0.2,0-0.5,0.3-0.8c-0.8-0.3-1.8-0.5-3.1-0.8c-1.3-0.2-2.8-0.5-4.4-0.7s-3.2-0.4-5-0.5s-3.4-0.3-5-0.4s-3.1-0.2-4.5-0.2
					c-1.3-0.1-2.4-0.1-3.3-0.1c0,0,0.2,0.2,0.6,0.5c0.5,0.4,1,0.8,1.7,1.3c0.7,0.5,1.4,1.1,2.2,1.7c0.8,0.6,1.5,1.2,2.2,1.7
					s1.4,1.1,2.3,1.8c0.3,0.2,0.9,0.3,1.8,0.4c0.8,0.1,1.8,0.2,2.8,0.2c1,0.1,2.1,0.1,3.2,0.2s2.1,0.2,3,0.3
					c0.9,0.1,1.7,0.3,2.2,0.4c0.6,0.2,0.9,0.4,0.9,0.6c0,0.3-0.1,0.6-0.4,0.9s-0.5,0.6-0.9,0.9c-0.3,0.3-0.7,0.5-1,0.8
					c-0.3,0.2-0.5,0.4-0.7,0.6c-1.2-0.3-2.4-0.4-3.5-0.3s-2.4,0.2-3.8,0.2c1.4,1.8,2.9,3.7,4.5,5.5c1.6,1.9,3,3.8,4.2,5.7
					c0.2,0.3,0.4,0.6,0.6,1c0.3,0.4,0.5,0.8,0.8,1.1c0.3,0.4,0.6,0.9,0.9,1.4l-0.1,0.2l-3.2,3.5c-0.4-0.4-0.7-0.8-1.1-1.3
					C80.4,125.2,80.2,124.6,80.2,124z M85.6,113.9l-4.4,2.2l-0.6-0.6l2.6-2.6c0.1-0.1,0.3-0.3,0.6-0.5c0.2-0.2,0.5-0.4,0.8-0.6
					c0.2-0.2,0.5-0.4,0.7-0.6s0.3-0.4,0.4-0.6c0.2-1.5,0.5-2.9,0.9-4.2c0.4-1.3,1-2.6,1.7-4c-0.1-0.1-0.3-0.3-0.5-0.4
					c-0.2-0.2-0.3-0.4-0.2-0.6v-0.2l4.2-3.6h0.8c0.4,0.3,1,0.7,1.7,1.2s1.5,0.9,2.3,1.4s1.5,1,2.2,1.6s1.1,1.1,1.3,1.6
					c0,0.1,0,0.1,0,0.2l0,0c-0.3,0.2-0.7,0.4-1.2,0.8c-0.6,0.4-1.2,0.8-1.9,1.2c-0.7,0.4-1.4,0.9-2.1,1.4s-1.4,0.9-2,1.4
					c-0.6,0.4-1.1,0.8-1.5,1.2c-0.4,0.3-0.6,0.6-0.6,0.7v0.4c0.9,1.5,2.1,2.4,3.5,2.9s2.9,0.7,4.6,0.7c0.8,0,1.6-0.1,2.2-0.4
					c0.6-0.2,1.3-0.5,1.8-1c0.6-0.4,1.2-0.9,1.7-1.4c0.6-0.5,1.2-1.1,1.9-1.6h0.3c0,0,0.1,0.1,0.2,0.2s0.2,0.3,0.3,0.4
					c0.1,0.2,0.2,0.3,0.3,0.5c0.1,0.2,0.1,0.3,0.1,0.3c0,0.2-0.1,0.4-0.3,0.6c-0.2,0.2-0.4,0.4-0.6,0.6s-0.4,0.4-0.6,0.5
					s-0.3,0.2-0.4,0.3c-1,0.8-1.9,1.5-2.9,2.1c-1,0.7-2,1.2-3,1.7s-2,0.8-3.1,1.1c-1.1,0.3-2.2,0.4-3.5,0.4c-1.7,0-3.2-0.4-4.5-1.3
					s-2.2-2.1-2.8-3.6h-0.4V113.9z M90.4,102.9c-0.1,0.8-0.2,1.6-0.3,2.4s-0.2,1.6,0,2.3c0.6-0.2,1.3-0.6,2-1.1s1.3-1,1.8-1.6
					c-0.4-0.4-0.9-0.9-1.5-1.3C91.7,103.1,91.1,102.9,90.4,102.9z M105.8,115.6c0.4,0,0.8,0.1,1.3,0.2s1,0.2,1.6,0.4
					c0.6,0.1,1.1,0.3,1.6,0.4s1,0.2,1.4,0.2c0.1,0,0.3,0,0.5,0s0.5,0,0.8-0.1c0.3,0,0.5-0.1,0.8-0.1c0.2,0,0.4-0.1,0.5-0.2l0.2-0.8
					c-0.2-0.1-0.7-0.2-1.5-0.5s-1.7-0.6-2.7-1s-2.1-0.8-3.2-1.3s-2.2-1-3.1-1.5s-1.7-1.1-2.4-1.6c-0.6-0.5-0.9-1-0.9-1.4
					c0.8-1,1.6-2,2.6-3s2-2,3.1-2.8s2.3-1.5,3.5-2.1c1.2-0.5,2.5-0.8,3.7-0.8c0.2,0,0.4,0,0.6,0s0.5,0,0.7,0c0.5,0,0.9,0.1,1.3,0.2
					s0.6,0.4,0.7,0.8c-1.3,1.6-2.8,3.1-4.4,4.4c-0.2,0-0.7,0-1.4-0.1c-0.7-0.1-1.3-0.1-1.9-0.1c-0.3,0-0.7,0-1.1,0
					c-0.5,0-0.9,0.1-1.3,0.2s-0.8,0.2-1.1,0.4c-0.3,0.2-0.5,0.4-0.5,0.7c0,0.3,0.3,0.7,1,1c0.7,0.4,1.7,0.7,2.8,1.1
					c1.1,0.4,2.3,0.8,3.6,1.2c1.3,0.4,2.5,0.8,3.7,1.3c1.1,0.5,2.1,0.9,2.8,1.4c0.8,0.5,1.2,1,1.2,1.5c0,0.1-0.1,0.3-0.3,0.7
					c-0.2,0.4-0.4,0.6-0.5,0.8c-1.3,1.4-2.4,2.4-3.5,3.1s-2.1,1.2-3.2,1.6c-1.1,0.3-2.2,0.5-3.4,0.5c-1.2,0-2.7,0-4.4,0
					c-0.4,0-0.8,0-1.2,0c-0.4,0-0.8,0-1.2,0c-0.4,0-0.6-0.1-0.9-0.1c-0.2-0.1-0.3-0.2-0.3-0.2l0.1-0.5c0-0.1,0.2-0.4,0.6-0.8
					s0.9-0.8,1.4-1.2c0.5-0.4,1-0.8,1.5-1.2C105.4,115.8,105.7,115.6,105.8,115.6z M115.5,108.5c-0.3,0-0.5-0.1-0.6-0.2
					s-0.1-0.3-0.1-0.6c0-0.2,0.1-0.5,0.2-0.8s0.2-0.5,0.2-0.7c1-0.5,2-1,3-1.6s1.9-1.1,2.8-1.6c-0.1-0.1-0.3-0.2-0.5-0.4
					c-0.2-0.2-0.4-0.4-0.5-0.6c-0.2-0.2-0.3-0.5-0.5-0.7c-0.1-0.2-0.2-0.4-0.2-0.6c0,0,0.1-0.2,0.4-0.4c0.2-0.2,0.6-0.5,0.9-0.8
					c0.4-0.3,0.8-0.6,1.2-1c0.5-0.3,0.9-0.6,1.3-0.9c0.6-0.1,1,0,1.5,0.3c0.4,0.3,0.8,0.6,1,1c0.3,0.4,0.6,0.8,0.8,1.2
					c0.2,0.4,0.5,0.7,0.8,0.8c1.5-0.5,2.9-1,4.1-1.5c1.2-0.4,2.1-0.7,2.9-0.8l-0.3,2c-0.6,0.3-1,0.6-1.4,0.8
					c-0.4,0.2-0.8,0.4-1.2,0.6s-0.9,0.4-1.4,0.7c-0.5,0.2-1.2,0.6-1.9,1c-0.2,0.1-0.3,0.2-0.3,0.3c0,0.1-0.1,0.3-0.1,0.4
					c0,0.2,0.1,0.7,0.2,1.3c0.1,0.6,0.3,1.4,0.4,2.2c0.2,0.8,0.4,1.7,0.6,2.7c0.2,0.9,0.5,1.8,0.7,2.6c0.2,0.8,0.4,1.4,0.6,2
					c0.2,0.5,0.3,0.8,0.4,0.8c1.2-1.1,2.4-1.9,3.5-2.6s2-1.3,2.8-1.8v2c-0.5,0.5-0.9,0.8-1.1,1c-0.2,0.2-0.4,0.4-0.6,0.6
					c-0.2,0.2-0.4,0.4-0.6,0.6c-0.2,0.2-0.6,0.6-1.1,1c-0.4,0.4-0.8,0.8-1.4,1.4c-0.6,0.6-1.2,1.1-1.8,1.7c-0.7,0.6-1.3,1.1-2,1.5
					s-1.3,0.6-1.9,0.6c-0.1,0-0.2-0.4-0.4-1.2c-0.2-0.8-0.4-1.8-0.6-3s-0.5-2.5-0.7-3.9c-0.3-1.4-0.5-2.7-0.8-3.9
					c-0.3-1.2-0.5-2.2-0.8-3s-0.5-1.2-0.8-1.1c-0.7,0.3-1.5,0.7-2.6,1.1C118.2,107.6,116.9,108,115.5,108.5z M136.3,107
					c-0.2,0-0.4-0.2-0.5-0.7c-0.1-0.4-0.2-0.9-0.2-1.5s0-1.1,0-1.7c0-0.5,0-0.9,0-1.1l3.8-3.5h0.8c0.1,0,0.2,0.2,0.2,0.6
					c0.1,0.4,0.1,0.9,0.1,1.5s0,1.1,0,1.6s0,0.9,0,1L136.3,107z M142.9,130.6c-0.6,0-1.1-0.5-1.7-1.4c-0.6-0.9-1.1-2.1-1.5-3.5
					c-0.5-1.4-0.9-2.9-1.3-4.6c-0.4-1.7-0.7-3.2-1-4.8c-0.3-1.5-0.5-2.8-0.6-4s-0.2-1.9-0.2-2.2V110l4-3h0.8
					c0.1,1.3,0.3,2.5,0.4,3.6c0.1,1.1,0.3,2.2,0.5,3.3c0.2,1.1,0.4,2.1,0.6,3.2c0.3,1.1,0.6,2.2,1,3.5c0.1,0.4,0.4,0.8,0.7,1.4
					s0.6,1.2,1,1.8c0.3,0.6,0.6,1.2,0.9,1.9c0.2,0.6,0.4,1.1,0.4,1.4L142.9,130.6z M141.6,106.7c0.1-0.1,0.3-0.2,0.5-0.4
					s0.4-0.4,0.7-0.7c0.2-0.2,0.5-0.5,0.7-0.6c0.2-0.2,0.3-0.4,0.4-0.5c0.4-0.4,0.6-0.6,0.7-0.7c0.1-0.1,0.3-0.2,0.6-0.2
					c0.4,0,0.9,0.2,1.5,0.7c0.5,0.4,1.1,1,1.7,1.6c0.6,0.6,1.2,1.4,1.8,2.1c0.6,0.8,1.2,1.5,1.8,2.2s1.2,1.3,1.7,1.8s1,0.9,1.5,1
					c0-0.1,0-0.2,0-0.3c0-0.1,0-0.2,0-0.3c0.1-0.5,0.2-1.2,0.2-2s0.1-1.6,0.1-2.5c0-0.8,0.1-1.7,0.1-2.5s0.1-1.5,0.2-2
					c0,0,0.1-0.1,0.1-0.2c0.1-0.1,0.1-0.2,0.1-0.2l3.6-2.8c0.2,0,0.4,0.4,0.4,1.1s0,1.5,0,2.6c-0.1,1-0.2,2.2-0.3,3.5
					c-0.1,1.2-0.3,2.5-0.4,3.6c-0.1,1.2-0.2,2.2-0.3,3.1s0,1.6,0.1,2c-0.2,0.1-0.4,0.3-0.7,0.6c-0.3,0.3-0.7,0.6-1.1,0.9
					c-0.4,0.3-0.8,0.6-1.2,0.9s-0.8,0.5-1.1,0.6c-2-2.3-4-4.5-6.2-6.7c-2.1-2.1-4.4-4.1-6.8-5.8c-0.1,0-0.1,0-0.2-0.1
					C141.6,106.8,141.6,106.8,141.6,106.7z M162.9,120.8c0-0.7,0.2-1.4,0.6-2.2c0.4-0.8,0.8-1.6,1.3-2.3c0.5-0.8,1.1-1.5,1.6-2.3
					c0.6-0.7,1.1-1.4,1.6-2s1-1.1,1.3-1.6c0.4-0.4,0.6-0.8,0.6-1c0.1-0.4,0.1-1,0-2c-0.1-0.9-0.4-1.8-0.7-2.7
					c-0.4-0.9-0.9-1.7-1.5-2.4c-0.6-0.7-1.4-1-2.3-1c-1.5,0-2.6,0.4-3.3,1.2c-0.7,0.8-1.1,1.9-1.2,3.3c0,0.4,0,0.9,0.2,1.3
					c0.2,0.5,0.4,0.9,0.6,1.4c0.2,0.5,0.4,0.9,0.6,1.3c0.2,0.4,0.3,0.8,0.2,1.2c0,0.2-0.1,0.5-0.4,0.8c-0.2,0.3-0.5,0.7-0.8,1.1
					s-0.7,0.7-1,1s-0.6,0.6-0.9,0.8c-0.2-0.5-0.3-0.9-0.5-1.2c-0.1-0.4-0.3-0.7-0.4-1.1c-0.1-0.4-0.2-0.8-0.3-1.2
					c-0.1-0.4-0.1-0.9-0.1-1.5c0-1.5,0.3-3.1,0.9-4.6c0.6-1.5,1.4-2.9,2.4-4.1s2.2-2.2,3.5-3s2.7-1.2,4.2-1.2c1,0,1.7,0.4,2.2,1.3
					s1,1.9,1.3,3.1s0.6,2.3,0.8,3.5c0.2,1.1,0.5,2,0.8,2.5c0.2-0.2,0.5-0.5,0.8-0.8s0.7-0.5,1-0.5l0.1,0.9c0,0.3-0.1,0.6-0.3,0.8
					c-0.2,0.2-0.4,0.4-0.6,0.6s-0.4,0.4-0.5,0.6c-0.2,0.2-0.2,0.4-0.2,0.8c0,0.2,0,0.5,0.1,1s0.1,1,0.2,1.5s0.2,1,0.4,1.4
					c0.1,0.4,0.3,0.6,0.4,0.6c0,0,0.1,0,0.2,0c0.1,0,0.3-0.1,0.4-0.1c0.2,0,0.3-0.1,0.4-0.1c0.1,0,0.2,0,0.2,0h0.2
					c0.1,0,0.2,0,0.3,0c0,0,0.1,0.1,0.1,0.3c-0.6,1-1.1,1.8-1.7,2.6c-0.6,0.8-1.3,1.5-2.2,2.2c-0.3,0-0.5,0-0.8-0.1
					c-0.2-0.1-0.5-0.2-0.9-0.2c-0.4,0.2-1,0.5-1.7,0.9s-1.5,0.8-2.2,1.2c-0.8,0.4-1.6,0.7-2.3,1c-0.8,0.3-1.4,0.4-1.9,0.4
					c-0.3,0-0.6-0.2-0.7-0.6C163,121.3,162.9,121,162.9,120.8z M170.6,112.6c-0.2,0-0.5,0.2-1,0.7s-1,1-1.5,1.6s-1.1,1.3-1.5,2
					c-0.5,0.7-0.8,1.3-0.9,1.8c0.2,0,0.5-0.1,1.1-0.3s1.2-0.5,1.9-0.8s1.2-0.6,1.7-0.9s0.8-0.5,0.8-0.7l-0.5-3.5h-0.1V112.6z
					 M174.5,85.9c0.5,1,1,2.3,1.5,4c0.5,1.6,1,3.4,1.5,5.4s1,4,1.5,6c0.5,2.1,0.9,4,1.3,5.9s0.8,3.6,1.1,5.1s0.6,2.6,0.7,3.4
					c0.1-0.1,0.5-0.3,1-0.6c0.5-0.3,1.1-0.6,1.7-0.9c0.6-0.3,1.2-0.6,1.7-0.9s0.9-0.5,1.1-0.6c0.5-0.4,1-0.6,1.5-0.6s1,0.1,1.5,0.2
					v1.3c-1,0.4-1.9,0.8-2.7,1.2c-0.9,0.5-1.7,1-2.5,1.6s-1.7,1.3-2.6,2c-0.9,0.8-1.8,1.6-2.8,2.6l-1.1-0.3c-0.7-2.7-1.4-5.4-2-8.1
					s-1.2-5.4-1.9-8c-0.7-2.7-1.4-5.3-2.2-8s-1.8-5.3-3-8L174.5,85.9z M200.5,91c0.6,0,1.1,0.5,1.7,1.4c0.5,0.9,1.1,2.1,1.5,3.5
					c0.5,1.4,0.9,2.9,1.3,4.6c0.4,1.7,0.7,3.2,1,4.8c0.3,1.5,0.5,2.8,0.6,4c0.2,1.1,0.2,1.9,0.2,2.2v0.2l-3.9,3h-0.8
					c-0.1-1.3-0.3-2.5-0.4-3.7c-0.1-1.1-0.3-2.2-0.4-3.3c-0.2-1.1-0.4-2.1-0.6-3.2c-0.3-1.1-0.6-2.2-1-3.5c-0.1-0.3-0.4-0.8-0.7-1.4
					s-0.6-1.2-0.9-1.9c-0.3-0.6-0.6-1.2-0.9-1.8s-0.4-1.1-0.4-1.4L200.5,91z M207.1,114.6c0.2,0,0.4,0.2,0.5,0.7s0.2,0.9,0.2,1.5
					s0,1.1,0,1.6s0,0.9,0,1.1l-3.9,3.5h-0.8c-0.1,0-0.2-0.2-0.2-0.7c0-0.4-0.1-0.9-0.1-1.5s0-1.1,0-1.6s0-0.9,0-1L207.1,114.6z
					 M211.2,91c0.6,0,1.1,0.5,1.7,1.4c0.5,0.9,1.1,2.1,1.5,3.5c0.5,1.4,0.9,2.9,1.3,4.6c0.4,1.7,0.7,3.2,1,4.8
					c0.3,1.5,0.5,2.8,0.6,4c0.2,1.1,0.2,1.9,0.2,2.2v0.2l-3.9,3h-0.8c-0.1-1.3-0.3-2.5-0.4-3.7c-0.1-1.1-0.3-2.2-0.4-3.3
					c-0.2-1.1-0.4-2.1-0.6-3.2c-0.3-1.1-0.6-2.2-1-3.5c-0.1-0.3-0.4-0.8-0.7-1.4s-0.6-1.2-0.9-1.9c-0.3-0.6-0.6-1.2-0.9-1.8
					s-0.4-1.1-0.4-1.4L211.2,91z M217.8,114.6c0.2,0,0.4,0.2,0.5,0.7s0.2,0.9,0.2,1.5s0,1.1,0,1.6s0,0.9,0,1.1l-3.9,3.5h-0.8
					c-0.1,0-0.2-0.2-0.2-0.7c0-0.4-0.1-0.9-0.1-1.5s0-1.1,0-1.6s0-0.9,0-1L217.8,114.6z M221.9,91c0.6,0,1.1,0.5,1.7,1.4
					c0.5,0.9,1.1,2.1,1.5,3.5c0.5,1.4,0.9,2.9,1.3,4.6c0.4,1.7,0.7,3.2,1,4.8c0.3,1.5,0.5,2.8,0.6,4c0.2,1.1,0.2,1.9,0.2,2.2v0.2
					l-3.9,3h-0.8c-0.1-1.3-0.3-2.5-0.4-3.7c-0.1-1.1-0.3-2.2-0.4-3.3c-0.2-1.1-0.4-2.1-0.6-3.2c-0.3-1.1-0.6-2.2-1-3.5
					c-0.1-0.3-0.4-0.8-0.7-1.4s-0.6-1.2-0.9-1.9c-0.3-0.6-0.6-1.2-0.9-1.8s-0.4-1.1-0.4-1.4L221.9,91z M228.5,114.6
					c0.2,0,0.4,0.2,0.5,0.7s0.2,0.9,0.2,1.5s0,1.1,0,1.6s0,0.9,0,1.1l-3.9,3.5h-0.8c-0.1,0-0.2-0.2-0.2-0.7c0-0.4-0.1-0.9-0.1-1.5
					s0-1.1,0-1.6s0-0.9,0-1L228.5,114.6z"/>
			</defs>
			<clipPath id="SVGID_00000132064281466816214440000006573026203522080642_">
				<use xlink:href="#SVGID_00000065040797373995926620000013293048452501154187_"  style="overflow:visible;"/>
			</clipPath>
			
				<linearGradient id="SVGID_00000005262141919351154990000008335360557871219849_" gradientUnits="userSpaceOnUse" x1="66.8009" y1="436.4633" x2="215.703" y2="613.9124" gradientTransform="matrix(1 0 0 1 0 -448)">
				<stop  offset="0" style="stop-color:#A2C2D1"/>
				<stop  offset="0.13" style="stop-color:#71A0AB"/>
				<stop  offset="1" style="stop-color:#D600F5"/>
			</linearGradient>
			
				<rect x="25" y="23.5" style="clip-path:url(#SVGID_00000132064281466816214440000006573026203522080642_);fill:url(#SVGID_00000005262141919351154990000008335360557871219849_);" width="232.5" height="107.3"/>
		</g>
	</g>
</g>
</svg>
