<?xml version="1.0" encoding="UTF-8"?>
<svg id="Calque_2" data-name="Calque 2" xmlns="http://www.w3.org/2000/svg" xmlns:xlink="http://www.w3.org/1999/xlink" viewBox="0 0 315.99 132.04">
  <defs>
    <style>
      .cls-1, .cls-2 {
        fill: none;
      }

      .cls-3 {
        letter-spacing: -.02em;
      }

      .cls-4 {
        clip-path: url(#clippath);
      }

      .cls-5 {
        fill: #0e2f7a;
      }

      .cls-6 {
        fill: url(#Dégradé_sans_nom_14);
      }

      .cls-7 {
        letter-spacing: 0em;
      }

      .cls-8 {
        clip-path: url(#clippath-1);
      }

      .cls-2 {
        font-family: SubwayNewYorkStd, 'Subway NewYork Std';
        font-size: 50px;
      }

      .cls-9 {
        fill: url(#Dégradé_sans_nom_14-2);
      }
    </style>
    <clipPath id="clippath">
      <text class="cls-2" transform="translate(24.25 54.89)"><tspan x="0" y="0">S†re</tspan><tspan class="cls-3" x="90.8" y="0">e</tspan><tspan class="cls-7" x="107.6" y="0">t J@m</tspan><tspan x="25.78" y="60">Fest¡val !!!</tspan></text>
    </clipPath>
    <linearGradient id="Dégradé_sans_nom_14" data-name="Dégradé sans nom 14" x1="65.27" y1="-16.2" x2="214.49" y2="161.64" gradientUnits="userSpaceOnUse">
      <stop offset="0" stop-color="#99c8d8"/>
      <stop offset=".13" stop-color="#4fa7b2"/>
      <stop offset="1" stop-color="#f0f"/>
    </linearGradient>
    <clipPath id="clippath-1">
      <path class="cls-1" d="m46.93,128.58c.92-.47,9.75.61,13.06.61h135.03c18.36,0,32.93-1.83,34.97-1.13s2.02,3.39,0,3.88-18.27-1.06-28.05-1.06H59.89c-3.31,0-12.17,1.08-12.96.52s-.92-2.35,0-2.82Z"/>
    </clipPath>
    <linearGradient id="Dégradé_sans_nom_14-2" data-name="Dégradé sans nom 14" x1="88.75" y1="54.93" x2="185.82" y2="170.61" xlink:href="#Dégradé_sans_nom_14"/>
  </defs>
  <g id="Maquette">
    <g>
      <g>
        <path class="cls-5" d="m179.32,47.64c0,1.92-41.1,1.54-42.67,3.14-1.86,1.9,16.31,3.66,13.82,5.27-1.31.85-22.87,1.65-27.31,2.41-1.88.32,14.99.63,12.34.94-7.93.91-24.09,1.74-28.08,2.49-1.86.35-.97,3.69-3.6,5.71-2.33,1.79-6.17.06-10.51-1.55-.4-.15-.17,3.59-.58,3.45-.46-.16-1.54-4.2-2-4.35-1.14-.36-2.16.68-3.33.48-.91-.15-3.22-2.46-2.88-1.47,1.73,5.16,1.02,9.38.44,9.93-.98.91-1.2-4.51-3.18-9.54-.97-2.46-1.96,3.67-4.52,5.11-1,.56-3.04-3.2-3.62-3.19-1.77.02-.81,13.29.14,16.85.72,2.7-1.35,4.07-2.48,4.07-1.19,0-3.26-1.52-2.68-4.19,1.36-6.33,2.3-18.13.08-19.08-1.42-.61-3.95,10.04-5.47,9.97s-1.84-7.97-3.31-8.07c-1.01-.07-3.28,6.49-4.27,6.41-1.81-.15-2.33-6.95-4.08-7.14-1.05-.12-3.05-1.57-3.11-.37-.58,11.99-2.39-1.11-3.23-.44-4.69,3.72-2.96,29.17-1.96,34.23.55,2.82-1.09,5.04-3.95,5.04s-4.38-2.91-3.68-7.49c1.09-7.08,3.13-28.33-1.63-33.86-.88-1.03-1.84,5.52-3.09,5.19-1.15-.3-3.04-6.74-4.13-7.06-1.97-.58-2.82,11.19-4.59,10.54-1.07-.39-2.66-10.9-3.66-11.32-.79-.33-2.82,1.69-3.56,1.34-1.08-.51-4.4,5.46-5.36,4.93-.74-.41,1.65-11.97.98-12.39-.84-.53-9.73,6.34-10.45,5.78-1.07-.82,6.11-9.08,5.32-9.95-1.21-1.32-4.9-.41-5.43-1.82-.38-1.01,6.92-3.14,2.22-5.38-.76-.36.16-1.89.48-2.82.26-.76-3.01-4.51-2.54-5.25.55-.87,5.95,1.67,6.77.84.63-.64,1.3-.84,1.03-2.29-.2-1.08-1.09-3.68-.16-4.27s5.84.66,6.94.08-6.33-9.61-5.07-10.16c.8-.35,8.37,9.26,9.22,8.92s3.54-.7,4.45-1.02c.74-.26-1.07-5.47-.29-5.72.82-.26,4.47,4.95,5.33,4.71,1.08-.31-11.95-17.54,1.15-7.06,1.39,1.11,2.3,4.76,3.6,2.35.55-1.02,2.26,1.4,3.31,1.18,1.15-.24,2.12-4.83,3.31-5.04.93-.17,2.35,5.7,3.31,5.55.71-.12-.3-5.27.43-5.38.77-.11,2.95,2.99,3.73,2.89,1.01-.14,1.72-10.83,2.75-10.95,1.13-.13,2.56,10.32,3.71,10.2.62-.06,1.25-.12,1.87-.17,1.66-.15,4.08-5.21,5.78-5.32,1.1-.07.75,5.6,1.87,5.55,1.89-.09,4.83-5.34,6.77-5.38,1.3-.02,3.43,2.52,4.75,2.52,1.17,0,1.3,1.9,2.58,1.99,1.21.08.59-8.14,1.88-7.98.39.05-.82,9.69.86,10.2,2.14.65,7.26-7.81,7.77-7.73,1.02.16-2.92,8.05-1.87,8.24,1.22.22,3.36-1,4.62-.73.76.16,3.12-6.65,5.02-11.46,1.06-2.67,1.3-9.49,3.89-8.65,2.76.9-1.33,5.59-1.68,7.63-.82,4.77-2.67,12.6-1.92,12.79.59.15,1.52-.91,2.11-.76.92.24,4.88-9.78,5.81-9.53.79.22,4.83-2.7,5.61-2.47.36.1-3.8,16.52-1.15,14.18,2.65-2.34,5.69-7.34,6.05-7.23,1.11.33-4.7,7.94-3.6,8.29.9.29,7.31-4.05,8.21-3.75,1.32.44-6.11,9.89-4.82,10.34.92.32,11.34-1.75,12.24-1.43,1.75.63-3.85,1.61-2.2,2.25,2.6,1,5.06,2,7.31,2.96s-3.91,1.77-1.78,2.63c6.34,2.56,20.87.7,23.95,3.14,2.36,1.86-25.85,1.41-23.57,3.14,4.48,3.4,49.26,2.04,49.26,5.38Z"/>
        <path class="cls-5" d="m220.23,32.31c0,.45-10.61.89-10.97,1.31-.25.3,10.62.59,10.36.87-.45.49-14.36.95-15.36,1.38-.28.12,3.55.24,3.31.35-.44.21-6.87.41-7.34.6-.66.26,2.44.5,2.09.72-.41.26-9.12,1.27-13.22,1.27-14.95,0-23-3.94-23-6.5,0-2.4,6-6.5,20.94-6.5,1.21,0,9.34.08,13.58.57.86.1-7.84.36-6.62.59,1.31.24,19.24.52,20.08.82.75.27-6.5.56-5.61.88,1.09.39,11.34.8,12.07,1.24.59.35-19.09.72-18.77,1.1.36.42,18.45.86,18.45,1.31Z"/>
        <path class="cls-5" d="m281.76,53.12c0-.26-6.16-.52-6.37-.76-.15-.17,6.17-.34,6.02-.5-.26-.28-8.35-.55-8.93-.8-.16-.07,2.06-.14,1.92-.2-.25-.12-3.99-.24-4.27-.35-.39-.15,1.42-.29,1.21-.42-.24-.15-5.3-.74-7.68-.74-8.69,0-13.37,2.29-13.37,3.78,0,1.39,3.49,3.78,12.17,3.78.7,0,5.43-.05,7.89-.33.5-.06-4.56-.21-3.85-.34.76-.14,11.18-.3,11.67-.48.43-.16-3.78-.33-3.26-.51.63-.22,6.59-.47,7.02-.72.34-.2-11.09-.42-10.9-.64.21-.25,10.72-.5,10.72-.76Z"/>
        <path class="cls-5" d="m240.47,74.19c0,.39-12.92.77-13.36,1.13-.38.32,2.99.63,2.61.93-.51.41-9.34.8-10.1,1.16-.76.36,13.88.7,13.46,1-.35.25-14.02.48-15.53.69s5.44.4,4.22.55c-2.91.37-8.4,1.29-12.29,1.29-13.99,0-25.34-2.71-25.34-6.05s11.34-6.21,25.34-6.05c9.24.1,13.1.01,16.79.72.42.08-8.87.47-10.08.76-1.1.27,13.63.56,13.72.86.15.49-5.19,1-4.7,1.43.57.5,15.26,1.03,15.26,1.58Z"/>
        <path class="cls-5" d="m271.09,71.6c0,.1-4.33.19-4.48.28-.13.08,1,.16.87.23-.17.1-3.13.2-3.38.29s4.65.17,4.51.25c-.12.06-4.7.12-5.2.17s1.82.1,1.41.14c-.97.09-3.82.32-5.13.32-.94,0-4.82-.67-4.82-1.5s3.59-1.5,4.82-1.5c3.1,0,5.4,0,6.63.18.14.02-2.97.12-3.38.19-.37.07,4.57.14,4.6.21.05.12-1.74.25-1.58.36.19.13,5.11.26,5.11.39Z"/>
        <path class="cls-5" d="m164.87,70.41c0,.14-6.36.33-6.48.46-.13.14,5.96.22,5.71.35-.18.09-7.42.32-7.65.41-.08.03,6.5.05,6.44.08-.09.04-6.81.08-6.87.11-.12.07,3.88.31,3.79.35-.07.03-9.83.27-9.83-1.76,0-1.11,4.13-2.35,9.21-2.02.57.04-.92.14-.48.18.23.03.3.05.55.07,3.32.28,4.42.25,4.56.44.04.06-6.29.11-6.72.17-.78.11,10.61.25,10.98.38s-3.29-.03-2.88.37c.22.21-7.65.33-6.98.38.45.03,6.65,0,6.65.03Z"/>
        <path class="cls-5" d="m265.21,31.59c0,.14-6.36.33-6.48.46-.13.14,5.96.22,5.71.35-.18.09-7.42.32-7.65.41-.08.03,6.5.05,6.44.08-.09.04-6.81.08-6.87.11-.12.07,3.88.31,3.79.35-.07.03-9.83.27-9.83-1.76,0-1.11,4.13-2.35,9.21-2.02.57.04-.92.14-.48.18.23.03.3.05.55.07,3.32.28,4.42.25,4.56.44.04.06-6.29.11-6.72.17-.78.11,10.61.25,10.98.38s-3.29-.03-2.88.37c.22.21-7.65.33-6.98.38.45.03,6.65,0,6.65.03Z"/>
        <path class="cls-5" d="m134.75,13.04c0,.17-5.93.34-6,.5-.16.35,5.46.67,5.37.95-.03.11-7.63.21-7.92.3-.61.2,3.88.36,3.41.48-.58.15-3.94.11-6.88.23s-5.37-1.11-5.37-2.47,2.42-2.83,5.37-2.47c3.31.41,6.11.28,6.93.47.31.07-3.91-.02-3.42.07s6.18.19,6.23.3c.03.07-2.16.14-2.56.21-.54.1,5.72.21,5.58.32-.23.18-6.31.38-6.21.59.07.16,5.47.33,5.47.5Z"/>
        <path class="cls-5" d="m117.42,82.56c0,.15,14.01.3,14.44.44.51.17-12.55.33-12.62.49-.09.21,5.6.42,5.28.6-.36.21-12.74.39-14.01.55-1.17.15,9.1.27,8.78.38-.57.18-1.74.06-5.72.28-6.37.34-9.49-1.57-9.49-2.75s3.07-3.14,9.49-2.75c7.88.48,6.27.37,6.58.48.46.16-5.05.13-4.77.2.36.09,5.35.19,6.02.29.42.07-1.73.13-.87.2,1.18.1,4.99.2,5.18.3s-2.37.43-3.3.55,2.5.02,1.29.15c-1.86.19-6.29.38-6.29.58Z"/>
        <path class="cls-5" d="m301.53,46.19c0,.1,14.01.2,14.44.29.51.11-12.55.22-12.62.32-.09.14,5.6.27,5.28.4-.36.14-12.74.26-14.01.36-1.17.1,9.1.18,8.78.25-.57.12-1.74.04-5.72.18-6.37.22-9.49-1.03-9.49-1.8s3.07-2.06,9.49-1.8c7.88.32,6.27.24,6.58.31.46.11-5.05.08-4.77.13.36.06,5.35.12,6.02.19.42.04-1.73.09-.87.13,1.18.06,4.99.13,5.18.2s-2.37.29-3.3.36,2.5.01,1.29.1c-1.86.12-6.29.25-6.29.38Z"/>
        <path class="cls-5" d="m231.71,53.12c0-.13,12.28-.26,12.66-.39.45-.15-11-.29-11.06-.43-.08-.19,4.91-.36,4.63-.53-.32-.18-11.16-.34-12.28-.49-1.02-.13,7.98-.24,7.69-.33-.5-.16-1.53-.06-5.01-.24-5.58-.3-8.32,1.37-8.32,2.41s2.69,2.75,8.32,2.41c6.91-.42,5.49-.32,5.77-.42.4-.14-4.43-.11-4.18-.17.31-.08,4.69-.16,5.28-.26.37-.06-1.52-.12-.76-.18,1.03-.08,4.38-.17,4.54-.26s-2.07-.38-2.89-.48,2.19-.02,1.13-.13c-1.63-.16-5.51-.33-5.51-.51Z"/>
      </g>
      <g class="cls-4">
        <rect class="cls-6" x="23.54" y="18.81" width="232.68" height="107.81"/>
      </g>
      <g class="cls-8">
        <rect class="cls-9" x="43.06" y="93.27" width="188.45" height="39"/>
      </g>
    </g>
  </g>
</svg>