<?xml version="1.0" encoding="utf-8"?>
<!-- Generator: Adobe Illustrator 27.2.0, SVG Export Plug-In . SVG Version: 6.00 Build 0)  -->
<svg version="1.1" id="Calque_2_00000026867040296792733970000009487981781915126691_"
	 xmlns="http://www.w3.org/2000/svg" xmlns:xlink="http://www.w3.org/1999/xlink" x="0px" y="0px" viewBox="0 0 319.7 146.3"
	 style="enable-background:new 0 0 319.7 146.3;" xml:space="preserve">
<style type="text/css">
	.st0{fill:#222221;}
	.st1{font-family:'SubwayNewYorkStd';}
	.st2{font-size:50px;}
	.st3{letter-spacing:-1;}
	.st4{clip-path:url(#SVGID_00000130645513362673819130000008341394120660168120_);}
	.st5{fill:#213377;}
	.st6{clip-path:url(#SVGID_00000080895563333045272210000017694428094037384340_);}
	.st7{fill:url(#SVGID_00000152965286453448854250000004336980296007251882_);}
	
		.st8{clip-path:url(#SVGID_00000089574341297908991950000015251453052368674226_);fill:url(#SVGID_00000151543718819375095480000004292870605387408549_);}
</style>
<g>
	<g>
		<g>
			<path d="M183,51.3c0,1.9-41.1,1.5-42.7,3.1c-1.9,1.9,16.3,3.7,13.8,5.3c-1.3,0.8-22.9,1.7-27.3,2.4c-1.9,0.3,15,0.6,12.3,0.9
				c-7.9,0.9-24.1,1.7-28.1,2.5c-1.9,0.3-1,3.7-3.6,5.7c-2.3,1.8-6.2,0.1-10.5-1.6c-0.4-0.2-0.2,3.6-0.6,3.4c-0.5-0.2-1.5-4.2-2-4.3
				c-1.1-0.4-2.2,0.7-3.3,0.5c-0.9-0.2-3.2-2.5-2.9-1.5c1.7,5.2,1,9.4,0.4,9.9c-1,0.9-1.2-4.5-3.2-9.5c-1-2.5-2,3.7-4.5,5.1
				c-1,0.6-3-3.2-3.6-3.2c-1.8,0-0.8,13.3,0.1,16.8c0.7,2.7-1.3,4.1-2.5,4.1c-1.2,0-3.3-1.5-2.7-4.2c1.4-6.3,2.3-18.1,0.1-19.1
				c-1.4-0.6-3.9,10-5.5,10s-1.8-8-3.3-8.1c-1-0.1-3.3,6.5-4.3,6.4c-1.8-0.2-2.3-6.9-4.1-7.1c-1-0.1-3-1.6-3.1-0.4
				c-0.6,12-2.4-1.1-3.2-0.4c-4.7,3.7-3,29.2-2,34.2c0.5,2.8-1.1,5-4,5s-4.4-2.9-3.7-7.5c1.1-7.1,3.1-28.3-1.6-33.9
				c-0.9-1-1.8,5.5-3.1,5.2c-1.2-0.3-3-6.7-4.1-7.1c-2-0.6-2.8,11.2-4.6,10.5c-1.1-0.4-2.7-10.9-3.7-11.3c-0.8-0.3-2.8,1.7-3.6,1.3
				c-1.1-0.5-4.4,5.5-5.4,4.9c-0.7-0.4,1.6-12,1-12.4c-0.8-0.5-9.7,6.3-10.4,5.8c-1.1-0.8,6.1-9.1,5.3-10c-1.2-1.3-4.9-0.4-5.4-1.8
				c-0.4-1,6.9-3.1,2.2-5.4c-0.8-0.4,0.2-1.9,0.5-2.8c0.3-0.8-3-4.5-2.5-5.2c0.6-0.9,6,1.7,6.8,0.8c0.6-0.6,1.3-0.8,1-2.3
				c-0.2-1.1-1.1-3.7-0.2-4.3s5.8,0.7,6.9,0.1s-6.3-9.6-5.1-10.2c0.8-0.4,8.4,9.3,9.2,8.9s3.5-0.7,4.5-1c0.7-0.3-1.1-5.5-0.3-5.7
				c0.8-0.3,4.5,5,5.3,4.7c1.1-0.3-12-17.5,1.2-7.1c1.4,1.1,2.3,4.8,3.6,2.4c0.5-1,2.3,1.4,3.3,1.2c1.2-0.2,2.1-4.8,3.3-5
				c0.9-0.2,2.3,5.7,3.3,5.5c0.7-0.1-0.3-5.3,0.4-5.4c0.8-0.1,3,3,3.7,2.9c1-0.1,1.7-10.8,2.8-10.9c1.1-0.1,2.6,10.3,3.7,10.2
				c0.6-0.1,1.2-0.1,1.9-0.2c1.7-0.1,4.1-5.2,5.8-5.3c1.1-0.1,0.8,5.6,1.9,5.6c1.9-0.1,4.8-5.3,6.8-5.4c1.3,0,3.4,2.5,4.8,2.5
				c1.2,0,1.3,1.9,2.6,2c1.2,0.1,0.6-8.1,1.9-8c0.4,0.1-0.8,9.7,0.9,10.2c2.1,0.6,7.3-7.8,7.8-7.7c1,0.2-2.9,8-1.9,8.2
				c1.2,0.2,3.4-1,4.6-0.7c0.8,0.2,3.1-6.6,5-11.5c1.1-2.7,1.3-9.5,3.9-8.6c2.8,0.9-1.3,5.6-1.7,7.6c-0.8,4.8-2.7,12.6-1.9,12.8
				c0.6,0.1,1.5-0.9,2.1-0.8c0.9,0.2,4.9-9.8,5.8-9.5c0.8,0.2,4.8-2.7,5.6-2.5c0.4,0.1-3.8,16.5-1.2,14.2s5.7-7.3,6.1-7.2
				c1.1,0.3-4.7,7.9-3.6,8.3c0.9,0.3,7.3-4,8.2-3.8c1.3,0.4-6.1,9.9-4.8,10.3c0.9,0.3,11.3-1.8,12.2-1.4c1.8,0.6-3.8,1.6-2.2,2.2
				c2.6,1,5.1,2,7.3,3s-3.9,1.8-1.8,2.6c6.3,2.6,20.9,0.7,23.9,3.1c2.4,1.9-25.9,1.4-23.6,3.1C138.2,49.3,183,48,183,51.3L183,51.3z
				"/>
			<path d="M223.9,36c0,0.5-10.6,0.9-11,1.3c-0.2,0.3,10.6,0.6,10.4,0.9c-0.4,0.5-14.4,1-15.4,1.4c-0.3,0.1,3.6,0.2,3.3,0.3
				c-0.4,0.2-6.9,0.4-7.3,0.6c-0.7,0.3,2.4,0.5,2.1,0.7c-0.4,0.3-9.1,1.3-13.2,1.3c-14.9,0-23-3.9-23-6.5c0-2.4,6-6.5,20.9-6.5
				c1.2,0,9.3,0.1,13.6,0.6c0.9,0.1-7.8,0.4-6.6,0.6c1.3,0.2,19.2,0.5,20.1,0.8c0.8,0.3-6.5,0.6-5.6,0.9c1.1,0.4,11.3,0.8,12.1,1.2
				c0.6,0.3-19.1,0.7-18.8,1.1C205.8,35.1,223.9,35.5,223.9,36L223.9,36z"/>
			<path d="M285.5,56.8c0-0.3-6.2-0.5-6.4-0.8c-0.1-0.2,6.2-0.3,6-0.5c-0.3-0.3-8.4-0.5-8.9-0.8c-0.2-0.1,2.1-0.1,1.9-0.2
				c-0.2-0.1-4-0.2-4.3-0.3c-0.4-0.2,1.4-0.3,1.2-0.4c-0.2-0.2-5.3-0.7-7.7-0.7c-8.7,0-13.4,2.3-13.4,3.8c0,1.4,3.5,3.8,12.2,3.8
				c0.7,0,5.4,0,7.9-0.3c0.5-0.1-4.6-0.2-3.9-0.3c0.8-0.1,11.2-0.3,11.7-0.5c0.4-0.2-3.8-0.3-3.3-0.5c0.6-0.2,6.6-0.5,7-0.7
				c0.3-0.2-11.1-0.4-10.9-0.6C274.9,57.3,285.5,57.1,285.5,56.8L285.5,56.8z"/>
			<path d="M244.2,77.9c0,0.4-12.9,0.8-13.4,1.1c-0.4,0.3,3,0.6,2.6,0.9c-0.5,0.4-9.3,0.8-10.1,1.2c-0.8,0.4,13.9,0.7,13.5,1
				c-0.4,0.2-14,0.5-15.5,0.7s5.4,0.4,4.2,0.6c-2.9,0.4-8.4,1.3-12.3,1.3c-14,0-25.3-2.7-25.3-6.1s11.3-6.2,25.3-6.1
				c9.2,0.1,13.1,0,16.8,0.7c0.4,0.1-8.9,0.5-10.1,0.8c-1.1,0.3,13.6,0.6,13.7,0.9c0.1,0.5-5.2,1-4.7,1.4
				C229.5,76.8,244.2,77.3,244.2,77.9L244.2,77.9z"/>
			<path d="M274.8,75.3c0,0.1-4.3,0.2-4.5,0.3c-0.1,0.1,1,0.2,0.9,0.2c-0.2,0.1-3.1,0.2-3.4,0.3s4.6,0.2,4.5,0.2
				c-0.1,0.1-4.7,0.1-5.2,0.2s1.8,0.1,1.4,0.1c-1,0.1-3.8,0.3-5.1,0.3c-0.9,0-4.8-0.7-4.8-1.5s3.6-1.5,4.8-1.5c3.1,0,5.4,0,6.6,0.2
				c0.1,0-3,0.1-3.4,0.2c-0.4,0.1,4.6,0.1,4.6,0.2c0,0.1-1.7,0.2-1.6,0.4C269.8,75,274.8,75.2,274.8,75.3L274.8,75.3z"/>
			<path d="M168.6,74.1c0,0.1-6.4,0.3-6.5,0.5c-0.1,0.1,6,0.2,5.7,0.3c-0.2,0.1-7.4,0.3-7.6,0.4c-0.1,0,6.5,0.1,6.4,0.1
				c-0.1,0-6.8,0.1-6.9,0.1c-0.1,0.1,3.9,0.3,3.8,0.3c-0.1,0-9.8,0.3-9.8-1.8c0-1.1,4.1-2.3,9.2-2c0.6,0-0.9,0.1-0.5,0.2
				c0.2,0,0.3,0.1,0.6,0.1c3.3,0.3,4.4,0.2,4.6,0.4c0,0.1-6.3,0.1-6.7,0.2c-0.8,0.1,10.6,0.2,11,0.4s-3.3,0-2.9,0.4
				c0.2,0.2-7.6,0.3-7,0.4C162.4,74.1,168.6,74.1,168.6,74.1L168.6,74.1z"/>
			<path d="M268.9,35.3c0,0.1-6.4,0.3-6.5,0.5c-0.1,0.1,6,0.2,5.7,0.3c-0.2,0.1-7.4,0.3-7.6,0.4c-0.1,0,6.5,0,6.4,0.1
				c-0.1,0-6.8,0.1-6.9,0.1c-0.1,0.1,3.9,0.3,3.8,0.3c-0.1,0-9.8,0.3-9.8-1.8c0-1.1,4.1-2.3,9.2-2c0.6,0-0.9,0.1-0.5,0.2
				c0.2,0,0.3,0,0.5,0.1c3.3,0.3,4.4,0.2,4.6,0.4c0,0.1-6.3,0.1-6.7,0.2c-0.8,0.1,10.6,0.2,11,0.4s-3.3,0-2.9,0.4
				c0.2,0.2-7.6,0.3-7,0.4C262.7,35.3,268.9,35.2,268.9,35.3L268.9,35.3z"/>
			<path d="M138.4,16.7c0,0.2-5.9,0.3-6,0.5c-0.2,0.4,5.5,0.7,5.4,1c0,0.1-7.6,0.2-7.9,0.3c-0.6,0.2,3.9,0.4,3.4,0.5
				c-0.6,0.1-3.9,0.1-6.9,0.2s-5.4-1.1-5.4-2.5s2.4-2.8,5.4-2.5c3.3,0.4,6.1,0.3,6.9,0.5c0.3,0.1-3.9,0-3.4,0.1s6.2,0.2,6.2,0.3
				c0,0.1-2.2,0.1-2.6,0.2c-0.5,0.1,5.7,0.2,5.6,0.3c-0.2,0.2-6.3,0.4-6.2,0.6C133,16.3,138.4,16.5,138.4,16.7L138.4,16.7z"/>
			<path d="M121.1,86.2c0,0.2,14,0.3,14.4,0.4c0.5,0.2-12.6,0.3-12.6,0.5c-0.1,0.2,5.6,0.4,5.3,0.6c-0.4,0.2-12.7,0.4-14,0.6
				c-1.2,0.2,9.1,0.3,8.8,0.4c-0.6,0.2-1.7,0.1-5.7,0.3c-6.4,0.3-9.5-1.6-9.5-2.8s3.1-3.1,9.5-2.8c7.9,0.5,6.3,0.4,6.6,0.5
				c0.5,0.2-5.1,0.1-4.8,0.2c0.4,0.1,5.3,0.2,6,0.3c0.4,0.1-1.7,0.1-0.9,0.2c1.2,0.1,5,0.2,5.2,0.3s-2.4,0.4-3.3,0.6s2.5,0,1.3,0.2
				C125.5,85.8,121.1,86,121.1,86.2L121.1,86.2z"/>
			<path d="M305.2,49.8c0,0.1,14,0.2,14.4,0.3c0.5,0.1-12.5,0.2-12.6,0.3c-0.1,0.1,5.6,0.3,5.3,0.4c-0.4,0.1-12.7,0.3-14,0.4
				c-1.2,0.1,9.1,0.2,8.8,0.2c-0.6,0.1-1.7,0-5.7,0.2c-6.4,0.2-9.5-1-9.5-1.8s3.1-2.1,9.5-1.8c7.9,0.3,6.3,0.2,6.6,0.3
				c0.5,0.1-5,0.1-4.8,0.1c0.4,0.1,5.4,0.1,6,0.2c0.4,0-1.7,0.1-0.9,0.1c1.2,0.1,5,0.1,5.2,0.2s-2.4,0.3-3.3,0.4s2.5,0,1.3,0.1
				C309.6,49.6,305.2,49.7,305.2,49.8L305.2,49.8z"/>
			<path d="M235.4,56.8c0-0.1,12.3-0.3,12.7-0.4c0.4-0.2-11-0.3-11.1-0.4c-0.1-0.2,4.9-0.4,4.6-0.5c-0.3-0.2-11.2-0.3-12.3-0.5
				c-1-0.1,8-0.2,7.7-0.3c-0.5-0.2-1.5-0.1-5-0.2c-5.6-0.3-8.3,1.4-8.3,2.4s2.7,2.8,8.3,2.4c6.9-0.4,5.5-0.3,5.8-0.4
				c0.4-0.1-4.4-0.1-4.2-0.2c0.3-0.1,4.7-0.2,5.3-0.3c0.4-0.1-1.5-0.1-0.8-0.2c1-0.1,4.4-0.2,4.5-0.3s-2.1-0.4-2.9-0.5
				s2.2,0,1.1-0.1C239.3,57.1,235.4,57,235.4,56.8L235.4,56.8z"/>
		</g>
		<text transform="matrix(1 0 0 1 27.95 58.56)" class="st0 st1 st2">S†re</text>
		<text transform="matrix(1 0 0 1 118.75 58.56)" class="st0 st1 st2 st3">e</text>
		<text transform="matrix(1 0 0 1 135.55 58.56)" class="st0 st1 st2">t J@m</text>
		<text transform="matrix(1 0 0 1 53.73 118.56)" class="st0 st1 st2">Fest¡val !!!</text>
		<g>
			<path d="M50.6,132.2c0.9-0.5,9.8,0.6,13.1,0.6h135c18.4,0,32.9-1.8,35-1.1s2,3.4,0,3.9s-18.3-1.1-28.1-1.1h-142
				c-3.3,0-12.2,1.1-13,0.5S49.7,132.7,50.6,132.2z"/>
			<g>
				<defs>
					<path id="SVGID_1_" d="M50.6,132.2c0.9-0.5,9.8,0.6,13.1,0.6h135c18.4,0,32.9-1.8,35-1.1s2,3.4,0,3.9s-18.3-1.1-28.1-1.1h-142
						c-3.3,0-12.2,1.1-13,0.5S49.7,132.7,50.6,132.2z"/>
				</defs>
				<clipPath id="SVGID_00000023966101638353584630000004913868559150237831_">
					<use xlink:href="#SVGID_1_"  style="overflow:visible;"/>
				</clipPath>
				<g style="clip-path:url(#SVGID_00000023966101638353584630000004913868559150237831_);">
					<rect x="46.8" y="96.9" width="188.4" height="39"/>
				</g>
			</g>
		</g>
	</g>
	<g>
		<path class="st5" d="M181.2,47.6c0,1.9-41.1,1.5-42.7,3.1c-1.9,1.9,16.3,3.7,13.8,5.3c-1.3,0.8-22.9,1.7-27.3,2.4
			c-1.9,0.3,15,0.6,12.3,0.9c-7.9,0.9-24.1,1.7-28.1,2.5c-1.9,0.3-1,3.7-3.6,5.7c-2.3,1.8-6.2,0.1-10.5-1.6
			c-0.4-0.2-0.2,3.6-0.6,3.4c-0.5-0.2-1.5-4.2-2-4.3c-1.1-0.4-2.2,0.7-3.3,0.5c-0.9-0.2-3.2-2.5-2.9-1.5c1.7,5.2,1,9.4,0.4,9.9
			c-1,0.9-1.2-4.5-3.2-9.5c-1-2.5-2,3.7-4.5,5.1c-1,0.6-3-3.2-3.6-3.2c-1.8,0-0.8,13.3,0.1,16.8c0.7,2.7-1.3,4.1-2.5,4.1
			c-1.2,0-3.3-1.5-2.7-4.2c1.4-6.3,2.3-18.1,0.1-19.1c-1.4-0.6-3.9,10-5.5,10s-1.8-8-3.3-8.1c-1-0.1-3.3,6.5-4.3,6.4
			c-1.8-0.2-2.3-6.9-4.1-7.1c-1-0.1-3-1.6-3.1-0.4c-0.6,12-2.4-1.1-3.2-0.4c-4.7,3.7-3,29.2-2,34.2c0.5,2.8-1.1,5-4,5
			s-4.4-2.9-3.7-7.5c1.1-7.1,3.1-28.3-1.6-33.9c-0.9-1-1.8,5.5-3.1,5.2c-1.1-0.3-3-6.7-4.1-7.1c-2-0.6-2.8,11.2-4.6,10.5
			c-1.1-0.4-2.7-10.9-3.7-11.3c-0.8-0.3-2.8,1.7-3.6,1.3c-1.1-0.5-4.4,5.5-5.4,4.9c-0.7-0.4,1.6-12,1-12.4C11.6,53.1,2.7,60,2,59.4
			c-1.1-0.8,6.1-9.1,5.3-10c-1.2-1.3-4.9-0.4-5.4-1.8c-0.4-1,6.9-3.1,2.2-5.4c-0.8-0.4,0.2-1.9,0.5-2.8c0.3-0.8-3-4.5-2.5-5.2
			C2.6,33.3,8,35.9,8.8,35c0.6-0.6,1.3-0.8,1-2.3c-0.2-1.1-1.1-3.7-0.2-4.3s5.8,0.7,6.9,0.1c1.1-0.6-6.3-9.6-5.1-10.2
			c0.8-0.4,8.4,9.3,9.2,8.9s3.5-0.7,4.5-1c0.7-0.3-1.1-5.5-0.3-5.7c0.8-0.3,4.5,4.9,5.3,4.7c1.1-0.3-11.9-17.5,1.1-7.1
			c1.4,1.1,2.3,4.8,3.6,2.4c0.5-1,2.3,1.4,3.3,1.2c1.2-0.2,2.1-4.8,3.3-5c0.9-0.2,2.3,5.7,3.3,5.5c0.7-0.1-0.3-5.3,0.4-5.4
			c0.8-0.1,3,3,3.7,2.9c1-0.1,1.7-10.8,2.8-10.9C53,8.7,54.4,19.1,55.6,19c0.6-0.1,1.2-0.1,1.9-0.2c1.7-0.1,4.1-5.2,5.8-5.3
			c1.1-0.1,0.8,5.6,1.9,5.6c1.9-0.1,4.8-5.3,6.8-5.4c1.3,0,3.4,2.5,4.8,2.5c1.2,0,1.3,1.9,2.6,2c1.2,0.1,0.6-8.1,1.9-8
			c0.4,0.1-0.8,9.7,0.9,10.2c2.1,0.6,7.3-7.8,7.8-7.7c1,0.2-2.9,8-1.9,8.2c1.2,0.2,3.4-1,4.6-0.7c0.8,0.2,3.1-6.6,5-11.5
			c1.1-2.7,1.3-9.5,3.9-8.6c2.8,0.9-1.3,5.6-1.7,7.6c-0.8,4.8-2.7,12.6-1.9,12.8c0.6,0.1,1.5-0.9,2.1-0.8c0.9,0.2,4.9-9.8,5.8-9.5
			c0.8,0.2,4.8-2.7,5.6-2.5c0.4,0.1-3.8,16.5-1.2,14.2s5.7-7.3,6.1-7.2c1.1,0.3-4.7,7.9-3.6,8.3c0.9,0.3,7.3-4,8.2-3.8
			c1.3,0.4-6.1,9.9-4.8,10.3c0.9,0.3,11.3-1.8,12.2-1.4c1.8,0.6-3.8,1.6-2.2,2.2c2.6,1,5.1,2,7.3,3s-3.9,1.8-1.8,2.6
			c6.3,2.6,20.9,0.7,23.9,3.1c2.4,1.9-25.9,1.4-23.6,3.1C136.4,45.7,181.2,44.3,181.2,47.6L181.2,47.6z"/>
		<path class="st5" d="M222.1,32.3c0,0.5-10.6,0.9-11,1.3c-0.2,0.3,10.6,0.6,10.4,0.9c-0.4,0.5-14.4,1-15.4,1.4
			c-0.3,0.1,3.6,0.2,3.3,0.3c-0.4,0.2-6.9,0.4-7.3,0.6c-0.7,0.3,2.4,0.5,2.1,0.7c-0.4,0.3-9.1,1.3-13.2,1.3c-14.9,0-23-3.9-23-6.5
			c0-2.4,6-6.5,20.9-6.5c1.2,0,9.3,0.1,13.6,0.6c0.9,0.1-7.8,0.4-6.6,0.6c1.3,0.2,19.2,0.5,20.1,0.8c0.8,0.3-6.5,0.6-5.6,0.9
			c1.1,0.4,11.3,0.8,12.1,1.2c0.6,0.4-19.1,0.7-18.8,1.1C204,31.4,222.1,31.9,222.1,32.3L222.1,32.3z"/>
		<path class="st5" d="M283.6,53.1c0-0.3-6.2-0.5-6.4-0.8c-0.1-0.2,6.2-0.3,6-0.5c-0.3-0.3-8.4-0.5-8.9-0.8
			c-0.2-0.1,2.1-0.1,1.9-0.2c-0.2-0.1-4-0.2-4.3-0.3c-0.4-0.2,1.4-0.3,1.2-0.4c-0.2-0.2-5.3-0.7-7.7-0.7c-8.7,0-13.4,2.3-13.4,3.8
			c0,1.4,3.5,3.8,12.2,3.8c0.7,0,5.4,0,7.9-0.3c0.5-0.1-4.6-0.2-3.9-0.3c0.8-0.1,11.2-0.3,11.7-0.5c0.4-0.2-3.8-0.3-3.3-0.5
			c0.6-0.2,6.6-0.5,7-0.7c0.3-0.2-11.1-0.4-10.9-0.6C273.1,53.6,283.6,53.4,283.6,53.1L283.6,53.1z"/>
		<path class="st5" d="M242.3,74.2c0,0.4-12.9,0.8-13.4,1.1c-0.4,0.3,3,0.6,2.6,0.9c-0.5,0.4-9.3,0.8-10.1,1.2
			c-0.8,0.4,13.9,0.7,13.5,1c-0.4,0.2-14,0.5-15.5,0.7s5.4,0.4,4.2,0.6c-2.9,0.4-8.4,1.3-12.3,1.3c-14,0-25.3-2.7-25.3-6.1
			s11.3-6.2,25.3-6.1c9.2,0.1,13.1,0,16.8,0.7c0.4,0.1-8.9,0.5-10.1,0.8c-1.1,0.3,13.6,0.6,13.7,0.9c0.1,0.5-5.2,1-4.7,1.4
			C227.6,73.1,242.3,73.6,242.3,74.2L242.3,74.2z"/>
		<path class="st5" d="M272.9,71.6c0,0.1-4.3,0.2-4.5,0.3c-0.1,0.1,1,0.2,0.9,0.2c-0.2,0.1-3.1,0.2-3.4,0.3s4.6,0.2,4.5,0.2
			c-0.1,0.1-4.7,0.1-5.2,0.2s1.8,0.1,1.4,0.1c-1,0.1-3.8,0.3-5.1,0.3c-0.9,0-4.8-0.7-4.8-1.5s3.6-1.5,4.8-1.5c3.1,0,5.4,0,6.6,0.2
			c0.1,0-3,0.1-3.4,0.2c-0.4,0.1,4.6,0.1,4.6,0.2c0,0.1-1.7,0.2-1.6,0.4C268,71.3,272.9,71.5,272.9,71.6L272.9,71.6z"/>
		<path class="st5" d="M166.7,70.4c0,0.1-6.4,0.3-6.5,0.5c-0.1,0.1,6,0.2,5.7,0.3c-0.2,0.1-7.4,0.3-7.6,0.4c-0.1,0,6.5,0.1,6.4,0.1
			c-0.1,0-6.8,0.1-6.9,0.1c-0.1,0.1,3.9,0.3,3.8,0.3c-0.1,0-9.8,0.3-9.8-1.8c0-1.1,4.1-2.3,9.2-2c0.6,0-0.9,0.1-0.5,0.2
			c0.2,0,0.3,0.1,0.6,0.1c3.3,0.3,4.4,0.2,4.6,0.4c0,0.1-6.3,0.1-6.7,0.2c-0.8,0.1,10.6,0.2,11,0.4s-3.3,0-2.9,0.4
			c0.2,0.2-7.6,0.3-7,0.4C160.5,70.4,166.7,70.4,166.7,70.4L166.7,70.4z"/>
		<path class="st5" d="M267,31.6c0,0.1-6.4,0.3-6.5,0.5c-0.1,0.1,6,0.2,5.7,0.3c-0.2,0.1-7.4,0.3-7.6,0.4c-0.1,0,6.5,0,6.4,0.1
			c-0.1,0-6.8,0.1-6.9,0.1c-0.1,0.1,3.9,0.3,3.8,0.3c-0.1,0-9.8,0.3-9.8-1.8c0-1.1,4.1-2.4,9.2-2c0.6,0-0.9,0.1-0.5,0.2
			c0.2,0,0.3,0,0.5,0.1c3.3,0.3,4.4,0.2,4.6,0.4c0,0.1-6.3,0.1-6.7,0.2c-0.8,0.1,10.6,0.2,11,0.4s-3.3,0-2.9,0.4
			c0.2,0.2-7.6,0.3-7,0.4C260.8,31.6,267,31.6,267,31.6L267,31.6z"/>
		<path class="st5" d="M136.6,13c0,0.2-5.9,0.3-6,0.5c-0.2,0.4,5.5,0.7,5.4,0.9c0,0.1-7.6,0.2-7.9,0.3c-0.6,0.2,3.9,0.4,3.4,0.5
			c-0.6,0.1-3.9,0.1-6.9,0.2s-5.4-1.1-5.4-2.5s2.4-2.8,5.4-2.5c3.3,0.4,6.1,0.3,6.9,0.5c0.3,0.1-3.9,0-3.4,0.1s6.2,0.2,6.2,0.3
			c0,0.1-2.2,0.1-2.6,0.2c-0.5,0.1,5.7,0.2,5.6,0.3c-0.2,0.2-6.3,0.4-6.2,0.6C131.2,12.7,136.6,12.8,136.6,13L136.6,13z"/>
		<path class="st5" d="M119.3,82.6c0,0.2,14,0.3,14.4,0.4c0.5,0.2-12.6,0.3-12.6,0.5c-0.1,0.2,5.6,0.4,5.3,0.6
			c-0.4,0.2-12.7,0.4-14,0.6c-1.2,0.2,9.1,0.3,8.8,0.4c-0.6,0.2-1.7,0.1-5.7,0.3c-6.4,0.3-9.5-1.6-9.5-2.8s3.1-3.1,9.5-2.8
			c7.9,0.5,6.3,0.4,6.6,0.5c0.5,0.2-5.1,0.1-4.8,0.2c0.4,0.1,5.3,0.2,6,0.3c0.4,0.1-1.7,0.1-0.9,0.2c1.2,0.1,5,0.2,5.2,0.3
			s-2.4,0.4-3.3,0.6s2.5,0,1.3,0.2C123.7,82.2,119.2,82.3,119.3,82.6L119.3,82.6z"/>
		<path class="st5" d="M303.4,46.2c0,0.1,14,0.2,14.4,0.3c0.5,0.1-12.5,0.2-12.6,0.3c-0.1,0.1,5.6,0.3,5.3,0.4
			c-0.4,0.1-12.7,0.3-14,0.4c-1.2,0.1,9.1,0.2,8.8,0.2c-0.6,0.1-1.7,0-5.7,0.2c-6.4,0.2-9.5-1-9.5-1.8s3.1-2.1,9.5-1.8
			c7.9,0.3,6.3,0.2,6.6,0.3c0.5,0.1-5,0.1-4.8,0.1c0.4,0.1,5.4,0.1,6,0.2c0.4,0-1.7,0.1-0.9,0.1c1.2,0.1,5,0.1,5.2,0.2
			s-2.4,0.3-3.3,0.4s2.5,0,1.3,0.1C307.8,45.9,303.4,46.1,303.4,46.2L303.4,46.2z"/>
		<path class="st5" d="M233.5,53.1c0-0.1,12.3-0.3,12.7-0.4c0.4-0.2-11-0.3-11.1-0.4c-0.1-0.2,4.9-0.4,4.6-0.5
			c-0.3-0.2-11.2-0.3-12.3-0.5c-1-0.1,8-0.2,7.7-0.3c-0.5-0.2-1.5-0.1-5-0.2c-5.6-0.3-8.3,1.4-8.3,2.4s2.7,2.8,8.3,2.4
			c6.9-0.4,5.5-0.3,5.8-0.4c0.4-0.1-4.4-0.1-4.2-0.2c0.3-0.1,4.7-0.2,5.3-0.3c0.4-0.1-1.5-0.1-0.8-0.2c1-0.1,4.4-0.2,4.5-0.3
			s-2.1-0.4-2.9-0.5s2.2,0,1.1-0.1C237.4,53.5,233.6,53.3,233.5,53.1L233.5,53.1z"/>
	</g>
	<g>
		<defs>
			<path id="SVGID_00000141444892626601215000000002151502764388819867_" d="M48.8,128.6c0.9-0.5,9.8,0.6,13.1,0.6h135
				c18.4,0,32.9-1.8,35-1.1s2,3.4,0,3.9s-18.3-1.1-28.1-1.1H61.7c-3.3,0-12.2,1.1-13,0.5S47.8,129.1,48.8,128.6z"/>
		</defs>
		<clipPath id="SVGID_00000074404918447596170190000004194704245426722456_">
			<use xlink:href="#SVGID_00000141444892626601215000000002151502764388819867_"  style="overflow:visible;"/>
		</clipPath>
		<g style="clip-path:url(#SVGID_00000074404918447596170190000004194704245426722456_);">
			
				<linearGradient id="SVGID_00000070817551244452009540000015509485161731594169_" gradientUnits="userSpaceOnUse" x1="90.5851" y1="92.3454" x2="187.6548" y2="-23.3342" gradientTransform="matrix(1 0 0 -1 0 147.2756)">
				<stop  offset="0" style="stop-color:#A2C2D1"/>
				<stop  offset="0.13" style="stop-color:#71A0AB"/>
				<stop  offset="1" style="stop-color:#D600F5"/>
			</linearGradient>
			
				<rect x="44.9" y="93.3" style="fill:url(#SVGID_00000070817551244452009540000015509485161731594169_);" width="188.4" height="39"/>
		</g>
	</g>
	<g>
		<defs>
			<path id="SVGID_00000099620983229247201190000009012315058504580752_" d="M36,64.3c-0.9,0-1.9-0.1-3-0.2
				c-1.1-0.1-2.2-0.4-3.2-0.8c-1-0.4-1.9-1-2.6-1.7c-0.7-0.7-1.1-1.7-1.1-3c0-1.4,0.4-2.6,1.2-3.8c0.8-1.2,1.8-2.2,3-3.2
				c1.2-1,2.7-1.8,4.2-2.5c1.6-0.7,3.2-1.3,4.9-1.8c1.6-0.5,3.2-0.8,4.8-1.1s2.9-0.4,4.1-0.4c1.2,0,2.1,0,2.7,0.1
				c0.6,0.1,1,0.3,1.1,0.6L49.3,50c-0.6-0.2-1.5-0.3-2.9-0.5c-1.4-0.2-2.9-0.3-4.8-0.3c-1.1,0-2.2,0.2-3.4,0.5
				C37,49.9,35.9,50.4,35,51c-1,0.6-1.8,1.4-2.4,2.4c-0.6,0.9-0.9,2.1-0.9,3.3c0,0.7,0.1,1.4,0.3,2c0.2,0.6,0.6,1.1,1.1,1.5
				c0.5,0.4,1.2,0.7,2.1,0.9c0.9,0.2,2,0.3,3.4,0.3c1.2,0,2.6-0.2,4.1-0.5c1.5-0.3,3.1-0.8,4.7-1.4c1.6-0.7,3.2-1.5,4.7-2.5
				c1.5-1,2.9-2.1,4.1-3.5c1.2-1.3,2.2-2.8,2.9-4.5c0.7-1.7,1.1-3.5,1.1-5.6c0-2.6-0.5-4.5-1.4-5.6c-1-1.1-2.2-1.7-3.6-1.7
				c-1.5,0-3,0.2-4.4,0.6c-1.4,0.4-2.7,1-4,1.6c-1.3,0.7-2.5,1.4-3.8,2.2c-1.2,0.8-2.5,1.5-3.8,2.1c-1.3,0.7-2.6,1.2-4,1.6
				c-1.4,0.4-2.8,0.6-4.4,0.6c-0.6,0-1.2-0.1-1.8-0.3c-0.6-0.2-1.2-0.5-1.7-0.9c-0.5-0.4-0.9-0.9-1.2-1.6c-0.3-0.6-0.5-1.5-0.5-2.4
				c0-1.1,0.3-2.1,0.9-3.1c0.6-1,1.3-2,2.1-2.9c0.9-0.9,1.8-1.7,2.8-2.5c1-0.7,1.9-1.4,2.8-1.9c0.9-0.5,1.6-0.9,2.2-1.2
				c0.6-0.3,0.9-0.4,0.9-0.4c0,0-0.2-0.1-0.5-0.3c-0.3-0.2-0.7-0.4-1.1-0.6c-0.4-0.2-0.8-0.4-1.2-0.6c-0.4-0.2-0.7-0.4-0.9-0.5
				c-0.3-0.2-0.8-0.5-1.5-0.8c-0.7-0.3-1.3-0.7-2-1.1c-0.7-0.4-1.3-0.8-1.8-1.2c-0.5-0.4-0.8-0.9-0.9-1.4l4.4-1.9
				c0.6,0.4,1.4,1,2.4,1.7c1,0.7,2,1.4,3.1,2.1c1.1,0.7,2.2,1.3,3.4,1.8c1.2,0.5,2.3,0.8,3.3,0.8h9.1c0.2,0,0.5,0.1,0.9,0.2
				c0.4,0.1,0.7,0.3,0.9,0.5c-0.3,0.7-0.8,1.4-1.5,1.9c-0.7,0.5-1.4,0.8-2.1,0.8H40.5c-0.9,0-2,0.2-3.2,0.7
				c-1.2,0.5-2.3,1.1-3.4,1.9c-1,0.8-1.9,1.7-2.6,2.8c-0.7,1.1-1.1,2.3-1.1,3.5c0,0.8,0.1,1.4,0.4,1.9c0.2,0.5,0.6,0.8,1,1.1
				c0.4,0.3,0.8,0.5,1.3,0.5c0.5,0.1,0.9,0.2,1.4,0.2c1.1,0,2.1-0.2,3.1-0.7c1-0.5,1.9-1,2.8-1.4c1.4-0.7,2.8-1.5,4.2-2.3
				c1.4-0.8,2.9-1.6,4.4-2.3c1.5-0.7,3-1.3,4.6-1.8c1.6-0.5,3.2-0.7,4.9-0.7c0.6,0,1.4,0.1,2.1,0.2c0.8,0.2,1.5,0.5,2.2,1
				c0.7,0.5,1.3,1.3,1.7,2.3c0.5,1,0.7,2.3,0.7,4c0,2-0.4,4-1.3,6c-0.9,2-2,3.9-3.5,5.6c-1.5,1.8-3.2,3.4-5.1,5
				c-2,1.5-4,2.8-6.2,3.9c-2.2,1.1-4.4,2-6.6,2.6C40.3,63.9,38.1,64.3,36,64.3z M81.3,35.8c-0.6,0.1-1.4,0.1-2.5,0.1
				c-1.1,0-2.3,0-3.6,0.1c0.2,2.7,0.3,5.5,0.5,8.4c0.2,2.9,0.3,5.8,0.4,8.5c0.1,2.8,0.1,5.3,0.2,7.7c0,2.4,0,4.4-0.2,6l-2.5-0.1
				c-0.1-0.4-0.1-0.8-0.1-1.2c0-0.5,0.1-0.9,0.1-1.3c0.1-0.4,0.1-0.8,0.2-1.2c0.1-0.4,0.1-0.7,0.2-0.9c0.2-3.9,0.2-8,0.1-12.4
				c-0.2-4.4-0.5-8.9-1-13.6c-1.6,0-3,0.1-4.3,0.1c-1.3,0.1-2.1,0.1-2.4,0.2L65,36.1c0-0.1,0-0.1-0.1-0.2c0-0.1,0-0.1,0-0.1
				c0.1-0.3,0.3-0.8,0.5-1.2s0.5-1,0.8-1.4c0.3-0.4,0.6-0.8,0.9-1.1c0.3-0.3,0.6-0.5,0.8-0.5c0.4-0.1,0.9-0.1,1.7-0.1
				c0.8,0,1.7,0.1,2.8,0.1c-0.3-2.6-0.7-5.4-1.2-8.1l1.1-4.2l1.6,0.8c0.1,1,0.1,2.1,0.2,3.3c0.1,1.1,0.2,2.3,0.3,3.7
				c0.1,1.4,0.2,3,0.4,4.7c1,0,2.1,0,3.3,0c1.2,0,2.4-0.1,3.8-0.1c0.4,0,0.8-0.1,1.1-0.1c0.3,0,0.5,0,0.7,0H84l0.1,0.7L81.3,35.8z
				 M90.9,58.1c-0.3-0.6-0.6-1.4-1-2.5S89,53.2,88.6,52c-0.5-1.2-0.9-2.3-1.4-3.4c-0.5-1-0.9-1.8-1.2-2.1c-0.9,0.3-1.7,0.4-2.2,0.4
				c-0.5-0.1-0.9-0.2-1-0.5c-0.1-0.3,0-0.7,0.4-1.2c0.4-0.5,1.1-1.1,2.1-1.8l-0.6-1.2l4-3.2c0.4,0,0.6,0.1,0.9,0.3
				c0.2,0.2,0.4,0.4,0.5,0.7s0.3,0.5,0.5,0.7c0.2,0.2,0.5,0.3,0.8,0.3c0.2,0,0.5-0.1,0.9-0.4c0.4-0.3,0.9-0.6,1.4-1
				c0.5-0.4,1.1-0.8,1.8-1.2c0.6-0.4,1.3-0.8,1.9-1.2c0.6-0.3,1.2-0.6,1.8-0.8c0.6-0.2,1.1-0.2,1.5-0.1l-0.2,0.6
				c-0.3,0.8-0.6,1.5-0.9,2.1c-0.3,0.6-0.5,1.1-0.8,1.6c-0.2,0.5-0.5,0.8-0.7,0.9l-6.4,1.7c0,0.1,0.1,0.2,0.1,0.3c0,0.3,0,0.5,0,0.6
				c0.4,2,1,3.9,1.7,5.5c0.7,1.7,1.4,3.5,2.1,5.4l-0.1,0.4l-4.2,3.2c-0.1,0-0.2,0-0.2-0.1C91.1,58.4,91,58.3,90.9,58.1z M99.9,49.7
				l-4.4,2.1l-0.6-0.6l2.6-2.6c0.1-0.1,0.3-0.3,0.6-0.5c0.2-0.2,0.5-0.4,0.8-0.6c0.2-0.2,0.5-0.4,0.7-0.6c0.2-0.2,0.3-0.4,0.4-0.6
				c0.2-1.5,0.5-2.9,0.9-4.1c0.4-1.3,1-2.6,1.7-4c-0.1-0.1-0.3-0.3-0.5-0.4c-0.2-0.2-0.3-0.4-0.2-0.6V37l4.2-3.6h0.8
				c0.4,0.3,1,0.7,1.7,1.2c0.8,0.4,1.5,0.9,2.3,1.4c0.8,0.5,1.5,1,2.2,1.6c0.6,0.5,1.1,1.1,1.3,1.6c0,0.1,0,0.1,0,0.2v0
				c-0.3,0.2-0.7,0.4-1.2,0.8c-0.6,0.4-1.2,0.8-1.9,1.2c-0.7,0.4-1.4,0.9-2.1,1.4c-0.7,0.5-1.4,0.9-2,1.4c-0.6,0.4-1.1,0.8-1.5,1.1
				c-0.4,0.3-0.6,0.6-0.6,0.7l0,0.4c0.9,1.5,2.1,2.4,3.5,2.9c1.4,0.5,2.9,0.7,4.6,0.7c0.8,0,1.6-0.1,2.2-0.4
				c0.6-0.2,1.3-0.5,1.8-0.9c0.6-0.4,1.2-0.9,1.7-1.4c0.6-0.5,1.2-1.1,1.9-1.6h0.3c0,0,0.1,0.1,0.2,0.2c0.1,0.1,0.2,0.3,0.3,0.4
				c0.1,0.2,0.2,0.3,0.3,0.5c0.1,0.2,0.1,0.3,0.1,0.3c0,0.2-0.1,0.4-0.3,0.6c-0.2,0.2-0.4,0.5-0.6,0.6c-0.2,0.2-0.4,0.4-0.6,0.5
				c-0.2,0.1-0.3,0.2-0.4,0.3c-1,0.8-1.9,1.5-2.9,2.1c-1,0.6-2,1.2-3,1.7c-1,0.5-2,0.8-3.1,1.1c-1.1,0.3-2.2,0.4-3.5,0.4
				c-1.7,0-3.2-0.4-4.5-1.3c-1.3-0.9-2.2-2.1-2.8-3.6H99.9z M104.7,38.7c-0.1,0.8-0.2,1.6-0.3,2.4c-0.1,0.8-0.2,1.6,0,2.3
				c0.6-0.2,1.3-0.6,2-1.1c0.7-0.5,1.3-1,1.8-1.6c-0.4-0.4-0.9-0.9-1.5-1.4C106,38.9,105.4,38.7,104.7,38.7z M117.9,49.7l-4.4,2.1
				l-0.6-0.6l2.6-2.6c0.1-0.1,0.3-0.3,0.6-0.5c0.2-0.2,0.5-0.4,0.8-0.6c0.2-0.2,0.5-0.4,0.7-0.6c0.2-0.2,0.3-0.4,0.4-0.6
				c0.2-1.5,0.5-2.9,0.9-4.1c0.4-1.3,1-2.6,1.7-4c-0.1-0.1-0.3-0.3-0.5-0.4c-0.2-0.2-0.3-0.4-0.2-0.6V37l4.2-3.6h0.8
				c0.4,0.3,1,0.7,1.7,1.2c0.8,0.4,1.5,0.9,2.3,1.4c0.8,0.5,1.5,1,2.2,1.6c0.6,0.5,1.1,1.1,1.3,1.6c0,0.1,0,0.1,0,0.2v0
				c-0.3,0.2-0.7,0.4-1.2,0.8c-0.6,0.4-1.2,0.8-1.9,1.2c-0.7,0.4-1.4,0.9-2.1,1.4c-0.7,0.5-1.4,0.9-2,1.4c-0.6,0.4-1.1,0.8-1.5,1.1
				c-0.4,0.3-0.6,0.6-0.6,0.7l0,0.4c0.9,1.5,2.1,2.4,3.5,2.9c1.4,0.5,2.9,0.7,4.6,0.7c0.8,0,1.6-0.1,2.2-0.4
				c0.6-0.2,1.3-0.5,1.8-0.9c0.6-0.4,1.2-0.9,1.7-1.4c0.6-0.5,1.2-1.1,1.9-1.6h0.3c0,0,0.1,0.1,0.2,0.2c0.1,0.1,0.2,0.3,0.3,0.4
				c0.1,0.2,0.2,0.3,0.3,0.5c0.1,0.2,0.1,0.3,0.1,0.3c0,0.2-0.1,0.4-0.3,0.6c-0.2,0.2-0.4,0.5-0.6,0.6c-0.2,0.2-0.4,0.4-0.6,0.5
				c-0.2,0.1-0.3,0.2-0.4,0.3c-1,0.8-1.9,1.5-2.9,2.1c-1,0.6-2,1.2-3,1.7c-1,0.5-2,0.8-3.1,1.1c-1.1,0.3-2.2,0.4-3.5,0.4
				c-1.7,0-3.2-0.4-4.5-1.3c-1.3-0.9-2.2-2.1-2.8-3.6H117.9z M122.7,38.7c-0.1,0.8-0.2,1.6-0.3,2.4c-0.1,0.8-0.2,1.6,0,2.3
				c0.6-0.2,1.3-0.6,2-1.1c0.7-0.5,1.3-1,1.8-1.6c-0.4-0.4-0.9-0.9-1.5-1.4C124,38.9,123.4,38.7,122.7,38.7z M131.3,44.3
				c-0.3,0-0.5-0.1-0.6-0.2c-0.1-0.1-0.1-0.3-0.1-0.6c0-0.2,0.1-0.5,0.2-0.8c0.1-0.3,0.2-0.5,0.2-0.7c1-0.5,2-1,3-1.6
				c1-0.5,1.9-1.1,2.8-1.6c-0.1-0.1-0.3-0.2-0.5-0.4c-0.2-0.2-0.4-0.4-0.5-0.6c-0.2-0.2-0.3-0.5-0.5-0.7c-0.1-0.2-0.2-0.4-0.2-0.6
				c0,0,0.1-0.2,0.4-0.4c0.2-0.2,0.6-0.5,0.9-0.8c0.4-0.3,0.8-0.6,1.2-1c0.5-0.3,0.9-0.6,1.3-0.9c0.6-0.1,1,0,1.5,0.3
				c0.4,0.3,0.8,0.6,1,1s0.6,0.8,0.8,1.2c0.2,0.4,0.5,0.7,0.8,0.8c1.5-0.5,2.9-1,4.1-1.4c1.2-0.4,2.1-0.7,2.9-0.8l-0.3,2.1
				c-0.6,0.3-1,0.6-1.4,0.8c-0.4,0.2-0.8,0.4-1.2,0.6c-0.4,0.2-0.9,0.4-1.4,0.7c-0.5,0.2-1.2,0.6-1.9,1c-0.2,0.1-0.3,0.2-0.3,0.3
				c0,0.1-0.1,0.3-0.1,0.4c0,0.2,0.1,0.7,0.2,1.3c0.1,0.6,0.3,1.4,0.4,2.2c0.2,0.8,0.4,1.7,0.6,2.7c0.2,0.9,0.5,1.8,0.7,2.6
				c0.2,0.8,0.4,1.4,0.6,1.9c0.2,0.5,0.3,0.8,0.4,0.8c1.2-1.1,2.4-1.9,3.5-2.6c1.1-0.7,2-1.3,2.8-1.8l0,2c-0.5,0.5-0.9,0.8-1.1,1.1
				c-0.2,0.2-0.4,0.4-0.6,0.6c-0.2,0.2-0.4,0.4-0.6,0.6c-0.2,0.2-0.6,0.6-1.1,1c-0.4,0.4-0.8,0.8-1.4,1.4c-0.6,0.6-1.2,1.1-1.8,1.7
				c-0.7,0.6-1.3,1-2,1.4c-0.7,0.4-1.3,0.6-1.9,0.6c-0.1,0-0.2-0.4-0.4-1.2c-0.2-0.8-0.4-1.8-0.6-3c-0.2-1.2-0.5-2.5-0.7-3.9
				c-0.3-1.4-0.5-2.7-0.8-3.9c-0.3-1.2-0.5-2.2-0.8-3c-0.3-0.8-0.5-1.2-0.8-1.1c-0.7,0.3-1.5,0.7-2.6,1.1S132.7,43.8,131.3,44.3z
				 M158.3,58.4c0.1-1.3,0.4-2.7,1-4c0.6-1.3,1.3-2.5,2.2-3.7c0.9-1.1,2-2.2,3.2-3.2c1.2-1,2.5-1.8,3.8-2.5c1.3-0.7,2.7-1.2,4.1-1.7
				c1.4-0.4,2.7-0.6,4-0.6c0.7,0,1.4,0.1,2.2,0.2c0.8,0.1,1.4,0.5,1.9,1.2c-0.3,0.4-0.7,0.8-1.1,1.1c-0.4,0.4-0.8,0.8-1.2,1.1
				c-0.4,0.3-0.8,0.6-1.1,0.9c-0.3,0.2-0.5,0.3-0.7,0.3c-0.6,0-1.2-0.2-2-0.5s-1.6-0.5-2.4-0.5c-1.4,0-2.6,0.2-3.9,0.5
				c-1.2,0.4-2.3,0.9-3.2,1.7c-0.9,0.8-1.7,1.7-2.2,2.8c-0.6,1.1-0.9,2.4-0.9,3.9c-0.1,1.3,0.3,2.4,1,3.4c0.7,0.9,1.6,1.7,2.8,2.3
				c1.1,0.6,2.3,1.1,3.6,1.4c1.3,0.3,2.5,0.4,3.6,0.4c1.1,0,2.5-0.2,4.2-0.5c1.6-0.3,3.2-0.8,4.8-1.5c1.5-0.7,2.9-1.6,4-2.8
				c1.1-1.2,1.7-2.6,1.8-4.3c0.1-1-0.1-2.1-0.5-3.1c-0.4-1-0.9-2-1.5-3c-0.6-1-1.2-2-1.9-2.9c-0.7-1-1.4-1.9-2-2.9
				c-0.7-1-1.3-2-1.9-2.8c-0.6-0.8-1.1-1.6-1.6-2.4c-0.5-0.8-1-1.6-1.5-2.4s-1-1.7-1.6-2.7c0-0.1,0-0.1-0.1-0.2
				c-0.1-0.1-0.1-0.1-0.2-0.1c-1.4,0.6-2.8,1.3-4.2,2.1c-1.4,0.8-2.8,1.6-4.2,2.4c-1.4,0.8-2.8,1.4-4.3,1.9c-1.5,0.5-3,0.8-4.6,0.8
				c0-0.3,0.2-0.6,0.5-1c0.3-0.4,0.6-0.8,1-1.1c0.4-0.4,0.7-0.7,1.1-0.9c0.4-0.3,0.7-0.4,0.9-0.5c0,0,0.2-0.1,0.5-0.1
				c0.3,0,0.6,0,0.9-0.1c0.3,0,0.6-0.1,0.9-0.1c0.3,0,0.4,0,0.5-0.1c0.9-0.2,1.7-0.5,2.6-0.8c0.9-0.4,1.8-0.7,2.6-1.2
				c0.9-0.4,1.7-0.9,2.5-1.4c0.8-0.5,1.6-1,2.2-1.5c0.2-0.1,0.3-0.2,0.5-0.3c0.2-0.1,0.2-0.2,0.2-0.3v-1.3c0-0.3,0.2-0.6,0.6-1
				c0.3-0.4,0.7-0.8,1.2-1.2c0.5-0.4,1-0.7,1.6-1c0.5-0.3,1-0.4,1.5-0.4l3.3,3.8c0,0.5-0.2,0.8-0.4,1c-0.2,0.2-0.5,0.4-0.8,0.5
				c-0.3,0.1-0.5,0.3-0.8,0.4c-0.2,0.2-0.4,0.5-0.4,0.9c0,0.5,0.2,1.2,0.8,2c0.6,0.9,1.3,1.8,2.1,2.9c0.9,1.1,1.8,2.3,2.8,3.5
				c1,1.3,1.9,2.6,2.8,3.9c0.9,1.3,1.5,2.6,2.1,4c0.5,1.3,0.8,2.6,0.7,3.9c-0.1,2.1-0.8,4.1-2.2,6c-1.4,1.9-3.1,3.5-5.2,4.9
				c-2.1,1.4-4.5,2.5-7.2,3.3c-2.7,0.8-5.4,1.2-8.2,1.2c-1.2,0-2.4-0.2-3.7-0.5c-1.3-0.4-2.4-0.9-3.5-1.6c-1-0.7-1.9-1.6-2.5-2.6
				C158.5,61,158.2,59.8,158.3,58.4z M164.1,23.6c0.3-0.3,0.7-0.6,1.1-1c0.4-0.4,0.8-0.8,1.2-1.2c0.4-0.4,0.8-0.7,1.1-0.9
				c0.3-0.3,0.5-0.4,0.6-0.4c0.2,0.1,0.6,0.2,1.2,0.3c0.6,0.2,1.2,0.4,1.8,0.6c0.6,0.2,1.2,0.5,1.6,0.9c0.5,0.3,0.7,0.6,0.7,1
				c0,0.3-0.1,0.7-0.5,1.1c-0.3,0.4-0.6,0.8-1,1.2c-0.4,0.4-0.8,0.7-1.2,1c-0.4,0.3-0.7,0.4-0.9,0.4c-0.1,0-0.2-0.1-0.4-0.4
				c-0.2-0.2-0.4-0.5-0.6-0.7c-0.3-0.2-0.6-0.4-1.1-0.5c-0.5-0.1-1-0.3-1.5-0.4c-0.5-0.1-1-0.3-1.4-0.4
				C164.5,24.1,164.3,23.9,164.1,23.6z M190.3,49.3c0-3.7,0.9-7.1,2.6-10.2c1.7-3.1,4-5.7,6.7-7.8c2.8-2.2,5.9-3.8,9.4-5
				c3.5-1.2,7-1.8,10.5-1.8c1.6,0,3.1,0.2,4.6,0.6c1.5,0.4,2.8,1,4,2c1.2,0.9,2.1,2.2,2.8,3.7c0.7,1.5,1.1,3.4,1.1,5.7
				c0,1.1-0.2,2.3-0.6,3.5c-0.4,1.3-0.9,2.5-1.6,3.8c-0.7,1.2-1.5,2.5-2.5,3.6c-0.9,1.2-2,2.2-3.1,3.1c-1.1,0.9-2.3,1.6-3.5,2.1
				c-1.2,0.5-2.5,0.8-3.8,0.8c-0.7,0-1.2-0.2-1.6-0.5c-0.4-0.3-0.8-0.7-1.1-1.1c-0.3-0.4-0.6-0.9-0.9-1.3c-0.3-0.5-0.7-0.8-1.1-1.1
				c0,0-0.1,0-0.1,0c0,0-0.1,0-0.1,0c-0.3,0-0.6,0.1-0.9,0.4c-0.3,0.3-0.7,0.6-1.1,0.9c-0.4,0.3-0.8,0.6-1.1,0.9
				c-0.4,0.3-0.7,0.4-1,0.5c-0.9,0-1.7-0.1-2.4-0.2c-0.7-0.1-1.3-0.4-1.8-0.7c-0.5-0.4-0.9-0.8-1.1-1.4c-0.2-0.6-0.4-1.3-0.4-2.3
				c0-1.2,0.4-2.5,1.2-4c0.8-1.5,1.8-2.9,3-4.2c1.2-1.3,2.5-2.4,3.8-3.3c1.4-0.9,2.6-1.4,3.8-1.4l3.1,2.4c0,0.8-0.2,1.6-0.6,2.5
				c-0.4,0.9-0.5,1.7-0.5,2.5c0,0.9,0.1,1.7,0.4,2.6c0.3,0.8,0.7,1.6,1.2,2.2c0.5,0.6,1.1,1.1,1.8,1.5c0.7,0.4,1.4,0.6,2.1,0.6
				c1,0,1.9-0.3,2.7-0.9c0.8-0.6,1.4-1.4,1.9-2.2s0.9-1.9,1.1-3c0.2-1.1,0.4-2.1,0.4-3c0-2.1-0.3-3.9-0.9-5.4
				c-0.6-1.5-1.4-2.8-2.5-3.7c-1-1-2.3-1.7-3.8-2.1s-3.1-0.7-4.8-0.7c-1.3,0-2.7,0.2-4.3,0.6c-1.6,0.4-3.3,0.9-5,1.7
				c-1.7,0.7-3.4,1.6-5,2.8c-1.6,1.1-3.1,2.4-4.3,3.8c-1.3,1.4-2.3,3-3.1,4.7c-0.8,1.7-1.2,3.6-1.2,5.6c0,1.5,0.3,2.8,0.8,3.9
				c0.5,1.1,1.2,2.1,2,3c0.8,0.9,1.8,1.6,2.9,2.1c1.1,0.6,2.2,1.1,3.3,1.4c1.2,0.4,2.3,0.6,3.4,0.8c1.1,0.2,2.1,0.2,3.1,0.2
				c2,0,3.8-0.1,5.4-0.4c1.6-0.3,3.3-0.9,5.1-1.7l0.4,1.6c-0.8,1.4-1.7,2.4-2.8,3.2c-1.1,0.7-2.4,1.3-3.7,1.6
				c-1.3,0.4-2.6,0.6-4,0.7c-1.4,0.1-2.7,0.1-3.9,0.1c-1.4,0-2.9-0.3-4.6-0.8c-1.7-0.6-3.2-1.4-4.7-2.6c-1.4-1.2-2.7-2.6-3.6-4.3
				C190.8,53.7,190.3,51.7,190.3,49.3z M206.4,43.8c0,1.2,0.3,2.1,1,2.8c0.6,0.7,1.5,1.2,2.5,1.3c0.3,0,0.6-0.1,1-0.2
				s0.5-0.4,0.5-0.6c0-0.9-0.1-1.8-0.2-2.7c-0.2-0.9-0.2-1.8-0.2-2.8c0-0.4,0-0.7,0.1-0.9c0-0.2,0.1-0.4,0.2-0.6
				c0.1-0.2,0.2-0.3,0.4-0.5c0.2-0.2,0.4-0.4,0.6-0.7c-0.6,0-1.2,0.1-1.9,0.2c-0.7,0.2-1.3,0.4-1.9,0.8c-0.6,0.4-1,0.9-1.4,1.5
				C206.7,42,206.5,42.8,206.4,43.8z M249.4,42.1l-2.5,1.5c0,0.1,0,0.1,0,0.2c0,0,0,0-0.1,0c0.1,0.1,0.2,0.5,0.4,1.1
				c0.2,0.6,0.3,1.3,0.5,2c0.2,0.7,0.3,1.4,0.5,2.1s0.3,1.1,0.3,1.2c0.1,0.2,0.1,0.4,0.1,0.5c0,0.1,0,0.2,0,0.3l-3.8,4.1h-0.4
				c-0.2-0.4-0.4-1.1-0.7-2c-0.3-0.9-0.6-1.8-1-2.9c-0.4-1-0.7-2.1-1.1-3.2c-0.4-1.1-0.7-2.1-1-3c-0.3-0.9-0.6-1.6-0.8-2.2
				c-0.2-0.6-0.4-0.9-0.4-0.9l-3.1,1.4L240,53l-3.2,3.1h-0.4c-0.3,0-0.7-0.5-1.1-1.4c-0.4-0.9-0.9-2-1.3-3.2
				c-0.4-1.2-0.8-2.4-1.2-3.6c-0.4-1.2-0.6-2-0.9-2.5c-0.3-0.6-0.5-1-0.7-1.3c-0.2-0.3-0.3-0.5-0.4-0.8c-0.1-0.2-0.2-0.5-0.4-0.8
				c-0.1-0.3-0.3-0.7-0.4-1.4c0.1-0.1,0.3-0.3,0.6-0.6s0.6-0.5,0.9-0.8c0.4-0.3,0.7-0.5,1-0.8c0.3-0.2,0.5-0.4,0.7-0.5
				c0.1-0.1,0.2-0.2,0.3-0.2c0-0.1,0.1-0.1,0.1-0.1c0,0,0.1,0,0.2,0c0.1,0,0.2,0,0.5,0c0.2,0.3,0.3,0.5,0.4,0.6
				c0.1,0.1,0.1,0.2,0.2,0.3c0,0.1,0.1,0.2,0.2,0.3c0.1,0.1,0.3,0.3,0.6,0.5l6-3h1.6c0.1,0,0.3,0.3,0.5,0.8c0.2,0.5,0.5,1.1,0.8,1.7
				c0.3,0.6,0.6,1.2,0.8,1.8c0.3,0.6,0.5,0.9,0.6,1h0.4c0.3-0.5,0.8-1,1.3-1.4c0.5-0.5,1.1-0.9,1.7-1.2c0.6-0.3,1.2-0.6,1.8-0.8
				c0.6-0.2,1.2-0.3,1.8-0.3c0.1,0,0.2,0.3,0.5,0.9c0.2,0.6,0.5,1.3,0.8,2.2c0.3,0.9,0.6,1.9,1,3s0.7,2.2,0.9,3.2
				c0.3,1,0.5,1.9,0.6,2.8c0.2,0.8,0.2,1.4,0.2,1.7v0.2l-4.3,4.1c-0.4,0-0.6,0-0.6-0.2c0-0.2-0.1-0.4-0.1-0.6
				c-0.4-2.1-0.8-4.3-1.3-6.5c-0.5-2.2-0.8-4.5-1.1-6.6L249.4,42.1z M80.8,119.8c-0.9-1.4-1.9-2.8-2.9-4.1c-1-1.4-2.1-2.8-3.2-4.2
				c-1.1-1.4-2.2-2.8-3.2-4.2c-1-1.4-2-2.7-3-4.1c-0.3-0.2-1.1-0.4-2.3-0.5c-1.2-0.1-2.6-0.3-4.3-0.4c-1.6-0.1-3.3-0.2-5.1-0.4
				c-1.8-0.1-3.5-0.3-5-0.5c-1.5-0.2-2.8-0.4-3.8-0.6c-1-0.2-1.5-0.5-1.4-0.9l0.1-0.3l0.1-0.3l1.9-2.4c1,0,2.1,0,3.3,0.2
				c1.2,0.1,2.5,0.3,3.8,0.5s2.6,0.4,3.9,0.6c1.3,0.2,2.5,0.3,3.7,0.4v-0.1c0-0.1,0-0.1,0-0.2c0-0.1-0.2-0.4-0.7-0.7
				c-0.5-0.3-1-0.8-1.7-1.2c-0.7-0.5-1.4-1.1-2.2-1.7c-0.8-0.6-1.6-1.2-2.4-1.9c-0.8-0.6-1.4-1.3-2-2c-0.6-0.7-1-1.3-1.2-1.9
				c-0.1-0.2-0.2-0.4-0.2-0.8c-0.1-0.4-0.2-0.7-0.3-1.1c-0.1-0.4-0.2-0.7-0.2-1c-0.1-0.3-0.1-0.5-0.1-0.5l2.1-4.2
				c0.5,0,1,0.2,1.5,0.6c0.5,0.4,1,0.9,1.5,1.4s1,1.1,1.4,1.7c0.5,0.6,0.8,1.1,1.2,1.5c0.5,0.6,1.5,1.1,2.9,1.5
				c1.4,0.4,3.1,0.7,5.1,0.9c1.9,0.2,4.1,0.4,6.4,0.5c2.3,0.1,4.6,0.3,6.8,0.4c2.3,0.2,4.4,0.3,6.5,0.5c2.1,0.2,3.8,0.5,5.3,1
				c0.2,0,0.4,0.2,0.4,0.4l-4.3,3.7c-0.3,0.3-0.6,0.5-0.9,0.5c-0.3,0.1-0.6,0.1-0.9,0.1c-0.2,0-0.4-0.2-0.5-0.4
				c-0.1-0.2,0-0.5,0.3-0.8c-0.8-0.3-1.8-0.5-3.1-0.8c-1.3-0.2-2.8-0.5-4.4-0.7c-1.6-0.2-3.2-0.4-5-0.5s-3.4-0.3-5-0.4
				c-1.6-0.1-3.1-0.2-4.5-0.2c-1.3-0.1-2.4-0.1-3.3-0.1c0,0,0.2,0.2,0.6,0.5c0.5,0.4,1,0.8,1.7,1.3c0.7,0.5,1.4,1.1,2.2,1.7
				c0.8,0.6,1.5,1.2,2.2,1.7c0.7,0.5,1.4,1.1,2.3,1.8c0.3,0.2,0.9,0.3,1.8,0.4c0.8,0.1,1.8,0.2,2.8,0.2c1,0.1,2.1,0.1,3.2,0.2
				c1.1,0.1,2.1,0.2,3,0.3c0.9,0.1,1.7,0.3,2.2,0.4c0.6,0.2,0.9,0.4,0.9,0.6c0,0.3-0.1,0.6-0.4,0.9s-0.5,0.6-0.9,0.9
				c-0.3,0.3-0.7,0.5-1,0.8c-0.3,0.2-0.5,0.4-0.7,0.6c-1.2-0.3-2.4-0.4-3.5-0.3c-1.1,0.1-2.4,0.2-3.8,0.2c1.4,1.8,2.9,3.7,4.5,5.5
				c1.6,1.9,3,3.8,4.2,5.7c0.2,0.3,0.4,0.6,0.6,1c0.3,0.4,0.5,0.8,0.8,1.1c0.3,0.4,0.6,0.9,0.9,1.4l-0.1,0.2l-3.2,3.5
				c-0.4-0.4-0.7-0.8-1.1-1.3C81,121,80.8,120.4,80.8,119.8z M86.2,109.7l-4.4,2.2l-0.6-0.6l2.6-2.6c0.1-0.1,0.3-0.3,0.6-0.5
				c0.2-0.2,0.5-0.4,0.8-0.6c0.2-0.2,0.5-0.4,0.7-0.6c0.2-0.2,0.3-0.4,0.4-0.6c0.2-1.5,0.5-2.9,0.9-4.2c0.4-1.3,1-2.6,1.7-4
				c-0.1-0.1-0.3-0.3-0.5-0.4c-0.2-0.2-0.3-0.4-0.2-0.6V97l4.2-3.6h0.8c0.4,0.3,1,0.7,1.7,1.2s1.5,0.9,2.3,1.4
				c0.8,0.5,1.5,1,2.2,1.6s1.1,1.1,1.3,1.6c0,0.1,0,0.1,0,0.2v0c-0.3,0.2-0.7,0.4-1.2,0.8c-0.6,0.4-1.2,0.8-1.9,1.2
				c-0.7,0.4-1.4,0.9-2.1,1.4c-0.7,0.5-1.4,0.9-2,1.4c-0.6,0.4-1.1,0.8-1.5,1.2c-0.4,0.3-0.6,0.6-0.6,0.7l0,0.4
				c0.9,1.5,2.1,2.4,3.5,2.9c1.4,0.5,2.9,0.7,4.6,0.7c0.8,0,1.6-0.1,2.2-0.4c0.6-0.2,1.3-0.5,1.8-1c0.6-0.4,1.2-0.9,1.7-1.4
				c0.6-0.5,1.2-1.1,1.9-1.6h0.3c0,0,0.1,0.1,0.2,0.2s0.2,0.3,0.3,0.4c0.1,0.2,0.2,0.3,0.3,0.5c0.1,0.2,0.1,0.3,0.1,0.3
				c0,0.2-0.1,0.4-0.3,0.6c-0.2,0.2-0.4,0.4-0.6,0.6c-0.2,0.2-0.4,0.4-0.6,0.5c-0.2,0.1-0.3,0.2-0.4,0.3c-1,0.8-1.9,1.5-2.9,2.1
				c-1,0.7-2,1.2-3,1.7s-2,0.8-3.1,1.1c-1.1,0.3-2.2,0.4-3.5,0.4c-1.7,0-3.2-0.4-4.5-1.3c-1.3-0.9-2.2-2.1-2.8-3.6H86.2z M91,98.7
				c-0.1,0.8-0.2,1.6-0.3,2.4s-0.2,1.6,0,2.3c0.6-0.2,1.3-0.6,2-1.1c0.7-0.5,1.3-1,1.8-1.6c-0.4-0.4-0.9-0.9-1.5-1.3
				C92.3,98.9,91.7,98.7,91,98.7z M106.4,111.4c0.4,0,0.8,0.1,1.3,0.2c0.5,0.1,1,0.2,1.6,0.4c0.6,0.1,1.1,0.3,1.6,0.4
				c0.5,0.1,1,0.2,1.4,0.2c0.1,0,0.3,0,0.5,0c0.2,0,0.5,0,0.8-0.1c0.3,0,0.5-0.1,0.8-0.1c0.2,0,0.4-0.1,0.5-0.2l0.2-0.8
				c-0.2-0.1-0.7-0.2-1.5-0.5c-0.8-0.3-1.7-0.6-2.7-1c-1-0.4-2.1-0.8-3.2-1.3c-1.1-0.5-2.2-1-3.1-1.5c-0.9-0.5-1.7-1.1-2.4-1.6
				c-0.6-0.5-0.9-1-0.9-1.4c0.8-1,1.6-2,2.6-3c1-1,2-2,3.1-2.8s2.3-1.5,3.5-2.1c1.2-0.5,2.5-0.8,3.7-0.8c0.2,0,0.4,0,0.6,0
				c0.2,0,0.5,0,0.7,0c0.5,0,0.9,0.1,1.3,0.2c0.4,0.1,0.6,0.4,0.7,0.8c-1.3,1.6-2.8,3.1-4.4,4.4c-0.2,0-0.7,0-1.4-0.1
				c-0.7-0.1-1.3-0.1-1.9-0.1c-0.3,0-0.7,0-1.1,0c-0.5,0-0.9,0.1-1.3,0.2c-0.4,0.1-0.8,0.2-1.1,0.4c-0.3,0.2-0.5,0.4-0.5,0.7
				c0,0.3,0.3,0.7,1,1c0.7,0.4,1.7,0.7,2.8,1.1c1.1,0.4,2.3,0.8,3.6,1.2c1.3,0.4,2.5,0.8,3.7,1.3c1.1,0.5,2.1,0.9,2.8,1.4
				c0.8,0.5,1.2,1,1.2,1.5c0,0.1-0.1,0.3-0.3,0.7c-0.2,0.4-0.4,0.6-0.5,0.8c-1.3,1.4-2.4,2.4-3.5,3.1c-1.1,0.7-2.1,1.2-3.2,1.6
				c-1.1,0.3-2.2,0.5-3.4,0.5c-1.2,0-2.7,0-4.4,0c-0.4,0-0.8,0-1.2,0c-0.4,0-0.8,0-1.2,0c-0.4,0-0.6-0.1-0.9-0.1
				c-0.2-0.1-0.3-0.2-0.3-0.2l0.1-0.5c0-0.1,0.2-0.4,0.6-0.8c0.4-0.4,0.9-0.8,1.4-1.2c0.5-0.4,1-0.8,1.5-1.2
				C106,111.6,106.3,111.4,106.4,111.4z M116.1,104.3c-0.3,0-0.5-0.1-0.6-0.2c-0.1-0.1-0.1-0.3-0.1-0.6c0-0.2,0.1-0.5,0.2-0.8
				c0.1-0.3,0.2-0.5,0.2-0.7c1-0.5,2-1,3-1.6c1-0.6,1.9-1.1,2.8-1.6c-0.1-0.1-0.3-0.2-0.5-0.4c-0.2-0.2-0.4-0.4-0.5-0.6
				c-0.2-0.2-0.3-0.5-0.5-0.7c-0.1-0.2-0.2-0.4-0.2-0.6c0,0,0.1-0.2,0.4-0.4c0.2-0.2,0.6-0.5,0.9-0.8c0.4-0.3,0.8-0.6,1.2-1
				c0.5-0.3,0.9-0.6,1.3-0.9c0.6-0.1,1,0,1.5,0.3c0.4,0.3,0.8,0.6,1,1c0.3,0.4,0.6,0.8,0.8,1.2c0.2,0.4,0.5,0.7,0.8,0.8
				c1.5-0.5,2.9-1,4.1-1.5c1.2-0.4,2.1-0.7,2.9-0.8l-0.3,2c-0.6,0.3-1,0.6-1.4,0.8c-0.4,0.2-0.8,0.4-1.2,0.6
				c-0.4,0.2-0.9,0.4-1.4,0.7c-0.5,0.2-1.2,0.6-1.9,1c-0.2,0.1-0.3,0.2-0.3,0.3c0,0.1-0.1,0.3-0.1,0.4c0,0.2,0.1,0.7,0.2,1.3
				c0.1,0.6,0.3,1.4,0.4,2.2c0.2,0.8,0.4,1.7,0.6,2.7c0.2,0.9,0.5,1.8,0.7,2.6c0.2,0.8,0.4,1.4,0.6,2c0.2,0.5,0.3,0.8,0.4,0.8
				c1.2-1.1,2.4-1.9,3.5-2.6c1.1-0.7,2-1.3,2.8-1.8l0,2c-0.5,0.5-0.9,0.8-1.1,1c-0.2,0.2-0.4,0.4-0.6,0.6c-0.2,0.2-0.4,0.4-0.6,0.6
				c-0.2,0.2-0.6,0.6-1.1,1c-0.4,0.4-0.8,0.8-1.4,1.4c-0.6,0.6-1.2,1.1-1.8,1.7c-0.7,0.6-1.3,1.1-2,1.5c-0.7,0.4-1.3,0.6-1.9,0.6
				c-0.1,0-0.2-0.4-0.4-1.2c-0.2-0.8-0.4-1.8-0.6-3c-0.2-1.2-0.5-2.5-0.7-3.9c-0.3-1.4-0.5-2.7-0.8-3.9c-0.3-1.2-0.5-2.2-0.8-3
				c-0.3-0.8-0.5-1.2-0.8-1.1c-0.7,0.3-1.5,0.7-2.6,1.1C118.8,103.4,117.5,103.8,116.1,104.3z M136.9,102.8c-0.2,0-0.4-0.2-0.5-0.7
				c-0.1-0.4-0.2-0.9-0.2-1.5c0-0.6,0-1.1,0-1.7c0-0.5,0-0.9,0-1.1l3.8-3.5h0.8c0.1,0,0.2,0.2,0.2,0.6c0.1,0.4,0.1,0.9,0.1,1.5
				c0,0.6,0,1.1,0,1.6c0,0.5,0,0.9,0,1L136.9,102.8z M143.5,126.4c-0.6,0-1.1-0.5-1.7-1.4c-0.6-0.9-1.1-2.1-1.5-3.5
				c-0.5-1.4-0.9-2.9-1.3-4.6c-0.4-1.7-0.7-3.2-1-4.8c-0.3-1.5-0.5-2.8-0.6-4c-0.1-1.2-0.2-1.9-0.2-2.2v-0.1l4-3h0.8
				c0.1,1.3,0.3,2.5,0.4,3.6c0.1,1.1,0.3,2.2,0.5,3.3c0.2,1.1,0.4,2.1,0.6,3.2c0.3,1.1,0.6,2.2,1,3.5c0.1,0.4,0.4,0.8,0.7,1.4
				c0.3,0.6,0.6,1.2,1,1.8c0.3,0.6,0.6,1.2,0.9,1.9c0.2,0.6,0.4,1.1,0.4,1.4L143.5,126.4z M142.2,102.5c0.1-0.1,0.3-0.2,0.5-0.4
				s0.4-0.4,0.7-0.7c0.2-0.2,0.5-0.5,0.7-0.6c0.2-0.2,0.3-0.4,0.4-0.5c0.4-0.4,0.6-0.6,0.7-0.7c0.1-0.1,0.3-0.2,0.6-0.2
				c0.4,0,0.9,0.2,1.5,0.7c0.5,0.4,1.1,1,1.7,1.6c0.6,0.6,1.2,1.4,1.8,2.1c0.6,0.8,1.2,1.5,1.8,2.2c0.6,0.7,1.2,1.3,1.7,1.8
				c0.5,0.5,1,0.9,1.5,1c0-0.1,0-0.2,0-0.3c0-0.1,0-0.2,0-0.3c0.1-0.5,0.2-1.2,0.2-2c0-0.8,0.1-1.6,0.1-2.5c0-0.8,0.1-1.7,0.1-2.5
				c0-0.8,0.1-1.5,0.2-2c0,0,0.1-0.1,0.1-0.2c0.1-0.1,0.1-0.2,0.1-0.2l3.6-2.8c0.2,0,0.4,0.4,0.4,1.1c0,0.7,0,1.5,0,2.6
				c-0.1,1-0.2,2.2-0.3,3.5c-0.1,1.2-0.3,2.5-0.4,3.6c-0.1,1.2-0.2,2.2-0.3,3.1c-0.1,0.9,0,1.6,0.1,2c-0.2,0.1-0.4,0.3-0.7,0.6
				c-0.3,0.3-0.7,0.6-1.1,0.9c-0.4,0.3-0.8,0.6-1.2,0.9c-0.4,0.3-0.8,0.5-1.1,0.6c-2-2.3-4-4.5-6.2-6.7c-2.1-2.1-4.4-4.1-6.8-5.8
				c-0.1,0-0.1,0-0.2-0.1C142.2,102.6,142.2,102.6,142.2,102.5z M163.5,116.6c0-0.7,0.2-1.4,0.6-2.2c0.4-0.8,0.8-1.6,1.3-2.3
				c0.5-0.8,1.1-1.5,1.6-2.3c0.6-0.7,1.1-1.4,1.6-2c0.5-0.6,1-1.1,1.3-1.6c0.4-0.4,0.6-0.8,0.6-1c0.1-0.4,0.1-1,0-2
				c-0.1-0.9-0.4-1.8-0.7-2.7c-0.4-0.9-0.9-1.7-1.5-2.4c-0.6-0.7-1.4-1-2.3-1c-1.5,0-2.6,0.4-3.3,1.2c-0.7,0.8-1.1,1.9-1.2,3.3
				c0,0.4,0,0.9,0.2,1.3c0.2,0.5,0.4,0.9,0.6,1.4c0.2,0.5,0.4,0.9,0.6,1.3c0.2,0.4,0.3,0.8,0.2,1.2c0,0.2-0.1,0.5-0.4,0.8
				c-0.2,0.3-0.5,0.7-0.8,1.1c-0.3,0.4-0.7,0.7-1,1c-0.3,0.3-0.6,0.6-0.9,0.8c-0.2-0.5-0.3-0.9-0.5-1.2c-0.1-0.4-0.3-0.7-0.4-1.1
				c-0.1-0.4-0.2-0.8-0.3-1.2c-0.1-0.4-0.1-0.9-0.1-1.5c0-1.5,0.3-3.1,0.9-4.6c0.6-1.5,1.4-2.9,2.4-4.1c1-1.2,2.2-2.2,3.5-3
				c1.3-0.8,2.7-1.2,4.2-1.2c1,0,1.7,0.4,2.2,1.3c0.5,0.9,1,1.9,1.3,3.1c0.3,1.2,0.6,2.3,0.8,3.5c0.2,1.1,0.5,2,0.8,2.5
				c0.2-0.2,0.5-0.5,0.8-0.8c0.3-0.3,0.7-0.5,1-0.5l0.1,0.9c0,0.3-0.1,0.6-0.3,0.8c-0.2,0.2-0.4,0.4-0.6,0.6s-0.4,0.4-0.5,0.6
				c-0.2,0.2-0.2,0.4-0.2,0.8c0,0.2,0,0.5,0.1,1c0.1,0.5,0.1,1,0.2,1.5s0.2,1,0.4,1.4c0.1,0.4,0.3,0.6,0.4,0.6c0,0,0.1,0,0.2,0
				c0.1,0,0.3-0.1,0.4-0.1c0.2,0,0.3-0.1,0.4-0.1c0.1,0,0.2,0,0.2,0h0.2c0.1,0,0.2,0,0.3,0c0,0,0.1,0.1,0.1,0.3
				c-0.6,1-1.1,1.8-1.7,2.6c-0.6,0.8-1.3,1.5-2.2,2.2c-0.3,0-0.5,0-0.8-0.1c-0.2-0.1-0.5-0.2-0.9-0.2c-0.4,0.2-1,0.5-1.7,0.9
				c-0.7,0.4-1.5,0.8-2.2,1.2c-0.8,0.4-1.6,0.7-2.3,1c-0.8,0.3-1.4,0.4-1.9,0.4c-0.3,0-0.6-0.2-0.7-0.6
				C163.6,117.1,163.5,116.8,163.5,116.6z M171.2,108.4c-0.2,0-0.5,0.2-1,0.7c-0.5,0.5-1,1-1.5,1.6c-0.5,0.6-1.1,1.3-1.5,2
				c-0.5,0.7-0.8,1.3-0.9,1.8c0.2,0,0.5-0.1,1.1-0.3s1.2-0.5,1.9-0.8s1.2-0.6,1.7-0.9c0.5-0.3,0.8-0.5,0.8-0.7l-0.5-3.5H171.2z
				 M175.1,81.7c0.5,1,1,2.3,1.5,4c0.5,1.6,1,3.4,1.5,5.4c0.5,2,1,4,1.5,6c0.5,2.1,0.9,4,1.3,5.9s0.8,3.6,1.1,5.1
				c0.3,1.5,0.6,2.6,0.7,3.4c0.1-0.1,0.5-0.3,1-0.6c0.5-0.3,1.1-0.6,1.7-0.9c0.6-0.3,1.2-0.6,1.7-0.9c0.5-0.3,0.9-0.5,1.1-0.6
				c0.5-0.4,1-0.6,1.5-0.6c0.5,0,1,0.1,1.5,0.2v1.3c-1,0.4-1.9,0.8-2.7,1.2c-0.9,0.5-1.7,1-2.5,1.6c-0.8,0.6-1.7,1.3-2.6,2
				c-0.9,0.8-1.8,1.6-2.8,2.6l-1.1-0.3c-0.7-2.7-1.4-5.4-2-8.1c-0.6-2.7-1.2-5.4-1.9-8c-0.7-2.7-1.4-5.3-2.2-8c-0.8-2.7-1.8-5.3-3-8
				L175.1,81.7z M201.1,86.8c0.6,0,1.1,0.5,1.7,1.4c0.5,0.9,1.1,2.1,1.5,3.5c0.5,1.4,0.9,2.9,1.3,4.6c0.4,1.7,0.7,3.2,1,4.8
				c0.3,1.5,0.5,2.8,0.6,4c0.2,1.1,0.2,1.9,0.2,2.2v0.2l-3.9,3h-0.8c-0.1-1.3-0.3-2.5-0.4-3.7c-0.1-1.1-0.3-2.2-0.4-3.3
				c-0.2-1.1-0.4-2.1-0.6-3.2c-0.3-1.1-0.6-2.2-1-3.5c-0.1-0.3-0.4-0.8-0.7-1.4c-0.3-0.6-0.6-1.2-0.9-1.9c-0.3-0.6-0.6-1.2-0.9-1.8
				s-0.4-1.1-0.4-1.4L201.1,86.8z M207.7,110.4c0.2,0,0.4,0.2,0.5,0.7s0.2,0.9,0.2,1.5c0,0.6,0,1.1,0,1.6c0,0.5,0,0.9,0,1.1
				l-3.9,3.5h-0.8c-0.1,0-0.2-0.2-0.2-0.7c0-0.4-0.1-0.9-0.1-1.5c0-0.6,0-1.1,0-1.6c0-0.5,0-0.9,0-1L207.7,110.4z M211.8,86.8
				c0.6,0,1.1,0.5,1.7,1.4c0.5,0.9,1.1,2.1,1.5,3.5c0.5,1.4,0.9,2.9,1.3,4.6c0.4,1.7,0.7,3.2,1,4.8c0.3,1.5,0.5,2.8,0.6,4
				c0.2,1.1,0.2,1.9,0.2,2.2v0.2l-3.9,3h-0.8c-0.1-1.3-0.3-2.5-0.4-3.7c-0.1-1.1-0.3-2.2-0.4-3.3c-0.2-1.1-0.4-2.1-0.6-3.2
				c-0.3-1.1-0.6-2.2-1-3.5c-0.1-0.3-0.4-0.8-0.7-1.4c-0.3-0.6-0.6-1.2-0.9-1.9c-0.3-0.6-0.6-1.2-0.9-1.8s-0.4-1.1-0.4-1.4
				L211.8,86.8z M218.4,110.4c0.2,0,0.4,0.2,0.5,0.7s0.2,0.9,0.2,1.5c0,0.6,0,1.1,0,1.6c0,0.5,0,0.9,0,1.1l-3.9,3.5h-0.8
				c-0.1,0-0.2-0.2-0.2-0.7c0-0.4-0.1-0.9-0.1-1.5c0-0.6,0-1.1,0-1.6c0-0.5,0-0.9,0-1L218.4,110.4z M222.5,86.8
				c0.6,0,1.1,0.5,1.7,1.4c0.5,0.9,1.1,2.1,1.5,3.5c0.5,1.4,0.9,2.9,1.3,4.6c0.4,1.7,0.7,3.2,1,4.8c0.3,1.5,0.5,2.8,0.6,4
				c0.2,1.1,0.2,1.9,0.2,2.2v0.2l-3.9,3h-0.8c-0.1-1.3-0.3-2.5-0.4-3.7c-0.1-1.1-0.3-2.2-0.4-3.3c-0.2-1.1-0.4-2.1-0.6-3.2
				c-0.3-1.1-0.6-2.2-1-3.5c-0.1-0.3-0.4-0.8-0.7-1.4c-0.3-0.6-0.6-1.2-0.9-1.9c-0.3-0.6-0.6-1.2-0.9-1.8s-0.4-1.1-0.4-1.4
				L222.5,86.8z M229.1,110.4c0.2,0,0.4,0.2,0.5,0.7s0.2,0.9,0.2,1.5c0,0.6,0,1.1,0,1.6c0,0.5,0,0.9,0,1.1l-3.9,3.5h-0.8
				c-0.1,0-0.2-0.2-0.2-0.7c0-0.4-0.1-0.9-0.1-1.5c0-0.6,0-1.1,0-1.6c0-0.5,0-0.9,0-1L229.1,110.4z"/>
		</defs>
		<clipPath id="SVGID_00000023264717405573030760000015598756997807826079_">
			<use xlink:href="#SVGID_00000099620983229247201190000009012315058504580752_"  style="overflow:visible;"/>
		</clipPath>
		
			<linearGradient id="SVGID_00000034767964779523736580000003390709932110404541_" gradientUnits="userSpaceOnUse" x1="67.3742" y1="163.0301" x2="216.2679" y2="-14.409" gradientTransform="matrix(1 0 0 -1 0 147.2756)">
			<stop  offset="0" style="stop-color:#A2C2D1"/>
			<stop  offset="0.13" style="stop-color:#71A0AB"/>
			<stop  offset="1" style="stop-color:#D600F5"/>
		</linearGradient>
		
			<rect x="25.6" y="19.3" style="clip-path:url(#SVGID_00000023264717405573030760000015598756997807826079_);fill:url(#SVGID_00000034767964779523736580000003390709932110404541_);" width="232.5" height="107.3"/>
	</g>
</g>
</svg>
