<?xml version="1.0" encoding="UTF-8"?>
<svg id="Calque_2" data-name="Calque 2" xmlns="http://www.w3.org/2000/svg" xmlns:xlink="http://www.w3.org/1999/xlink" viewBox="0 0 190.52 46.21">
  <defs>
    <style>
      .cls-1 {
        letter-spacing: .05em;
      }

      .cls-2, .cls-3 {
        fill: #f0f;
      }

      .cls-4 {
        fill: url(#Dégradé_sans_nom_194-2);
      }

      .cls-5 {
        fill: url(#Dégradé_sans_nom_193-2);
      }

      .cls-6 {
        letter-spacing: .03em;
      }

      .cls-3 {
        font-family: SubwayNewYorkStd, 'Subway NewYork Std';
        font-size: 35.87px;
      }

      .cls-7 {
        opacity: .6;
      }

      .cls-8 {
        fill: url(#Dégradé_sans_nom_193);
      }

      .cls-9 {
        fill: url(#Dégradé_sans_nom_194);
      }
    </style>
    <linearGradient id="Dégradé_sans_nom_193" data-name="Dégradé sans nom 193" x1="-8.76" y1="14.92" x2="10.16" y2="37.46" gradientUnits="userSpaceOnUse">
      <stop offset="0" stop-color="#ff00ea"/>
      <stop offset="1" stop-color="#363636" stop-opacity="0"/>
    </linearGradient>
    <linearGradient id="Dégradé_sans_nom_194" data-name="Dégradé sans nom 194" x1="172.95" y1="347.02" x2="263.24" y2="454.62" gradientTransform="translate(-118.67 -400.12)" gradientUnits="userSpaceOnUse">
      <stop offset="0" stop-color="#ff00ea"/>
      <stop offset=".17" stop-color="#ca0eba" stop-opacity=".74"/>
      <stop offset=".33" stop-color="#9d1a92" stop-opacity=".51"/>
      <stop offset=".49" stop-color="#782471" stop-opacity=".33"/>
      <stop offset=".64" stop-color="#5b2b57" stop-opacity=".19"/>
      <stop offset=".78" stop-color="#463145" stop-opacity=".08"/>
      <stop offset=".9" stop-color="#3a3439" stop-opacity=".02"/>
      <stop offset="1" stop-color="#363636" stop-opacity="0"/>
    </linearGradient>
    <linearGradient id="Dégradé_sans_nom_193-2" data-name="Dégradé sans nom 193" x1="-484.3" y1="517.28" x2="-465.39" y2="539.82" gradientTransform="translate(664.66 -508.53)" xlink:href="#Dégradé_sans_nom_193"/>
    <linearGradient id="Dégradé_sans_nom_194-2" data-name="Dégradé sans nom 194" x1="-329.41" y1="-128.53" x2="-239.12" y2="-20.93" gradientTransform="translate(375.36 120.24)" xlink:href="#Dégradé_sans_nom_194"/>
  </defs>
  <g id="Maquette">
    <g>
      <g>
        <polygon class="cls-7" points="182.19 44.81 1.4 44.81 1.4 7.57 8.33 1.4 189.11 1.4 189.11 38.64 182.19 44.81"/>
        <rect class="cls-8" y="7.57" width="1.4" height="37.24"/>
        <polygon class="cls-2" points="8.33 0 8.33 1.4 1.4 7.57 0 7.57 8.33 0"/>
        <rect class="cls-9" x="98.72" y="-90.39" width="1.4" height="182.19" transform="translate(98.72 100.12) rotate(-90)"/>
        <rect class="cls-5" x="189.11" y="1.4" width="1.4" height="37.24" transform="translate(379.63 40.04) rotate(180)"/>
        <polygon class="cls-2" points="182.19 46.21 182.19 44.81 189.11 38.64 190.52 38.64 182.19 46.21"/>
        <rect class="cls-4" x="90.39" y="-45.58" width="1.4" height="182.19" transform="translate(136.6 -45.58) rotate(90)"/>
      </g>
      <text class="cls-3" transform="translate(5.42 30.57)"><tspan class="cls-1" x="0" y="0">S†re</tspan><tspan class="cls-6" x="72.3" y="0">e</tspan><tspan class="cls-1" x="86.15" y="0">t Føød</tspan></text>
      <path class="cls-2" d="m6.03,38.47c.87-.55,9.22.71,12.35.71h127.74c17.37,0,31.15-2.14,33.08-1.32s1.91,3.96,0,4.53-17.28-1.24-26.54-1.24H18.29c-3.13,0-11.51,1.26-12.26.6s-.87-2.75,0-3.3Z"/>
    </g>
  </g>
</svg>